<?xml version="1.0" encoding="UTF-8"?>
<!DOCTYPE svg PUBLIC "-//W3C//DTD SVG 1.0//EN" "http://www.w3.org/TR/2001/REC-SVG-20010904/DTD/svg10.dtd">
<svg fill-opacity="1" xmlns:xlink="http://www.w3.org/1999/xlink" color-rendering="auto" color-interpolation="auto" text-rendering="auto" stroke="black" stroke-linecap="square" stroke-miterlimit="10" shape-rendering="auto" stroke-opacity="1" fill="black" stroke-dasharray="none" font-weight="normal" stroke-width="1" xmlns="http://www.w3.org/2000/svg" font-family="'Dialog'" font-style="normal" stroke-linejoin="miter" font-size="12" stroke-dashoffset="0" image-rendering="auto">
  <!--Unicode Character 'LIGHT SHADE' (U+2591)-->
  <defs id="genericDefs"/>
  <g>
    <g>
      <path d="M86.3438 85.5 L115.1719 85.5 L115.1719 114.6094 L86.3438 114.6094 L86.3438 85.5 ZM28.6875 114.6094 L57.5156 114.6094 L57.5156 144 L28.6875 144 L28.6875 114.6094 ZM144 114.6094 L172.8281 114.6094 L172.8281 144 L144 144 L144 114.6094 ZM86.3438 142.4531 L115.1719 142.4531 L115.1719 171.8438 L86.3438 171.8438 L86.3438 142.4531 ZM28.6875 171.8438 L57.5156 171.8438 L57.5156 201.2344 L28.6875 201.2344 L28.6875 171.8438 ZM144 171.8438 L172.8281 171.8438 L172.8281 201.2344 L144 201.2344 L144 171.8438 ZM86.3438 200.6719 L115.1719 200.6719 L115.1719 230.0625 L86.3438 230.0625 L86.3438 200.6719 ZM28.6875 230.0625 L57.5156 230.0625 L57.5156 259.4531 L28.6875 259.4531 L28.6875 230.0625 ZM144 230.0625 L172.8281 230.0625 L172.8281 259.4531 L144 259.4531 L144 230.0625 ZM86.3438 258.6094 L115.1719 258.6094 L115.1719 287.7188 L86.3438 287.7188 L86.3438 258.6094 ZM28.6875 287.7188 L57.5156 287.7188 L57.5156 317.1094 L28.6875 317.1094 L28.6875 287.7188 ZM144 287.7188 L172.8281 287.7188 L172.8281 317.1094 L144 317.1094 L144 287.7188 ZM86.3438 316.6875 L115.1719 316.6875 L115.1719 345.7969 L86.3438 345.7969 L86.3438 316.6875 ZM28.6875 345.7969 L57.5156 345.7969 L57.5156 375.1875 L28.6875 375.1875 L28.6875 345.7969 ZM144 345.7969 L172.8281 345.7969 L172.8281 375.1875 L144 375.1875 L144 345.7969 ZM86.3438 374.3438 L115.1719 374.3438 L115.1719 403.7344 L86.3438 403.7344 L86.3438 374.3438 ZM28.6875 403.7344 L57.5156 403.7344 L57.5156 433.125 L28.6875 433.125 L28.6875 403.7344 ZM144 403.7344 L172.8281 403.7344 L172.8281 433.125 L144 433.125 L144 403.7344 ZM86.3438 432 L115.1719 432 L115.1719 461.3906 L86.3438 461.3906 L86.3438 432 Z" stroke="none"/>
    </g>
  </g>
</svg>