<?xml version="1.0" standalone="no"?>
<!DOCTYPE svg PUBLIC "-//W3C//DTD SVG 1.1//EN" "http://www.w3.org/Graphics/SVG/1.1/DTD/svg11.dtd" >
<svg xmlns="http://www.w3.org/2000/svg">
<metadata></metadata>
<defs>
<font id="comprehensionsemibold" horiz-adv-x="1028" >
<font-face units-per-em="2048" ascent="1434" descent="-614" />
<missing-glyph horiz-adv-x="476" />
<glyph horiz-adv-x="0" />
<glyph horiz-adv-x="682" />
<glyph unicode=" "  horiz-adv-x="476" />
<glyph unicode="&#x09;" horiz-adv-x="476" />
<glyph unicode="&#xa0;" horiz-adv-x="476" />
<glyph unicode="!" horiz-adv-x="562" d="M148 112q0 48 39 82t93 34t93 -36t39 -84t-38 -84t-92 -36t-94 37t-40 87zM172 1160q0 50 32.5 82t83.5 32q45 0 75.5 -34t30.5 -82l-84 -760h-58z" />
<glyph unicode="&#x22;" horiz-adv-x="676" d="M94 1246q0 48 34 96t80 48l54 -24l-36 -416l-38 -34l-12 8zM402 1246q0 48 34 96t80 48l54 -24l-36 -416l-38 -34l-12 8z" />
<glyph unicode="#" horiz-adv-x="1052" d="M134 336l24 96h136l52 286h-150l22 96h144l40 216l46 22l14 -4l-42 -234h298l38 216l46 22l14 -4l-40 -234h136l-14 -96h-140l-50 -286h146l-18 -96h-144l-38 -218l-52 -20l-10 4l42 234h-298l-40 -218l-48 -20l-10 4l42 234h-146zM354 432h294l52 286h-296z" />
<glyph unicode="$" horiz-adv-x="984" d="M106 330l48 18l20 -12l122 -208q46 -38 82 -54l94 488q-142 83 -189 119q-142 108 -150 241q-1 10 -1 20q0 93 63.5 172t161 121.5t201.5 42.5q36 0 52 -2l26 136l6 8h78l6 -10l-28 -144q34 -6 101.5 -20.5t90.5 -19.5l22 -280l-14 -8l-36 12l-100 190q-34 36 -76 56 l-88 -460l44 -26q17 -10 55 -32t59.5 -35t56.5 -36.5t56 -42.5t46.5 -46.5t39.5 -54.5t23.5 -61.5t9.5 -71.5q0 -100 -65.5 -182t-167 -125t-213.5 -43q-28 0 -88 4l-26 -140l-92 -14l-4 8l30 158q-80 11 -210 36zM344 1022q0 -122 172 -234l82 432q-16 2 -44 2 q-100 0 -155 -54.5t-55 -145.5zM466 44q30 -6 66 -6q99 0 168.5 57.5t69.5 162.5q0 44 -17.5 83t-51 71t-66 55t-79.5 49z" />
<glyph unicode="%" horiz-adv-x="1446" d="M88 976q0 129 93 219.5t231 90.5q137 0 225.5 -88t88.5 -216q0 -125 -89 -217.5t-225 -92.5q-138 0 -231 88.5t-93 215.5zM130 -20l1072 1260q20 20 56 20q17 0 25.5 -1.5t10 -3t4.5 -5.5l-1074 -1258q-3 -7 -26.5 -15.5t-43.5 -8.5q-24 0 -24 12zM242 996 q0 -67 20.5 -131.5t64 -110.5t99.5 -46q45 0 77 23t46.5 62t20.5 77t6 82q0 67 -18 131t-60.5 111.5t-99.5 47.5q-46 0 -78 -22.5t-48 -61.5t-23 -78t-7 -84zM722 302q0 126 90.5 216t225.5 90q141 0 230.5 -86t89.5 -214q0 -124 -90.5 -215t-229.5 -91q-135 0 -225.5 87 t-90.5 213zM872 328q0 -67 20 -132t62.5 -111.5t97.5 -46.5q152 0 152 246q0 67 -18 131t-60.5 111.5t-99.5 47.5q-37 0 -65 -15.5t-44.5 -40t-27 -58.5t-14 -65.5t-3.5 -66.5z" />
<glyph unicode="&#x26;" horiz-adv-x="1516" d="M130 292q0 95 46 166t146 136l150 84q-86 127 -109 180t-23 128q0 121 91 201.5t231 80.5q156 0 251 -59t95 -159q0 -140 -146 -244l-180 -100l314 -392l210 194l-154 44v48h402l-2 -58l-130 -52l-268 -240l156 -170l164 124l58 -42l-142 -142q-68 -36 -122 -36 q-62 0 -119.5 37.5t-134.5 116.5q-5 -4 -25.5 -19.5t-25 -19t-22.5 -16.5t-23.5 -16.5t-21 -13.5t-22.5 -14t-21 -11.5t-24 -11t-23 -8t-26 -8.5q-71 -20 -150 -20q-168 0 -284 85.5t-116 226.5zM346 370q0 -123 95.5 -206.5t236.5 -83.5l178 124l-334 408l-132 -100 q-44 -52 -44 -142zM524 1046q0 -48 20.5 -104.5t40 -89t55.5 -88.5l216 148q16 48 16 102q0 89 -49.5 145.5t-136.5 56.5q-69 0 -115.5 -48.5t-46.5 -121.5z" />
<glyph unicode="'" horiz-adv-x="380" d="M92 1256q0 54 36.5 99t89.5 45l58 -26l-38 -408l-44 -32l-10 6z" />
<glyph unicode="(" horiz-adv-x="608" d="M88 590q0 131 29.5 252t76.5 212.5t111 171t126.5 133.5t130.5 95l18 -30q-122 -101 -217 -332t-95 -502q0 -272 95.5 -503t216.5 -331q-12 -25 -22 -32q-67 41 -129 95.5t-125.5 134.5t-110 171.5t-76 212.5t-29.5 252z" />
<glyph unicode=")" horiz-adv-x="608" d="M28 -244q123 100 217.5 331t94.5 503q0 273 -95 504t-217 330l20 30q68 -41 131 -95t126.5 -134t110 -171.5t75.5 -212t29 -251.5t-29.5 -252.5t-76 -213t-110.5 -171.5t-126 -134t-128 -95q-17 17 -22 32z" />
<glyph unicode="*" horiz-adv-x="974" d="M90 938q-6 29 14.5 53t61.5 31l250 -20l38 20l-10 34l-160 166q-20 35 -13.5 66t31.5 44q29 13 61 2.5t51 -42.5l54 -220l32 -30l32 14l126 190q29 29 66 33t58 -15q22 -20 20 -52t-30 -58l-216 -116l-16 -36l26 -26l238 -50q39 -16 54.5 -44.5t1.5 -53.5 q-14 -26 -46 -34.5t-70 6.5l-190 150l-42 8l-14 -32l20 -218q-6 -38 -31 -59t-53 -19q-35 6 -53.5 30.5t-12.5 61.5l96 208l-6 38l-36 6l-224 -86q-42 -7 -72.5 9t-35.5 41z" />
<glyph unicode="+" horiz-adv-x="1194" d="M80 460l26 80h436l2 400l82 20l22 -10v-410h452l14 -18l-28 -76h-438v-402l-86 -22l-18 12v412h-456z" />
<glyph unicode="," horiz-adv-x="468" d="M42 -246l156 158v54q0 25 -14 46t-30 34t-30 38t-14 58l204 90l34 -128q16 -58 -6 -125t-78 -113l-182 -150z" />
<glyph unicode="-" horiz-adv-x="826" d="M136 422l28 96l518 24l8 -10l-28 -102l-514 -22z" />
<glyph unicode="." horiz-adv-x="486" d="M110 112q0 48 40 82t94 34t92 -36t38 -84t-38 -84t-92 -36t-94 37t-40 87z" />
<glyph unicode="/" horiz-adv-x="918" d="M76 -50l652 1526l88 34l22 -10l-646 -1518l-90 -42z" />
<glyph unicode="0" d="M60 654q0 177 50.5 319t157.5 230.5t256 88.5q151 0 255.5 -83t153.5 -224t49 -331q0 -140 -29.5 -261.5t-86.5 -214t-146.5 -145.5t-201.5 -53q-113 0 -200.5 49.5t-143.5 139.5t-85 212.5t-29 272.5zM278 646q0 -134 11 -238t37 -190t73.5 -132t114.5 -46q53 0 94 23 t68 68t45 100t27 131.5t12.5 149t3.5 164.5q0 100 -6 178.5t-22 151.5t-41.5 121t-67 76.5t-97.5 28.5q-76 0 -127.5 -46t-77.5 -132t-36.5 -183t-10.5 -225z" />
<glyph unicode="1" horiz-adv-x="1050" d="M226 1108l2 8l434 176l20 -24l-20 -188v-820l16 -176l184 -34v-50h-608v50l184 34l16 176v822l-56 30l-152 -40z" />
<glyph unicode="2" d="M72 54l454 490q65 95 98.5 197.5t33.5 180.5q0 105 -70 175.5t-168 70.5q-31 0 -60 -7t-53 -20.5t-43 -26.5t-37.5 -32.5t-28 -31t-23 -30t-15.5 -20.5l-48 44q14 30 47 69t83 80.5t122 70t146 28.5q147 0 253.5 -94t106.5 -232q0 -162 -146 -318q-17 -18 -50.5 -56.5 t-51.5 -57.5l-338 -378h506l108 200l66 -14l-70 -342h-810z" />
<glyph unicode="3" horiz-adv-x="1030" d="M102 110l90 118l124 -112q32 -32 76.5 -53t85.5 -21q101 0 165.5 82.5t64.5 243.5q0 132 -76 222t-182 90q-24 0 -110 -18l-14 32l2 12q46 9 88 22.5t84.5 36.5t73.5 51.5t50.5 68.5t19.5 87q0 90 -57.5 151t-150.5 61q-113 0 -238 -110l-16 32q63 78 157 132t201 54 q40 0 87.5 -14.5t94 -42.5t77.5 -78t31 -111q0 -40 -16.5 -79t-40.5 -67.5t-56 -54.5t-56 -40.5t-47 -26.5l-32 -18h40q31 0 79.5 -21t100.5 -58.5t89 -102t37 -140.5q0 -104 -49.5 -192.5t-128.5 -145t-174.5 -88.5t-191.5 -32q-140 0 -252 56z" />
<glyph unicode="4" d="M44 390l710 850l44 34l36 -36v-776h120l28 -78l-10 -26h-138v-358h-198v358h-576zM178 462h458v558z" />
<glyph unicode="5" d="M104 110l104 110l110 -104q31 -33 74.5 -53.5t85.5 -20.5q100 0 165 82t65 244q0 122 -93 216t-225 94l-188 -28l-12 24l120 598h332l194 18l20 -18l-68 -158l-272 -14h-166l-70 -328l236 38q102 0 196.5 -51.5t152 -136t57.5 -174.5q0 -104 -48 -194t-125.5 -148.5 t-172.5 -92t-190 -33.5q-140 0 -252 56z" />
<glyph unicode="6" d="M88 450q0 152 61.5 289.5t166.5 242.5q99 99 226 172l330 156l32 -62l-324 -170q-180 -142 -250 -382l224 86q179 0 282.5 -109t103.5 -275q0 -110 -62 -207.5t-162.5 -154t-211.5 -56.5q-114 0 -211 68t-151 175.5t-54 226.5zM304 448q0 -69 12.5 -138.5t38 -132.5 t70 -102t101.5 -39q86 0 142 89t56 227q0 92 -23.5 166.5t-80.5 125t-140 50.5l-160 -64z" />
<glyph unicode="7" d="M70 952l88 318l620 2l176 6l8 -36l-64 -102l-582 -1172l-22 -4l-94 36l572 1118h-522l-130 -168z" />
<glyph unicode="8" d="M100 308q0 135 144 238l134 86v28q-234 156 -234 332q0 79 55 149.5t141.5 110.5t177.5 40q93 0 174 -32t133.5 -98t52.5 -152q0 -108 -98 -192l-136 -96v-26q43 -23 89 -59t92.5 -83.5t76.5 -106t30 -113.5q0 -103 -62.5 -185.5t-160 -125.5t-205.5 -43 q-113 0 -202.5 35t-145.5 110.5t-56 182.5zM310 312q0 -118 58 -196t150 -78q94 0 148 59.5t54 158.5q0 90 -65.5 182.5t-196.5 165.5h-24l-90 -124q-34 -68 -34 -168zM346 1036q0 -176 224 -286l20 6l80 134q16 54 16 108q0 89 -47.5 163.5t-128.5 74.5q-70 0 -117 -59 t-47 -141z" />
<glyph unicode="9" d="M88 874q0 110 62 207.5t162.5 154t211.5 56.5q114 0 211 -68t151 -175.5t54 -226.5q0 -152 -61.5 -289.5t-166.5 -242.5q-99 -99 -226 -172l-330 -156l-32 62l324 170q180 142 250 382l-224 -86q-179 0 -282.5 109t-103.5 275zM304 920q0 -92 23.5 -166.5t80.5 -125 t140 -50.5l160 64l16 182q0 69 -12.5 138.5t-38 132.5t-70 102t-101.5 39q-86 0 -142 -89t-56 -227z" />
<glyph unicode=":" horiz-adv-x="508" d="M122 96q0 48 40 82t94 34t92 -36t38 -84t-38 -84t-92 -36t-94 37t-40 87zM122 756q0 48 40 82t94 34t92 -36t38 -84t-38 -84t-92 -36t-94 37t-40 87z" />
<glyph unicode=";" horiz-adv-x="488" d="M86 -246l156 158v54q0 25 -14 46t-30 34t-30 38t-14 58l204 90l34 -128q16 -58 -6 -125t-78 -113l-182 -150zM132 736q0 48 40 82t94 34q52 0 89 -34t37 -82q0 -50 -36.5 -87t-89.5 -37q-54 0 -94 38t-40 86z" />
<glyph unicode="&#x3c;" horiz-adv-x="1088" d="M80 432l34 42l814 374l30 -92l-2 -12l-724 -326l730 -334l4 -6l-30 -96l-820 380z" />
<glyph unicode="=" horiz-adv-x="1236" d="M174 264l28 94h866l-24 -94h-870zM174 552l28 94h866l-24 -94h-870z" />
<glyph unicode="&#x3e;" horiz-adv-x="1088" d="M122 80l4 4l730 334l-722 326l-4 12l32 90l814 -372l32 -42l-34 -70l-822 -380z" />
<glyph unicode="?" horiz-adv-x="828" d="M132 1184l22 72l146 22q39 0 91.5 -12.5t113 -40.5t110.5 -67t83.5 -99.5t33.5 -130.5q0 -65 -24 -112t-94 -104l-306 -208l-16 -114l-54 -6l-28 184q0 36 11.5 68.5t27 54t43 44.5t46.5 35t50 30q50 29 81 49t66.5 49t53 59.5t17.5 62.5q0 59 -43 98.5t-109 39.5 l-236 -118zM152 112q0 49 39 82.5t91 33.5q54 0 92 -33.5t38 -82.5q0 -51 -37 -87.5t-89 -36.5t-93 36.5t-41 87.5z" />
<glyph unicode="@" horiz-adv-x="1662" d="M114 336q0 116 37.5 233t111.5 220t173 183t232 127t280 47q154 0 276 -48t197 -130t114 -186t39 -222q0 -148 -62.5 -277.5t-168 -206t-227.5 -76.5h-162l-12 228l-20 8l-168 -182l-136 -54q-91 0 -145.5 63.5t-54.5 186.5q0 104 58 216.5t148 200t207 144.5t227 57 l190 -22l-128 -612l14 -154h70q50 0 103.5 38.5t97 101.5t71.5 151t28 179q0 84 -20 161t-64 146t-107.5 119.5t-157 80t-207.5 29.5q-133 0 -254 -43.5t-211.5 -118t-158 -169.5t-102 -202.5t-34.5 -212.5q0 -169 85.5 -302t216.5 -204l144 -26v-50l-146 20 q-157 54 -265.5 206t-108.5 352zM612 300q0 -77 29 -120.5t83 -43.5l210 192l144 438l-112 22q-91 0 -174 -73.5t-131.5 -186.5t-48.5 -228z" />
<glyph unicode="A" horiz-adv-x="1392" d="M-22 42l136 48l92 168l438 994l74 60l20 -4l496 -1190l158 -74v-44h-528v42l122 30l18 38l-140 364l-16 12l-444 -4l-18 -12l-88 -216l-42 -150l156 -60l2 -44h-434zM426 580l12 -18h370l12 20l-190 456z" />
<glyph unicode="B" horiz-adv-x="1296" d="M94 0v50l146 32l14 176v798l-14 176l-146 32v48h588q76 0 148.5 -17t135.5 -50.5t101.5 -91t38.5 -131.5q0 -91 -62.5 -165t-173.5 -115v-30q141 -12 239.5 -115t98.5 -241q0 -356 -626 -356h-488zM480 226l16 -146l108 -22q76 0 134.5 14t108 46.5t75.5 93t26 146.5 q0 66 -16.5 120t-54 99.5t-106 71t-163.5 25.5h-128v-448zM480 732h170q102 0 159 68.5t57 183.5q0 127 -72 198.5t-192 71.5l-114 -22l-8 -146v-354z" />
<glyph unicode="C" horiz-adv-x="1442" d="M98 644q0 140 57 267.5t153.5 220.5t232 147.5t285.5 54.5q239 0 444 -38l60 -282l-62 -18q-8 31 -21.5 60.5t-46 71.5t-76.5 72t-118.5 52t-165.5 22q-114 0 -207 -49.5t-151 -132t-89 -184.5t-31 -212q0 -97 19.5 -189.5t61 -176t101 -146t146.5 -99.5t190 -37 q165 0 282 92l142 234l56 -14l-80 -282q-217 -90 -460 -90q-150 0 -284.5 51.5t-230 139t-151.5 209t-56 256.5z" />
<glyph unicode="D" horiz-adv-x="1576" d="M94 0v42l146 32l16 176v806l-16 176l-146 32v48h594q357 0 571.5 -176.5t214.5 -465.5q0 -312 -208.5 -491t-599.5 -179h-572zM482 250l16 -160l162 -40q258 0 405 147t147 441q0 156 -46 276t-126.5 193t-184.5 110t-227 37l-136 -26l-10 -142v-836z" />
<glyph unicode="E" horiz-adv-x="1268" d="M94 0v42l146 32l14 176v806l-14 176l-146 34v46h958l58 -260l-30 -8l-28 12l-146 194h-282l-136 -24l-8 -140v-370l144 -20l238 12l48 134l22 12l26 -10v-364l-24 -6l-24 12l-48 132l-238 14l-144 -24v-358l12 -160l132 -30h262l126 58l124 196l28 10l46 -10l-114 -314 h-1002z" />
<glyph unicode="F" horiz-adv-x="1150" d="M94 0v40l146 34l14 176v806l-14 176l-146 32v48h958l58 -260l-30 -8l-28 12l-138 194h-292l-134 -24l-8 -140v-374l142 -20l204 14l82 130l24 14l26 -10v-364l-24 -6l-26 14l-72 130l-214 14l-142 -24v-354l12 -176l158 -34v-40h-556z" />
<glyph unicode="G" horiz-adv-x="1544" d="M96 644q0 138 57 265t154 220.5t232.5 149t286.5 55.5q240 0 442 -38l58 -286l-40 -24l-22 6l-126 198q-108 84 -296 84q-118 0 -212 -50.5t-152 -134t-88 -186t-30 -213.5q0 -97 20 -189t62 -174.5t101.5 -144t144.5 -98t186 -36.5q126 0 224 46l18 34v220l-10 134 l-150 42l-2 42h534v-42l-130 -30l-18 -124v-180l14 -64l-54 -40q-73 -31 -124.5 -48.5t-148 -33.5t-207.5 -16q-202 0 -368.5 87t-261 237.5t-94.5 331.5z" />
<glyph unicode="H" horiz-adv-x="1574" d="M94 0v42l146 36l14 176v798l-14 176l-146 36v48h542v-48l-142 -36l-12 -176v-318l4 -14l306 -6l296 6l8 16v316l-16 176l-142 36v48h542v-48l-146 -36l-12 -176v-798l12 -176l146 -36v-42h-542v42l142 36l16 176v376l-8 16l-296 6l-306 -10l-4 -14v-374l12 -176l142 -36 v-42h-542z" />
<glyph unicode="I" horiz-adv-x="736" d="M94 0v40l146 34l14 176v806l-14 176l-146 34v46h548v-46l-146 -34l-12 -176v-806l12 -176l146 -34v-40h-548z" />
<glyph unicode="J" horiz-adv-x="684" d="M-232 -400l90 168l202 -114q87 0 125.5 143.5t38.5 454.5v804l-14 176l-138 34v46h530v-46l-144 -34l-14 -176v-796q0 -323 -149 -508.5t-401 -185.5z" />
<glyph unicode="K" horiz-adv-x="1472" d="M94 2v42l146 36l14 174v798l-14 174l-146 36v50h548v-50l-146 -36l-12 -174v-384l248 206l268 268l32 74l-126 46l-2 50h504l-4 -48l-230 -80l-448 -412v-40l462 -546l150 -106l148 -36v-42h-200q-115 0 -198 35t-164 133l-382 456l-28 8l-30 -12v-368l12 -174l146 -36 v-42h-548z" />
<glyph unicode="L" horiz-adv-x="1214" d="M94 0v42l146 32l14 176v806l-14 176l-146 34v46h536v-46l-138 -34l-12 -176v-806l12 -160l154 -30h132l222 44l136 210l28 10l46 -10l-114 -314h-1002z" />
<glyph unicode="M" horiz-adv-x="1952" d="M52 0v38l180 56l30 144l32 914l-8 70l-150 42v48h420l426 -946l20 -8l18 16l290 710l82 228h438l6 -50l-132 -26l-22 -88l26 -868l26 -204l148 -34l4 -42h-560l-2 42l142 26l22 86l-28 908l-10 58l-34 -8l-422 -1030l-80 -86l-8 2l-522 1156l-30 -958l8 -106l182 -48 l6 -42h-498z" />
<glyph unicode="N" horiz-adv-x="1650" d="M80 0v40l174 46l24 178v798l-32 166l-158 40l-2 44h424l782 -936l2 126v518l-24 206l-166 42l-4 44h494l-2 -44l-178 -44l-22 -200v-756l8 -272l-36 -6l-62 44l-924 1082v-854l22 -174l168 -46l2 -42h-490z" />
<glyph unicode="O" horiz-adv-x="1610" d="M96 656q0 137 58.5 263t155.5 216.5t227 144.5t267 54q138 0 268 -52.5t228 -141.5t157 -216t59 -268q0 -137 -59.5 -263t-157 -216t-228 -143.5t-267.5 -53.5q-92 0 -181.5 23.5t-167.5 66t-144.5 104.5t-114 136t-74 163t-26.5 183zM360 712q0 -97 18 -191t57 -181.5 t94.5 -153.5t137.5 -106t179 -40q86 0 156 33.5t116 88t76.5 128.5t44 151t13.5 159q0 97 -18 191t-57.5 182t-95.5 154.5t-138.5 106.5t-180.5 40q-86 0 -155.5 -33.5t-114.5 -88.5t-75.5 -129t-43.5 -151.5t-13 -159.5z" />
<glyph unicode="P" horiz-adv-x="1204" d="M94 0v40l146 34l16 176v806l-16 176l-146 32v48l592 -2q116 0 219.5 -38.5t173 -118.5t69.5 -185q0 -120 -59.5 -211.5t-158.5 -139t-220 -47.5l-114 30l-22 40l4 6l76 -8q109 0 180.5 80t71.5 212q0 141 -80.5 232.5t-223.5 91.5l-114 -24l-8 -144v-836l12 -176l140 -34 v-40h-538z" />
<glyph unicode="Q" horiz-adv-x="1612" d="M96 656q0 137 58.5 263t155.5 216.5t227.5 144.5t268.5 54t267.5 -52.5t227 -141.5t156.5 -216t59 -268q0 -220 -144 -396t-360 -246l-24 -8l330 -160l120 -16l210 36l6 -46l-362 -100l-134 24l-368 198l-150 58q-233 55 -388.5 236.5t-155.5 419.5zM360 722 q0 -95 18 -187.5t57 -178.5t94.5 -151.5t137.5 -105t179 -39.5q108 0 189.5 49t127.5 131t68.5 175.5t22.5 194.5q0 95 -18 187.5t-57 179t-95 152.5t-139 105.5t-181 39.5q-107 0 -188 -49.5t-126.5 -131.5t-67.5 -175.5t-22 -195.5z" />
<glyph unicode="R" horiz-adv-x="1406" d="M94 0v42l146 32l14 174v808l-14 176l-146 32v48h596q118 0 216 -39t160 -119.5t62 -189.5q0 -103 -92.5 -194t-193.5 -120l-14 -4l412 -534l232 -70l-2 -42h-276q-64 0 -137 46.5t-131 125.5l-306 410l-56 28h-82v-362l12 -174l142 -32v-42h-542zM482 660h114 q122 0 209 76.5t87 193.5q0 53 -9 99t-30 88t-53.5 72t-82 47.5t-111.5 17.5l-116 -24l-8 -144v-426z" />
<glyph unicode="S" horiz-adv-x="1082" d="M106 344l48 20l20 -12l122 -218q105 -94 236 -94q99 0 168.5 59.5t69.5 170.5q0 30 -8.5 58t-20.5 50t-34 45.5t-40 39t-48 36t-48.5 31.5t-51 30t-47.5 28q-140 86 -186 122q-142 112 -153 249q-1 12 -1 25q0 98 63.5 180.5t160.5 127t202 44.5q42 0 85 -5t71.5 -11 t84.5 -18.5t91 -19.5l22 -294l-14 -8l-36 12l-100 200q-74 84 -208 84q-100 0 -155 -56.5t-55 -151.5q0 -22 5.5 -44t12.5 -40t22.5 -38.5t26 -34t34.5 -33t35.5 -29.5t40.5 -29.5t39.5 -26.5t42.5 -26.5t39 -24.5q17 -11 55 -34t60 -36.5t56.5 -38t55.5 -44t46.5 -48.5 t39.5 -57.5t23.5 -64.5t9.5 -75q0 -104 -65.5 -189t-167 -130t-213.5 -45q-27 0 -54.5 1.5t-60 5.5t-55 7t-60.5 10t-53.5 9.5t-57 10.5t-49.5 10z" />
<glyph unicode="T" horiz-adv-x="1340" d="M22 1008l58 340h26l176 -36h774l180 36h24l56 -340l-40 -12l-20 10l-92 186l-134 60h-246v-1002l12 -176l142 -34v-40h-536v40l144 34l16 176v1002h-254l-136 -62l-90 -184l-18 -10z" />
<glyph unicode="U" horiz-adv-x="1558" d="M60 1266v46h544v-46l-144 -34l-14 -176v-440q0 -119 18.5 -204.5t63.5 -155.5q93 -158 318 -158q80 0 148 25.5t124 79.5t88 149t32 222v450l-26 200l-156 44l-2 44h482v-44l-172 -44l-26 -198v-474q0 -145 -43.5 -255t-121 -176.5t-179 -99.5t-224.5 -33 q-125 0 -232.5 38t-179.5 110q-138 141 -138 406v514l-12 176z" />
<glyph unicode="V" horiz-adv-x="1416" d="M-6 1264v48h548l-2 -48l-134 -60l48 -152l326 -780l326 768l46 162l-160 62v48h452l-2 -46l-146 -44l-100 -188l-432 -986l-82 -66l-16 20l-438 1026l-92 182z" />
<glyph unicode="W" horiz-adv-x="1998" d="M-2 1264v48h540l-4 -48l-134 -60l46 -148l238 -704l312 896l62 60l18 -20l376 -976l232 730l36 160l-160 62v48h456l-2 -46l-146 -44l-86 -162l-334 -1002l-78 -76l-22 20l-368 948l-306 -890l-70 -78l-22 20l-368 1044l-80 166z" />
<glyph unicode="X" horiz-adv-x="1474" d="M-14 0l2 42l226 84l416 528l-308 436l-132 146l-132 30v46h576l-2 -48l-124 -54l24 -62l254 -360l304 384l12 36l-156 56l-2 48h488l-2 -50l-216 -90l-388 -442l432 -606l214 -82l2 -42h-596l2 42l124 60l-10 30l-314 458l-336 -448l-22 -42l176 -60l6 -40h-518z" />
<glyph unicode="Y" horiz-adv-x="1300" d="M-8 1264v48h560l-2 -48l-132 -60l24 -56l284 -472l286 490l12 48l-158 50l-2 48h454l-2 -50l-174 -62l-372 -596l-10 -56v-298l12 -176l142 -34v-40h-532v40l138 34l18 176v304l-18 50l-286 486l-110 126z" />
<glyph unicode="Z" horiz-adv-x="1356" d="M60 28l888 1216h-476l-178 -56l-130 -214l-22 -8l-46 10l70 336h1054l22 -30l-880 -1218h530l210 74l116 186l22 8l46 -12l-106 -320h-1082z" />
<glyph unicode="[" horiz-adv-x="622" d="M180 -210v1648l36 40l382 22l2 -8l-16 -34l-254 -50v-1588l254 -50l16 -34l-2 -8l-382 22z" />
<glyph unicode="\" horiz-adv-x="902" d="M76 1498l28 10l64 -30l652 -1516l-42 -14l-48 26z" />
<glyph unicode="]" horiz-adv-x="622" d="M22 -264l16 34l254 50v1588l-254 50l-16 34l2 8l384 -22l34 -40v-1648l-34 -40l-384 -22z" />
<glyph unicode="^" horiz-adv-x="858" d="M124 878l258 404l28 20l30 -20l256 -404l-24 -22l-262 268l-260 -268z" />
<glyph unicode="_" horiz-adv-x="1102" d="M40 -64l28 80h978l-22 -84l-8 -8h-968z" />
<glyph unicode="`" horiz-adv-x="650" d="M178 1320l84 42l66 -14q48 -51 116.5 -144t83.5 -122l-22 -22q-61 25 -194.5 122t-133.5 138z" />
<glyph unicode="a" horiz-adv-x="950" d="M72 210q0 53 34 95.5t74 54.5l384 136l14 62v54q0 87 -33 135.5t-107 76.5q-59 -10 -93.5 -28.5t-50 -33.5t-11.5 -53t9.5 -53.5t26.5 -67.5q0 -3 1 -4l-148 -58l-58 106l20 108q51 43 162.5 88.5t215.5 45.5q107 0 186.5 -79t79.5 -199v-406l50 -76l88 18l22 -44 l-178 -108q-149 48 -178 134q-117 -134 -248 -134q-110 0 -186 69.5t-76 160.5zM290 230q0 -62 52 -108t108 -46l128 84v290l-178 -68q-53 -20 -81.5 -61.5t-28.5 -90.5z" />
<glyph unicode="b" horiz-adv-x="1100" d="M4 1270l2 42l348 74l22 -24l-24 -184v-374l20 -32l236 102q90 -1 168.5 -36t131 -92t82.5 -129.5t30 -148.5q0 -141 -77.5 -253.5t-200.5 -171.5t-264 -59q-42 0 -119 19t-93 21l-108 -2l-32 40l26 194v870l-16 108zM352 190q0 -63 53.5 -105.5t124.5 -42.5 q74 0 135.5 53t94 132.5t32.5 162.5q0 174 -77 273t-213 99l-140 -64l-10 -26v-482z" />
<glyph unicode="c" horiz-adv-x="912" d="M78 394q0 122 80.5 235t201.5 179t240 66q130 0 202 -38l26 -68l-94 -98l-256 128q-79 0 -138.5 -96.5t-59.5 -217.5q0 -96 28 -170t75.5 -116t103.5 -63t119 -21l238 94l12 -18v-26l-204 -152q-68 -28 -148 -28q-176 0 -301 117.5t-125 292.5z" />
<glyph unicode="d" horiz-adv-x="1130" d="M80 404q0 83 37 159.5t95.5 131.5t129 96.5t139.5 62t125 20.5q20 0 43 -2.5t45.5 -6t25.5 -3.5l12 -4l10 66v202l-12 108l-126 36v42l346 74l18 -22l-22 -186v-912l18 -146l118 -28l2 -18l-12 -26l-316 -62l-14 34v52l-10 20l-276 -108q-150 2 -263 123.5t-113 296.5z M306 472q0 -160 72.5 -266t197.5 -106l166 64v522q0 38 -62.5 72t-139.5 34q-74 0 -129 -48.5t-80 -120t-25 -151.5z" />
<glyph unicode="e" horiz-adv-x="936" d="M80 398q0 116 39.5 209.5t103.5 150t139.5 86.5t153.5 30q77 0 136.5 -17.5t97 -46.5t61.5 -71.5t33.5 -87.5t9.5 -99l-24 -46h-552v-10q0 -81 20.5 -147t53 -109.5t76 -73t87 -42t87.5 -12.5l228 108l20 -62l-192 -144q-77 -30 -148 -30q-180 0 -305 116t-125 298z M286 560h338l24 54q0 29 -9 62t-26.5 66t-50 54.5t-74.5 21.5q-45 0 -82 -22.5t-58.5 -55t-36.5 -69t-20.5 -63t-4.5 -38.5v-10z" />
<glyph unicode="f" horiz-adv-x="686" d="M62 0v40l140 34l14 176v536h-146l-4 10l56 58h94v36q0 99 41 195.5t100.5 162.5t126 107t118.5 41q65 0 116 -22l46 -64l-90 -96l-74 42q-47 28 -102 28q-43 0 -67.5 -51.5t-24.5 -134.5q0 -202 2 -234l2 -10h250l4 -14l-32 -54h-220v-536l14 -176l134 -34v-40h-498z" />
<glyph unicode="g" horiz-adv-x="992" d="M50 -222l220 208q-78 23 -118 68.5t-42 103.5l180 174q-92 38 -142 106.5t-50 147.5q0 114 106.5 201t257.5 87q106 0 234 -80l234 60l34 -8v-110l-190 26l-12 -34q33 -46 46.5 -82t13.5 -88q0 -96 -107 -180t-253 -84q-55 0 -118 18l-70 -90q0 -33 39 -55.5t87 -22.5 q174 0 258 -2q128 -3 215 -69.5t87 -134.5t-36 -128l-378 -240q-77 -14 -138 -14q-148 0 -251.5 61t-106.5 161zM234 -140q0 -107 78 -167.5t204 -60.5l296 190q0 64 -75 112t-197 48l-198 -6zM294 594q0 -61 19 -116.5t62.5 -95.5t102.5 -40q57 0 93.5 36t48.5 82.5 t12 101.5q0 57 -17 110t-59.5 93.5t-103.5 40.5q-56 0 -93.5 -35.5t-51 -81t-13.5 -95.5z" />
<glyph unicode="h" horiz-adv-x="1066" d="M40 0v40l126 34l14 176v876l-12 108l-122 36l2 42l318 74l18 -24l-20 -184v-444l6 -24l164 126q70 38 118 38q62 0 106 -17t72 -48.5t44 -85.5t22 -119t6 -158v-196l12 -176l128 -34v-40h-448v40l112 34l12 176v200q0 62 -3.5 106t-14 88t-29.5 71.5t-51 44t-76 16.5 l-180 -142v-384l12 -176l116 -34v-40h-452z" />
<glyph unicode="i" horiz-adv-x="624" d="M68 754v40l356 92l24 -26l-16 -120v-490l12 -176l132 -34v-40h-506v40l138 34l16 176v324l-16 142zM184 1218q0 47 36.5 80.5t87.5 33.5t88.5 -34t37.5 -80t-37 -78t-89 -32q-51 0 -87.5 32t-36.5 78z" />
<glyph unicode="j" horiz-adv-x="556" d="M-58 -380q80 44 106 65q119 96 141 308q5 53 5 113v464l-14 144l-142 38l2 40l358 94l24 -26l-20 -122v-552q0 -191 -68 -323.5t-168 -208.5l-192 -84zM148 1218q0 46 37.5 80t88.5 34t88.5 -34t37.5 -80t-37.5 -80t-88.5 -34t-88.5 34t-37.5 80z" />
<glyph unicode="k" horiz-adv-x="1174" d="M44 0v42l138 34l16 178v872l-14 108l-134 36l2 42l350 74l20 -24l-20 -184l-2 -728l184 126l202 194l-128 40l4 44h438l-2 -42l-188 -52l-322 -256l350 -366q99 -92 228 -96l2 -34l-172 -18q-88 0 -159.5 29.5t-110.5 70.5l-278 298l-48 34v-168l16 -178l132 -34v-42 h-504z" />
<glyph unicode="l" horiz-adv-x="600" d="M44 0v40l138 34l16 176v876l-14 108l-134 36l2 42l352 74l22 -24l-22 -184v-928l14 -176l138 -34v-40h-512z" />
<glyph unicode="m" horiz-adv-x="1798" d="M68 744v40l354 92l24 -24l-18 -110l12 -22q189 154 308 154q109 0 163 -40t87 -136q91 80 183.5 128t158.5 48q86 0 141.5 -24.5t86 -80.5t41.5 -131t11 -192v-196l12 -176l138 -34v-40h-472v40l100 34l16 176v208q0 47 -2 79t-9 70.5t-22 63.5t-39 47.5t-61.5 33 t-88.5 10.5l-182 -130q3 -34 6 -94.5t4 -79.5v-208l14 -176l136 -34v-40h-470v40l104 34l14 176v202q0 61 -4 103.5t-17.5 85t-37.5 67.5t-65 40.5t-98 15.5l-168 -130v-384l14 -176l130 -34v-40h-502v40l138 34l16 176v308l-16 148z" />
<glyph unicode="n" horiz-adv-x="1198" d="M68 744v40l354 92l22 -24l-18 -112l12 -28q30 33 70 65.5t107.5 64.5t128.5 32q85 0 139 -24.5t83.5 -80.5t40.5 -131t11 -192v-196l14 -176l140 -34v-40h-492v40l122 34l14 176v200q0 74 -8 126.5t-28 94.5t-57 62.5t-91 20.5l-206 -120v-384l14 -176l128 -34v-40h-498 v40l138 34l16 176v314l-16 142z" />
<glyph unicode="o" horiz-adv-x="1102" d="M80 430q0 192 135.5 324t330.5 132q209 0 341.5 -125t132.5 -315q0 -192 -137.5 -326t-332.5 -134q-208 0 -339 126.5t-131 317.5zM308 470q0 -73 16 -146.5t47 -137.5t83 -104t116 -40q63 0 108 32.5t68.5 87.5t33.5 113.5t10 124.5q0 74 -16.5 148t-48 138.5t-83.5 105 t-116 40.5q-63 0 -108 -32.5t-67.5 -88t-32.5 -114.5t-10 -127z" />
<glyph unicode="p" horiz-adv-x="1128" d="M34 738v42l354 88l20 -20l-16 -76l16 -24l244 126q91 0 168.5 -37.5t126.5 -97t76 -131t27 -142.5q0 -82 -30.5 -158t-81.5 -134t-116 -101.5t-137 -66t-141 -22.5q-28 0 -53.5 3.5t-56.5 10.5l-32 8l-10 -38v-154l14 -176l132 -34v-40h-502v40l138 34l16 176v742 l-16 144zM394 190q-1 -71 54.5 -108.5t121.5 -37.5q101 0 175.5 100t74.5 250q0 166 -72.5 267t-199.5 101l-154 -78v-494z" />
<glyph unicode="q" horiz-adv-x="1092" d="M76 382q0 86 33.5 165t89 137.5t126 102t147 65.5t148.5 22q34 0 124 -24t126 -24l58 10l34 -40l-24 -184v-798l14 -176l138 -34v-38h-502v38l132 34l16 176v234l-22 38l-252 -102q-109 0 -199 59.5t-138.5 150.5t-48.5 188zM304 468q0 -103 30.5 -188t94 -138.5 t149.5 -53.5l158 68v520q0 47 -56 88.5t-130 41.5q-66 0 -115.5 -32t-77 -84t-40.5 -108.5t-13 -113.5z" />
<glyph unicode="r" horiz-adv-x="852" d="M68 744v40l350 92l20 -26l-16 -174l16 -8q42 81 111 143.5t149 62.5q40 0 74.5 -12t51.5 -30l16 -70l-92 -120l-82 50q-41 26 -86 26q-43 0 -81.5 -36t-57.5 -77.5t-19 -68.5v-286l14 -176l162 -34v-40h-528v40l138 34l16 176v314l-16 142z" />
<glyph unicode="s" horiz-adv-x="828" d="M96 616q0 81 55.5 141.5t134 88.5t164.5 28l226 -32l34 -214h-48l-80 130q-57 54 -140 54q-70 0 -111 -31.5t-41 -90.5q0 -18 6 -34t21.5 -32t26.5 -26t38 -25.5t38 -21.5t45 -22.5t41 -20.5q107 -55 145 -83q91 -71 91 -173q0 -127 -107.5 -199.5t-266.5 -72.5l-246 38 l-24 218h48l94 -144q72 -50 154 -50q68 0 109 35.5t41 96.5q0 35 -14 63t-44 50t-55.5 36.5t-71 35.5t-67.5 33q-49 27 -76 43.5t-59 44.5t-46.5 61t-14.5 75z" />
<glyph unicode="t" horiz-adv-x="700" d="M28 834l162 106l130 208h66v-294h268l8 -14l-34 -54h-242v-530q0 -83 33.5 -121.5t106.5 -38.5l122 46l10 -20l-12 -28l-224 -108q-48 0 -89 12t-76.5 39t-56 77t-20.5 120v552h-148z" />
<glyph unicode="u" horiz-adv-x="1140" d="M30 772v42l346 72l24 -30l-18 -126v-388q0 -109 19.5 -164t59.5 -74.5t119 -19.5l174 104v398l-18 146l-126 40l4 42l340 72l24 -30l-20 -124v-490l18 -120l116 -30l4 -16l-12 -28l-314 -62l-16 30v64l-12 22q-58 -49 -144 -81.5t-158 -32.5q-147 0 -203.5 74t-56.5 222 v302l-20 146z" />
<glyph unicode="v" horiz-adv-x="1060" d="M2 804v50h478l-4 -50l-116 -44l2 -28l238 -492l188 426l20 78l-140 60v50h394l-4 -50l-156 -66l-326 -690l-68 -68l-10 8l-368 758z" />
<glyph unicode="w" horiz-adv-x="1616" d="M2 804v50h480l-2 -50l-120 -52l10 -38l226 -462l172 400l-40 94l-112 58l-2 50h468v-50l-118 -60l6 -34l200 -446l178 408l20 72l-142 60l-2 50h392l-4 -50l-146 -66l-318 -692l-70 -66l-14 8l-248 586l-234 -526l-72 -68l-12 8l-368 758z" />
<glyph unicode="x" horiz-adv-x="1098" d="M22 2l2 40l192 72l246 290l-270 350l-146 54v46h478l-2 -46l-98 -42l22 -36l146 -192l172 220l-140 50v46h418l-2 -44l-170 -56l-236 -268l288 -376l154 -68v-40h-488l2 40l98 44l-16 30l-168 232l-166 -210l-18 -46l136 -50v-40h-434z" />
<glyph unicode="y" horiz-adv-x="1058" d="M4 808v46h476l-6 -46l-114 -44l236 -524l186 426l22 82l-140 60v46h394l-2 -46l-156 -66l-338 -716q-50 -109 -87 -176t-89 -136l-140 -126l-240 60l114 186l152 -120q51 28 107 110.5t101 201.5l-348 724z" />
<glyph unicode="z" horiz-adv-x="952" d="M68 30l4 18l522 738l-268 4q-34 1 -62.5 -11t-46 -26.5t-34 -41t-22.5 -40t-15 -37.5q-3 -7 -4 -10l-44 -14l-10 4l36 240h728l6 -24q-40 -52 -287 -400.5t-247 -357.5v-10h268q48 0 91.5 19t73 49.5t49.5 63t30 64.5l14 6l40 -14l-88 -248h-712z" />
<glyph unicode="{" horiz-adv-x="570" d="M56 596l4 14q78 22 131 72t53 126q0 20 -4.5 42.5t-10 37.5t-15.5 40t-14 38q-38 84 -38 142q0 67 33 132t82 110.5t99 76.5t90 41l16 -28q-61 -32 -114.5 -98t-53.5 -144q0 -38 7 -70.5t14.5 -51t22.5 -48.5q40 -84 40 -164q0 -51 -23 -99.5t-57 -81t-67.5 -53 t-58.5 -24.5l-66 -10l66 -10q25 -4 58.5 -24.5t67.5 -53t57 -81t23 -99.5q0 -35 -7.5 -69.5t-13 -48t-19.5 -46.5q-33 -72 -40 -114q-4 -26 -4 -56q0 -41 17.5 -81.5t44.5 -71.5t54 -53.5t52 -35.5l-16 -28q-41 10 -91 41.5t-98.5 77t-81.5 110.5t-33 131q0 64 42 156 q40 92 40 144q0 76 -53.5 125.5t-130.5 72.5z" />
<glyph unicode="|" horiz-adv-x="448" d="M178 -228v1740l6 8l76 12l8 -8l2 -1730l-88 -28z" />
<glyph unicode="}" horiz-adv-x="568" d="M92 -248q61 32 114.5 98t53.5 144q0 37 -6.5 69.5t-14 51t-21.5 47.5q-42 88 -42 166q0 98 74.5 173t135.5 85l66 10l-68 10q-61 10 -134.5 85t-73.5 173q0 40 7.5 75t14.5 52t22 49q14 31 20 46.5t13 46.5t7 65q0 78 -54.5 144.5t-113.5 97.5l16 28q40 -10 90 -41.5 t99 -77t82 -110.5t33 -131q0 -51 -38 -148q-1 -2 -6 -14t-6 -15t-5.5 -14t-6 -15.5t-5 -14.5t-4.5 -15.5t-3.5 -15t-3 -16.5t-1.5 -15.5t-1 -16.5q0 -76 53 -125.5t129 -72.5l2 -14l-2 -14q-77 -22 -129.5 -72t-52.5 -126q0 -54 40 -146q38 -91 38 -154q0 -67 -33 -132 t-81.5 -111t-98.5 -76.5t-89 -40.5z" />
<glyph unicode="~" horiz-adv-x="1228" d="M124 546q3 52 92 108t174 56q108 0 264 -60q50 -19 80.5 -29t83 -20.5t100.5 -10.5q97 0 192 86l8 -12q-3 -51 -88.5 -108.5t-175.5 -57.5q-21 0 -41.5 1.5t-43 6t-36.5 7.5t-40 11.5t-34 11t-37.5 13t-33.5 11.5q-52 19 -83 28.5t-82.5 19.5t-98.5 10q-99 0 -192 -84z " />
<glyph unicode="&#xa1;" horiz-adv-x="462" d="M122 758q0 50 40 87t94 37t92 -36t38 -84t-39 -84t-93 -36t-93 34t-39 82zM146 -290l80 762h58l84 -760q0 -48 -30.5 -82t-75.5 -34q-51 0 -83.5 32t-32.5 82z" />
<glyph unicode="&#xa2;" horiz-adv-x="1020" d="M108 394q0 115 69.5 221t183.5 174.5t243 82.5l14 68l48 -8l-8 -56h12q108 0 184 -38l26 -68l-94 -98l-150 96l-112 -622q66 -22 134 -22l238 94l12 -18l-8 -32l-214 -152q-66 -22 -136 -22l-50 4l-14 -70l-48 12l10 64q-156 35 -248 140t-92 250zM310 484 q0 -221 154 -310l16 -8l112 622l-70 12q-88 0 -150 -94.5t-62 -221.5z" />
<glyph unicode="&#xa3;" horiz-adv-x="1044" d="M110 32l200 290l-24 300h-156l36 58h106q-16 80 -16 104q0 97 40 187t102 153t139.5 100.5t152.5 37.5q51 0 81.5 -9.5t68.5 -32.5l16 -52l-84 -94l-78 60q-52 46 -120 46q-140 0 -140 -262q0 -50 7.5 -89.5t36.5 -148.5h348l-16 -58h-318q8 -48 8 -66q0 -89 -92 -214 l-136 -162l174 52q31 0 66 -14t64 -31t77 -31t101 -14q107 0 184 122l32 -24q-11 -29 -38 -67.5t-67 -80t-95.5 -70t-111.5 -28.5q-54 0 -106.5 18t-88.5 40t-85.5 40t-97.5 18l-146 -106z" />
<glyph unicode="&#xa4;" horiz-adv-x="1252" d="M182 308l116 100l-4 8q-64 93 -64 198q0 124 82 226l6 6l-114 112l82 68l112 -110l8 6q98 60 218 60q134 0 240 -80l6 -6l132 110l74 -74l-130 -110l4 -8q62 -95 62 -200q0 -115 -70 -210l-6 -8l118 -114l-82 -68l-112 110l-8 -6q-96 -68 -228 -68q-137 0 -244 78l-6 6 l-114 -100zM392 638q0 -139 74 -237.5t176 -98.5q97 0 154.5 83.5t57.5 202.5q0 141 -72 241.5t-176 100.5q-97 0 -155.5 -86t-58.5 -206z" />
<glyph unicode="&#xa5;" horiz-adv-x="1498" d="M78 1222v50h568l-2 -50l-134 -60l22 -54l294 -472l294 488l12 50l-166 50l-2 48h460l-2 -50l-174 -62l-378 -600l-14 -42h212l-18 -60h-190v-100h208l-18 -60h-194v-38l14 -186l148 -34v-40h-550v40l146 34l14 186v38h-208l32 60h176v100h-208l32 60h178l-12 38l-300 494 l-108 126z" />
<glyph unicode="&#xa6;" horiz-adv-x="462" d="M186 -236v736q0 4 2 4q36 10 84 10q6 0 6 -2v-726q-9 -6 -47 -14t-45 -8zM186 780v736q0 4 2 4q36 10 84 10q6 0 6 -2v-726q-9 -6 -47 -14t-45 -8z" />
<glyph unicode="&#xa7;" horiz-adv-x="998" d="M92 752q0 75 48.5 163t104 148.5t113.5 108.5l14 14q50 50 134 80t172 30q48 0 100 -20l56 -42l-134 -118l-62 76q-21 24 -84 24q-26 0 -55.5 -6.5t-59 -20t-48.5 -37.5t-19 -54q0 -35 26 -79.5t76 -95t87 -83.5t93 -80q52 -45 91 -83t78.5 -87.5t61 -102t21.5 -103.5 q0 -98 -53.5 -198.5t-136.5 -175.5t-188.5 -122.5t-203.5 -47.5q-65 0 -148 32l66 158l120 -90q26 -20 80 -20q39 0 79 11t72.5 38.5t32.5 66.5q0 25 -12 54.5t-40 64t-48 58t-64 63t-57.5 51.5t-56.5 49q-52 44 -87 77.5t-79 85t-67 105.5t-23 108zM206 872q0 -60 22 -118 t62 -109.5t79 -90.5t91 -82q12 -10 47 -38t52 -42.5t47 -42.5t46 -48.5t34 -47.5t26 -54t8 -55l-4 -66l20 30q29 41 42.5 74.5t13.5 79.5q0 61 -21.5 120t-61.5 110.5t-78.5 90t-90.5 81.5q-12 10 -47 38t-52 42.5t-47 42.5t-46 48.5t-34 47.5t-26 54t-8 55q0 18 2 24l12 52 l-32 -44q-56 -75 -56 -152z" />
<glyph unicode="&#xa8;" horiz-adv-x="818" d="M74 1032q0 43 35.5 73.5t82.5 30.5q48 0 84 -31.5t36 -74.5t-36 -74.5t-84 -31.5q-47 0 -82.5 32.5t-35.5 75.5zM508 1032q0 43 35 73.5t83 30.5t84 -31.5t36 -74.5t-37 -74.5t-85 -31.5t-82 32t-34 76z" />
<glyph unicode="&#xa9;" horiz-adv-x="1444" d="M132 652q0 146 78.5 269t214 195t295.5 72q120 0 229.5 -42.5t189 -114t126.5 -171t47 -208.5q0 -145 -79.5 -268.5t-216 -194.5t-296.5 -71q-120 0 -229 42t-187.5 113.5t-125 170.5t-46.5 208zM196 652q0 -199 153.5 -338.5t372.5 -139.5q144 0 265.5 63.5t192 173.5 t70.5 241t-70.5 241.5t-192 174.5t-265.5 64t-265 -64t-191 -174.5t-70 -241.5zM418 640q0 121 91 204.5t219 83.5q86 0 210 -32l28 -110l-38 -10q-37 112 -184 112q-94 0 -151 -70t-57 -162q0 -110 65 -181t159 -71q32 0 57 5.5t39.5 11.5t29 20.5t20 23t17.5 30t17 29.5 l34 -4l-36 -108q-128 -44 -214 -44q-134 0 -220 75.5t-86 196.5z" />
<glyph unicode="&#xaa;" horiz-adv-x="806" d="M110 660q0 35 23 63t49 37l286 96l12 32v40q0 56 -28.5 95t-83.5 39q-48 0 -81 -40t-23 -86l-76 -42l-56 68l12 36q39 32 121.5 68t160.5 36q79 0 136.5 -54t57.5 -134v-268l48 -56l44 16l12 -20l-6 -16l-144 -60l-82 82h-10l-14 -8q-23 -17 -83.5 -47.5t-92.5 -30.5 q-75 0 -128.5 47t-53.5 107zM260 672q0 -45 33 -73.5t77 -28.5q34 0 72 22t38 40v192l-142 -50q-78 -27 -78 -102z" />
<glyph unicode="&#xab;" horiz-adv-x="1078" d="M72 470v52l454 312l34 -40l-306 -298l306 -298l-34 -42zM476 470v52l454 312l36 -40l-308 -298l308 -298l-36 -42z" />
<glyph unicode="&#xac;" horiz-adv-x="1294" d="M112 744q0 6 8 43t14 43h994v-486q-60 -20 -106 -20q-8 0 -16 8v404h-892q-2 0 -2 8z" />
<glyph unicode="&#xad;" horiz-adv-x="698" d="M80 414q0 86 18 104l532 24q2 -2 2 -8q0 -77 -22 -110l-526 -22l-2 2t-2 10z" />
<glyph unicode="&#xae;" horiz-adv-x="1440" d="M130 768q0 146 78.5 269t214 195t295.5 72q120 0 229.5 -42.5t189 -114t126.5 -171t47 -208.5t-47 -208.5t-126.5 -171t-189 -114t-229.5 -42.5q-160 0 -295.5 72t-214 195t-78.5 269zM194 768q0 -131 70 -241.5t191 -174.5t265 -64t265.5 64t192 174.5t70.5 241.5 t-70.5 241t-192 173.5t-265.5 63.5q-219 0 -372.5 -139.5t-153.5 -338.5zM480 512v20l62 16l4 66v322l-4 66l-62 14v22l118 -2q17 0 61.5 1t72.5 1q77 0 133.5 -37.5t56.5 -100.5q0 -39 -38.5 -75t-95.5 -53l156 -186l112 -62v-12h-112l-94 52l-144 184l-28 14h-38v-148 l8 -66l58 -16v-20h-226zM640 780h52q57 0 94.5 28.5t37.5 79.5q0 59 -29.5 96.5t-92.5 37.5l-58 -10l-4 -66v-166z" />
<glyph unicode="&#xaf;" horiz-adv-x="1048" d="M308 1116q0 10 5 36.5t11 29.5h464v-2q0 -30 -12 -66q-4 -8 -8 -8h-458q-2 0 -2 10z" />
<glyph unicode="&#xb0;" horiz-adv-x="624" d="M92 1072q0 82 66 141t156 59q91 0 154.5 -58.5t63.5 -141.5t-63.5 -141.5t-154.5 -58.5q-90 0 -156 59t-66 141zM162 1072q0 -57 44.5 -96.5t107.5 -39.5t105.5 39.5t42.5 96.5t-42.5 97.5t-105.5 40.5t-107.5 -40.5t-44.5 -97.5z" />
<glyph unicode="&#xb1;" horiz-adv-x="1288" d="M124 40l22 80h1004q1 0 3.5 -2t4.5 -5.5t2 -8.5l-28 -78h-1006q-2 4 -2 14zM124 636l22 80h442v402l82 18l22 -4v-416h458q1 0 3.5 -2t4.5 -5.5t2 -8.5l-28 -78h-440v-404l-88 -20q-4 0 -10 3t-6 5v416h-462q-2 4 -2 14z" />
<glyph unicode="&#xb2;" horiz-adv-x="780" d="M100 534l280 288q104 125 104 234q0 65 -42.5 105.5t-111.5 40.5q-43 0 -81.5 -19.5t-54.5 -35.5t-36 -41l-22 20q34 56 105.5 105t150.5 49q113 0 179.5 -54t66.5 -148q0 -58 -35.5 -113.5t-100.5 -116.5l-262 -224h288l124 112h28l-78 -218h-492z" />
<glyph unicode="&#xb3;" horiz-adv-x="720" d="M94 578l70 80l62 -76q34 -42 102 -42q72 0 114 47t42 135q0 75 -50 129.5t-120 54.5q-36 0 -72 -8l-8 16l4 12q50 9 92 27t75 55t33 86q0 50 -38 85t-94 35q-75 0 -148 -66l-14 18q35 43 98.5 77.5t133.5 34.5q72 0 130 -39t58 -111q0 -65 -42 -102t-92 -52l-68 -20h70 q20 0 51.5 -11.5t65 -33.5t57.5 -60.5t24 -84.5q0 -80 -53.5 -141t-134 -90t-172.5 -29q-48 0 -93.5 9.5t-62.5 22.5z" />
<glyph unicode="&#xb4;" horiz-adv-x="798" d="M616 1080l200 268l66 14l78 -44l-324 -256z" />
<glyph unicode="&#xb5;" horiz-adv-x="1162" d="M150 -360l48 780l-22 258l4 158l44 36l132 -72l-38 -244l-28 -112q3 -50 12 -93.5t25.5 -86.5t46 -68.5t68.5 -25.5q105 0 188 85t106 189q-8 64 -8 184l-2 208l52 36l134 -72l-54 -270l-36 -140q0 -110 41 -170t103 -60q75 0 132 74l20 -22v-26q-25 -71 -76 -127.5 t-104 -56.5q-43 0 -78 48t-52.5 103.5t-25.5 112.5l-6 40l-14 -38q-43 -115 -119.5 -194.5t-168.5 -79.5q-62 0 -115 82.5t-63 163.5l-22 -2l4 -125q3 -125 14.5 -270t31.5 -249l-62 -36z" />
<glyph unicode="&#xb6;" horiz-adv-x="1110" d="M84 928q0 87 36 157t94.5 112t126 64.5t135.5 22.5l224 -8l254 10v-50l-116 -40l-6 -134l-2 -840l10 -138l152 -46l2 -38h-622l4 38l144 44l10 140v352q-201 0 -323.5 100.5t-122.5 253.5zM606 224l10 -148l64 -14l64 12l12 144v984l-150 -2v-976z" />
<glyph unicode="&#xb7;" horiz-adv-x="516" d="M124 528q0 49 40 85.5t94 36.5t94 -36.5t40 -85.5q0 -50 -38.5 -87t-93.5 -37t-95.5 37t-40.5 87z" />
<glyph unicode="&#xb8;" horiz-adv-x="1042" d="M894 -230l92 -24q106 0 106 62q0 32 -21 54t-53 22l-54 -12l-14 16l58 96h32l-32 -46l70 2q38 1 66 -26t28 -62q0 -66 -52.5 -108t-135.5 -42l-90 26v42z" />
<glyph unicode="&#xb9;" horiz-adv-x="640" d="M94 1134l2 6l326 140l24 -32l-24 -164v-398l22 -110l108 -28v-32h-416v32l112 28l20 108v344q0 110 -56 110l-102 -30z" />
<glyph unicode="&#xba;" horiz-adv-x="874" d="M92 800q0 122 100 209t246 87q149 0 246.5 -83t97.5 -205q0 -123 -100 -211.5t-244 -88.5q-149 0 -247.5 84.5t-98.5 207.5zM260 824q0 -68 18 -128.5t64 -106t114 -45.5q46 0 79 22t49.5 58.5t24 75t7.5 80.5q0 49 -11.5 97t-33.5 90.5t-61.5 68.5t-89.5 26 q-39 0 -68 -15.5t-46 -39t-28 -56t-14.5 -63t-3.5 -64.5z" />
<glyph unicode="&#xbb;" horiz-adv-x="980" d="M116 198l308 298l-308 298l36 40l454 -312v-52l-454 -314zM522 198l306 298l-306 298l34 40l454 -312v-52l-454 -314z" />
<glyph unicode="&#xbc;" horiz-adv-x="1580" d="M92 1124l304 144l24 -28l-24 -170v-388l24 -112l104 -26v-30l-192 6l-204 -6v30l108 28l18 108v354l-44 90l-102 -30zM434 -24l758 1316l64 24l14 -8l-754 -1308l-66 -34zM890 222l460 532l26 16l26 -22v-484h66l12 -66h-76v-198l-74 -6l-68 12v192h-356zM992 270h270 v318z" />
<glyph unicode="&#xbd;" horiz-adv-x="1648" d="M94 1124l304 144l22 -26l-22 -172v-388l20 -112l106 -26l2 -30l-196 6l-200 -6v30l102 28l24 106v356l-44 90l-102 -30zM406 -24l760 1316l64 24l12 -8l-752 -1308l-66 -34zM976 18l274 274q116 135 116 246q0 65 -44 105.5t-112 40.5q-34 0 -62.5 -9t-52 -28 t-33.5 -28.5t-26 -28.5l-22 18q38 58 108 106t150 48q113 0 180.5 -53.5t67.5 -146.5q0 -57 -36 -111.5t-102 -118.5l-262 -226h288l122 112l30 2l-78 -220h-490z" />
<glyph unicode="&#xbe;" horiz-adv-x="1582" d="M88 578l58 56l72 -54q37 -40 102 -40q72 0 115 47t43 135q0 75 -50 129.5t-120 54.5l-72 -10l-10 18l2 12q50 9 92.5 27t76 55t33.5 86q0 50 -39 85t-97 35q-71 0 -144 -66l-14 18q36 45 98 78.5t132 33.5q71 0 130.5 -39t59.5 -111q0 -35 -14 -63t-37.5 -46t-44 -28.5 t-42.5 -16.5l-66 -20h70q15 0 38.5 -7t52.5 -22.5t53.5 -36.5t41 -54t16.5 -70q0 -80 -54 -141t-135 -90t-173 -29q-48 0 -93.5 9.5t-62.5 22.5zM448 -24l758 1316l66 24l12 -8l-752 -1308l-68 -34zM888 222l460 532l28 16l24 -22v-484h66l12 -66h-76v-198l-74 -6l-68 12 v192h-356zM990 270h270v318z" />
<glyph unicode="&#xbf;" horiz-adv-x="734" d="M86 -44q0 65 24 112t94 104l306 208l16 114l54 6l28 -184q0 -36 -11.5 -68.5t-27 -54t-43 -44.5t-46.5 -35t-50 -30q-50 -29 -81 -49t-66.5 -49t-53 -59.5t-17.5 -62.5q0 -59 43 -98.5t109 -39.5l236 118l86 -144l-22 -72l-146 -22q-39 0 -91.5 12.5t-113 40.5t-110.5 67 t-83.5 99.5t-33.5 130.5zM406 772q0 51 37 87.5t89 36.5t93 -36.5t41 -87.5q0 -49 -39 -82.5t-91 -33.5q-54 0 -92 33.5t-38 82.5z" />
<glyph unicode="&#xc0;" horiz-adv-x="1392" d="M-22 42l136 48l92 168l438 994l74 60l20 -4l496 -1190l158 -74v-44h-528v42l122 30l18 38l-140 364l-16 12l-444 -4l-18 -12l-88 -216l-42 -150l156 -60l2 -44h-434zM378 1706l86 42l66 -16l200 -270l-20 -18q-22 7 -101 57t-155 113t-76 92zM426 580l12 -18h370l12 20 l-190 456z" />
<glyph unicode="&#xc1;" horiz-adv-x="1392" d="M-22 42l136 48l92 168l438 994l74 60l20 -4l496 -1190l158 -74v-44h-528v42l122 30l18 38l-140 364l-16 12l-444 -4l-18 -12l-88 -216l-42 -150l156 -60l2 -44h-434zM426 580l12 -18h370l12 20l-190 456zM640 1464l200 270l66 14l86 -42q0 -30 -77 -93t-156 -113t-99 -56 z" />
<glyph unicode="&#xc2;" horiz-adv-x="1392" d="M-22 42l136 48l92 168l438 994l74 60l20 -4l496 -1190l158 -74v-44h-528v42l122 30l18 38l-140 364l-16 12l-444 -4l-18 -12l-88 -216l-42 -150l156 -60l2 -44h-434zM426 580l12 -18h370l12 20l-190 456zM470 1476l214 256l14 6l16 -6l214 -256l-28 -34l-194 138h-14 l-188 -138z" />
<glyph unicode="&#xc3;" horiz-adv-x="1392" d="M-22 42l136 48l92 168l438 994l74 60l20 -4l496 -1190l158 -74v-44h-528v42l122 30l18 38l-140 364l-16 12l-444 -4l-18 -12l-88 -216l-42 -150l156 -60l2 -44h-434zM398 1476l28 82q30 84 142 84q12 0 22.5 -1.5t22.5 -5t19 -6t20.5 -9.5t18 -9.5t19.5 -11.5t18 -11 q99 -58 150 -58l92 106l58 -26l-44 -84q-45 -84 -142 -84q-26 0 -52.5 8.5t-40.5 16t-45 25.5q-36 21 -52.5 30t-47 20.5t-52.5 11.5l-86 -90zM426 580l12 -18h370l12 20l-190 456z" />
<glyph unicode="&#xc4;" horiz-adv-x="1392" d="M-22 42l136 48l92 168l438 994l74 60l20 -4l496 -1190l158 -74v-44h-528v42l122 30l18 38l-140 364l-16 12l-444 -4l-18 -12l-88 -216l-42 -150l156 -60l2 -44h-434zM376 1560q0 43 35 74.5t83 31.5t82 -31t34 -75t-34 -75t-82 -31t-83 31.5t-35 74.5zM426 580l12 -18 h370l12 20l-190 456zM786 1560q0 43 35 74.5t83 31.5t81 -31t33 -75t-34 -75t-82 -31t-82 31t-34 75z" />
<glyph unicode="&#xc5;" horiz-adv-x="1392" d="M-22 42l136 48l92 168l438 994l22 18q-33 -12 -68 -12q-80 0 -138 52.5t-58 125.5t58 125.5t138 52.5q79 0 135.5 -52t56.5 -126t-58 -126l6 -2l496 -1190l158 -74v-44h-528v42l122 30l18 38l-140 364l-16 12l-444 -4l-18 -12l-88 -216l-42 -150l156 -60l2 -44h-434z M426 580l12 -18h370l12 20l-190 456zM468 1436q0 -49 38 -83.5t92 -34.5t91 34t37 84t-37 85t-91 35t-92 -35t-38 -85z" />
<glyph unicode="&#xc6;" horiz-adv-x="1802" d="M-22 42l136 48l92 168l546 1016h6l828 38l60 -260l-32 -8l-28 12l-144 194h-282l-136 -24l-10 -140v-370l146 -20l238 12l48 134l22 12l26 -10v-364l-24 -6l-24 12l-48 132l-238 14l-146 -24v-358l14 -160l132 -30h262l124 58l126 196l26 10l46 -10l-114 -314h-1000v42 l144 32l16 176v234l-342 -2l-18 -12l-110 -216l-64 -150l156 -60l2 -44h-434zM470 580l12 -18h308v494l-6 68l-44 -86z" />
<glyph unicode="&#xc7;" horiz-adv-x="1442" d="M98 644q0 140 57 267.5t153.5 220.5t232 147.5t285.5 54.5q239 0 444 -38l60 -282l-62 -18q-8 31 -21.5 60.5t-46 71.5t-76.5 72t-118.5 52t-165.5 22q-114 0 -207 -49.5t-151 -132t-89 -184.5t-31 -212q0 -97 19.5 -189.5t61 -176t101 -146t146.5 -99.5t190 -37 q165 0 282 92l142 234l56 -14l-80 -282q-217 -90 -460 -90q-28 0 -84 4l-38 -58l68 2q40 1 69 -27t29 -63q0 -64 -55.5 -104t-144.5 -40l-80 20l10 44l92 -28q47 0 74.5 21t27.5 51q0 31 -21 51.5t-51 20.5l-58 -10l-16 18l66 106q-265 35 -437.5 217.5t-172.5 430.5z" />
<glyph unicode="&#xc8;" horiz-adv-x="1268" d="M94 0v42l146 32l14 176v806l-14 176l-146 34v46h958l58 -260l-30 -8l-28 12l-146 194h-282l-136 -24l-8 -140v-370l144 -20l238 12l48 134l22 12l26 -10v-364l-24 -6l-24 12l-48 132l-238 14l-144 -24v-358l12 -160l132 -30h262l126 58l124 196l28 10l46 -10l-114 -314 h-1002zM314 1706l86 42l66 -16l200 -270l-20 -18q-22 7 -101 57t-155 113t-76 92z" />
<glyph unicode="&#xc9;" horiz-adv-x="1268" d="M94 0v42l146 32l14 176v806l-14 176l-146 34v46h958l58 -260l-30 -8l-28 12l-146 194h-282l-136 -24l-8 -140v-370l144 -20l238 12l48 134l22 12l26 -10v-364l-24 -6l-24 12l-48 132l-238 14l-144 -24v-358l12 -160l132 -30h262l126 58l124 196l28 10l46 -10l-114 -314 h-1002zM576 1464l200 270l66 14l86 -42q0 -30 -77 -93t-156 -113t-99 -56z" />
<glyph unicode="&#xca;" horiz-adv-x="1268" d="M94 0v42l146 32l14 176v806l-14 176l-146 34v46h958l58 -260l-30 -8l-28 12l-146 194h-282l-136 -24l-8 -140v-370l144 -20l238 12l48 134l22 12l26 -10v-364l-24 -6l-24 12l-48 132l-238 14l-144 -24v-358l12 -160l132 -30h262l126 58l124 196l28 10l46 -10l-114 -314 h-1002zM406 1476l214 256l14 6l16 -6l214 -256l-28 -34l-194 138h-14l-188 -138z" />
<glyph unicode="&#xcb;" horiz-adv-x="1268" d="M94 0v42l146 32l14 176v806l-14 176l-146 34v46h958l58 -260l-30 -8l-28 12l-146 194h-282l-136 -24l-8 -140v-370l144 -20l238 12l48 134l22 12l26 -10v-364l-24 -6l-24 12l-48 132l-238 14l-144 -24v-358l12 -160l132 -30h262l126 58l124 196l28 10l46 -10l-114 -314 h-1002zM312 1560q0 43 35 74.5t83 31.5t82 -31t34 -75t-34 -75t-82 -31t-83 31.5t-35 74.5zM722 1560q0 43 35 74.5t83 31.5t81 -31t33 -75t-34 -75t-82 -31t-82 31t-34 75z" />
<glyph unicode="&#xcc;" horiz-adv-x="736" d="M50 1706l86 42l66 -16l200 -270l-20 -18q-22 7 -101 57t-155 113t-76 92zM94 0v40l146 34l14 176v806l-14 176l-146 34v46h548v-46l-146 -34l-12 -176v-806l12 -176l146 -34v-40h-548z" />
<glyph unicode="&#xcd;" horiz-adv-x="736" d="M94 0v40l146 34l14 176v806l-14 176l-146 34v46h548v-46l-146 -34l-12 -176v-806l12 -176l146 -34v-40h-548zM312 1464l200 270l66 14l86 -42q0 -30 -77 -93t-156 -113t-99 -56z" />
<glyph unicode="&#xce;" horiz-adv-x="736" d="M94 0v40l146 34l14 176v806l-14 176l-146 34v46h548v-46l-146 -34l-12 -176v-806l12 -176l146 -34v-40h-548zM142 1476l214 256l14 6l16 -6l214 -256l-28 -34l-194 138h-14l-188 -138z" />
<glyph unicode="&#xcf;" horiz-adv-x="736" d="M48 1560q0 43 35 74.5t83 31.5t82 -31t34 -75t-34 -75t-82 -31t-83 31.5t-35 74.5zM94 0v40l146 34l14 176v806l-14 176l-146 34v46h548v-46l-146 -34l-12 -176v-806l12 -176l146 -34v-40h-548zM458 1560q0 43 35 74.5t83 31.5t81 -31t33 -75t-34 -75t-82 -31t-82 31 t-34 75z" />
<glyph unicode="&#xd0;" horiz-adv-x="1432" d="M66 616v70h190v370l-16 176l-146 32v48h594q357 0 571.5 -176.5t214.5 -465.5q0 -312 -208.5 -491t-599.5 -179h-572v42l146 32l16 176v366h-190zM482 250l16 -160l162 -40q258 0 405 147t147 441q0 156 -46 276t-126.5 193t-184.5 110t-227 37l-136 -26l-10 -142v-400 h248v-70h-248v-366z" />
<glyph unicode="&#xd1;" horiz-adv-x="1650" d="M80 0v40l174 46l24 178v798l-32 166l-158 40l-2 44h424l782 -936l2 126v518l-24 206l-166 42l-4 44h494l-2 -44l-178 -44l-22 -200v-756l8 -272l-36 -6l-62 44l-924 1082v-854l22 -174l168 -46l2 -42h-490zM526 1476l28 82q30 84 142 84q12 0 22.5 -1.5t22.5 -5t19 -6 t20.5 -9.5t18 -9.5t19.5 -11.5t18 -11q99 -58 150 -58l92 106l58 -26l-44 -84q-45 -84 -142 -84q-26 0 -52.5 8.5t-40.5 16t-45 25.5q-36 21 -52.5 30t-47 20.5t-52.5 11.5l-86 -90z" />
<glyph unicode="&#xd2;" horiz-adv-x="1610" d="M96 656q0 137 58.5 263t155.5 216.5t227 144.5t267 54q138 0 268 -52.5t228 -141.5t157 -216t59 -268q0 -137 -59.5 -263t-157 -216t-228 -143.5t-267.5 -53.5q-92 0 -181.5 23.5t-167.5 66t-144.5 104.5t-114 136t-74 163t-26.5 183zM360 712q0 -97 18 -191t57 -181.5 t94.5 -153.5t137.5 -106t179 -40q86 0 156 33.5t116 88t76.5 128.5t44 151t13.5 159q0 97 -18 191t-57.5 182t-95.5 154.5t-138.5 106.5t-180.5 40q-86 0 -155.5 -33.5t-114.5 -88.5t-75.5 -129t-43.5 -151.5t-13 -159.5zM484 1706l86 42l66 -16l200 -270l-20 -18 q-22 7 -101 57t-155 113t-76 92z" />
<glyph unicode="&#xd3;" horiz-adv-x="1610" d="M96 656q0 137 58.5 263t155.5 216.5t227 144.5t267 54q138 0 268 -52.5t228 -141.5t157 -216t59 -268q0 -137 -59.5 -263t-157 -216t-228 -143.5t-267.5 -53.5q-92 0 -181.5 23.5t-167.5 66t-144.5 104.5t-114 136t-74 163t-26.5 183zM360 712q0 -97 18 -191t57 -181.5 t94.5 -153.5t137.5 -106t179 -40q86 0 156 33.5t116 88t76.5 128.5t44 151t13.5 159q0 97 -18 191t-57.5 182t-95.5 154.5t-138.5 106.5t-180.5 40q-86 0 -155.5 -33.5t-114.5 -88.5t-75.5 -129t-43.5 -151.5t-13 -159.5zM746 1464l200 270l66 14l86 -42q0 -30 -77 -93 t-156 -113t-99 -56z" />
<glyph unicode="&#xd4;" horiz-adv-x="1610" d="M96 656q0 137 58.5 263t155.5 216.5t227 144.5t267 54q138 0 268 -52.5t228 -141.5t157 -216t59 -268q0 -137 -59.5 -263t-157 -216t-228 -143.5t-267.5 -53.5q-92 0 -181.5 23.5t-167.5 66t-144.5 104.5t-114 136t-74 163t-26.5 183zM360 712q0 -97 18 -191t57 -181.5 t94.5 -153.5t137.5 -106t179 -40q86 0 156 33.5t116 88t76.5 128.5t44 151t13.5 159q0 97 -18 191t-57.5 182t-95.5 154.5t-138.5 106.5t-180.5 40q-86 0 -155.5 -33.5t-114.5 -88.5t-75.5 -129t-43.5 -151.5t-13 -159.5zM576 1476l214 256l14 6l16 -6l214 -256l-28 -34 l-194 138h-14l-188 -138z" />
<glyph unicode="&#xd5;" horiz-adv-x="1610" d="M96 656q0 137 58.5 263t155.5 216.5t227 144.5t267 54q138 0 268 -52.5t228 -141.5t157 -216t59 -268q0 -137 -59.5 -263t-157 -216t-228 -143.5t-267.5 -53.5q-92 0 -181.5 23.5t-167.5 66t-144.5 104.5t-114 136t-74 163t-26.5 183zM360 712q0 -97 18 -191t57 -181.5 t94.5 -153.5t137.5 -106t179 -40q86 0 156 33.5t116 88t76.5 128.5t44 151t13.5 159q0 97 -18 191t-57.5 182t-95.5 154.5t-138.5 106.5t-180.5 40q-86 0 -155.5 -33.5t-114.5 -88.5t-75.5 -129t-43.5 -151.5t-13 -159.5zM504 1476l28 82q30 84 142 84q12 0 22.5 -1.5 t22.5 -5t19 -6t20.5 -9.5t18 -9.5t19.5 -11.5t18 -11q99 -58 150 -58l92 106l58 -26l-44 -84q-45 -84 -142 -84q-26 0 -52.5 8.5t-40.5 16t-45 25.5q-36 21 -52.5 30t-47 20.5t-52.5 11.5l-86 -90z" />
<glyph unicode="&#xd6;" horiz-adv-x="1610" d="M96 656q0 137 58.5 263t155.5 216.5t227 144.5t267 54q138 0 268 -52.5t228 -141.5t157 -216t59 -268q0 -137 -59.5 -263t-157 -216t-228 -143.5t-267.5 -53.5q-92 0 -181.5 23.5t-167.5 66t-144.5 104.5t-114 136t-74 163t-26.5 183zM360 712q0 -97 18 -191t57 -181.5 t94.5 -153.5t137.5 -106t179 -40q86 0 156 33.5t116 88t76.5 128.5t44 151t13.5 159q0 97 -18 191t-57.5 182t-95.5 154.5t-138.5 106.5t-180.5 40q-86 0 -155.5 -33.5t-114.5 -88.5t-75.5 -129t-43.5 -151.5t-13 -159.5zM482 1560q0 43 35 74.5t83 31.5t82 -31t34 -75 t-34 -75t-82 -31t-83 31.5t-35 74.5zM892 1560q0 43 35 74.5t83 31.5t81 -31t33 -75t-34 -75t-82 -31t-82 31t-34 75z" />
<glyph unicode="&#xd7;" horiz-adv-x="980" d="M122 210l312 286l-312 286l48 66h4l320 -292l314 292l46 -70l-302 -278l302 -290l-46 -70h-4l-314 298l-324 -300z" />
<glyph unicode="&#xd8;" horiz-adv-x="1610" d="M96 656q0 137 58.5 263t155.5 216.5t227 144.5t267 54q175 0 332 -80l80 128l8 4l64 -22l2 -10l-86 -140q142 -93 227 -239.5t85 -318.5q0 -137 -59.5 -263t-157 -216t-228 -143.5t-267.5 -53.5q-171 0 -320 76l-82 -132l-82 14v6l94 150q-145 93 -231.5 240.5 t-86.5 321.5zM360 712q0 -132 34.5 -260t101.5 -224l570 914q-125 132 -304 132q-86 0 -155.5 -33.5t-114.5 -88.5t-75.5 -129t-43.5 -151.5t-13 -159.5zM550 164q124 -124 296 -124q86 0 156 33.5t116 88t76.5 128.5t44 151t13.5 159q0 130 -33.5 256.5t-100.5 221.5z" />
<glyph unicode="&#xd9;" horiz-adv-x="1558" d="M60 1266v46h544v-46l-144 -34l-14 -176v-440q0 -119 18.5 -204.5t63.5 -155.5q93 -158 318 -158q80 0 148 25.5t124 79.5t88 149t32 222v450l-26 200l-156 44l-2 44h482v-44l-172 -44l-26 -198v-474q0 -145 -43.5 -255t-121 -176.5t-179 -99.5t-224.5 -33 q-125 0 -232.5 38t-179.5 110q-138 141 -138 406v514l-12 176zM460 1706l86 42l66 -16l200 -270l-20 -18q-22 7 -101 57t-155 113t-76 92z" />
<glyph unicode="&#xda;" horiz-adv-x="1558" d="M60 1266v46h544v-46l-144 -34l-14 -176v-440q0 -119 18.5 -204.5t63.5 -155.5q93 -158 318 -158q80 0 148 25.5t124 79.5t88 149t32 222v450l-26 200l-156 44l-2 44h482v-44l-172 -44l-26 -198v-474q0 -145 -43.5 -255t-121 -176.5t-179 -99.5t-224.5 -33 q-125 0 -232.5 38t-179.5 110q-138 141 -138 406v514l-12 176zM722 1464l200 270l66 14l86 -42q0 -30 -77 -93t-156 -113t-99 -56z" />
<glyph unicode="&#xdb;" horiz-adv-x="1558" d="M60 1266v46h544v-46l-144 -34l-14 -176v-440q0 -119 18.5 -204.5t63.5 -155.5q93 -158 318 -158q80 0 148 25.5t124 79.5t88 149t32 222v450l-26 200l-156 44l-2 44h482v-44l-172 -44l-26 -198v-474q0 -145 -43.5 -255t-121 -176.5t-179 -99.5t-224.5 -33 q-125 0 -232.5 38t-179.5 110q-138 141 -138 406v514l-12 176zM552 1476l214 256l14 6l16 -6l214 -256l-28 -34l-194 138h-14l-188 -138z" />
<glyph unicode="&#xdc;" horiz-adv-x="1558" d="M60 1266v46h544v-46l-144 -34l-14 -176v-440q0 -119 18.5 -204.5t63.5 -155.5q93 -158 318 -158q80 0 148 25.5t124 79.5t88 149t32 222v450l-26 200l-156 44l-2 44h482v-44l-172 -44l-26 -198v-474q0 -145 -43.5 -255t-121 -176.5t-179 -99.5t-224.5 -33 q-125 0 -232.5 38t-179.5 110q-138 141 -138 406v514l-12 176zM458 1560q0 43 35 74.5t83 31.5t82 -31t34 -75t-34 -75t-82 -31t-83 31.5t-35 74.5zM868 1560q0 43 35 74.5t83 31.5t81 -31t33 -75t-34 -75t-82 -31t-82 31t-34 75z" />
<glyph unicode="&#xdd;" horiz-adv-x="1300" d="M-8 1264v48h560l-2 -48l-132 -60l24 -56l284 -472l286 490l12 48l-158 50l-2 48h454l-2 -50l-174 -62l-372 -596l-10 -56v-298l12 -176l142 -34v-40h-532v40l138 34l18 176v304l-18 50l-286 486l-110 126zM594 1464l200 270l66 14l86 -42q0 -30 -77 -93t-156 -113 t-99 -56z" />
<glyph unicode="&#xde;" horiz-adv-x="1320" d="M94 0v40l146 34l14 176v852l-12 136l-140 34v40h538v-40l-146 -34l-12 -138h204q116 0 219.5 -38.5t173 -118.5t69.5 -185q0 -120 -59.5 -211.5t-158.5 -139t-220 -47.5l-114 30l-22 40l4 6l74 -8q110 0 182 80t72 212q0 141 -80.5 232.5t-223.5 91.5l-114 -24l-8 -144 v-626l12 -176l138 -34v-40h-536z" />
<glyph unicode="&#xdf;" horiz-adv-x="1204" d="M58 0v42l140 32l14 176v542h-132l-4 10l54 58h82v30q0 92 40 185.5t101.5 162t137 111.5t143.5 43q96 0 178.5 -25t135 -74.5t52.5 -114.5q0 -72 -27.5 -123.5t-90.5 -120.5l-150 -168q0 -16 7 -33t15.5 -30.5t25.5 -31t29 -28t35.5 -27.5t34 -24.5t36 -24.5l31.5 -21 q46 -31 71 -50.5t58.5 -53t49 -72t15.5 -84.5q0 -97 -36 -158l-190 -130q-69 -18 -166 -18l-138 64l-8 44l76 98h122q0 -150 96 -150l90 80q0 33 -5 62.5t-11 50.5t-20 43t-22.5 34t-30 30t-30.5 25t-35 25t-34 24t-42 30t-45 32.5t-38 30.5t-37.5 37t-25.5 37.5t-20.5 46 t-5.5 50.5q0 24 13 49t27 40.5t45 45.5t45 45l112 124q18 51 18 120q0 104 -58 169t-174 65q-69 0 -115.5 -54.5t-64.5 -132.5t-18 -175v-720l14 -176l116 -32v-42h-486z" />
<glyph unicode="&#xe0;" horiz-adv-x="950" d="M72 210q0 53 34 95.5t74 54.5l384 136l14 62v54q0 87 -33 135.5t-107 76.5q-59 -10 -93.5 -28.5t-50 -33.5t-11.5 -53t9.5 -53.5t26.5 -67.5q0 -3 1 -4l-148 -58l-58 106l20 108q51 43 162.5 88.5t215.5 45.5q107 0 186.5 -79t79.5 -199v-406l50 -76l88 18l22 -44 l-178 -108q-149 48 -178 134q-117 -134 -248 -134q-110 0 -186 69.5t-76 160.5zM154 1258l86 42l66 -16l200 -270l-20 -18q-22 7 -101 57t-155 113t-76 92zM290 230q0 -62 52 -108t108 -46l128 84v290l-178 -68q-53 -20 -81.5 -61.5t-28.5 -90.5z" />
<glyph unicode="&#xe1;" horiz-adv-x="950" d="M72 210q0 53 34 95.5t74 54.5l384 136l14 62v54q0 87 -33 135.5t-107 76.5q-59 -10 -93.5 -28.5t-50 -33.5t-11.5 -53t9.5 -53.5t26.5 -67.5q0 -3 1 -4l-148 -58l-58 106l20 108q51 43 162.5 88.5t215.5 45.5q107 0 186.5 -79t79.5 -199v-406l50 -76l88 18l22 -44 l-178 -108q-149 48 -178 134q-117 -134 -248 -134q-110 0 -186 69.5t-76 160.5zM290 230q0 -62 52 -108t108 -46l128 84v290l-178 -68q-53 -20 -81.5 -61.5t-28.5 -90.5zM416 1016l200 270l66 14l86 -42q0 -30 -77 -93t-156 -113t-99 -56z" />
<glyph unicode="&#xe2;" horiz-adv-x="950" d="M72 210q0 53 34 95.5t74 54.5l384 136l14 62v54q0 87 -33 135.5t-107 76.5q-59 -10 -93.5 -28.5t-50 -33.5t-11.5 -53t9.5 -53.5t26.5 -67.5q0 -3 1 -4l-148 -58l-58 106l20 108q51 43 162.5 88.5t215.5 45.5q107 0 186.5 -79t79.5 -199v-406l50 -76l88 18l22 -44 l-178 -108q-149 48 -178 134q-117 -134 -248 -134q-110 0 -186 69.5t-76 160.5zM246 1028l214 256l14 6l16 -6l214 -256l-28 -34l-194 138h-14l-188 -138zM290 230q0 -62 52 -108t108 -46l128 84v290l-178 -68q-53 -20 -81.5 -61.5t-28.5 -90.5z" />
<glyph unicode="&#xe3;" horiz-adv-x="950" d="M72 210q0 53 34 95.5t74 54.5l384 136l14 62v54q0 87 -33 135.5t-107 76.5q-59 -10 -93.5 -28.5t-50 -33.5t-11.5 -53t9.5 -53.5t26.5 -67.5q0 -3 1 -4l-148 -58l-58 106l20 108q51 43 162.5 88.5t215.5 45.5q107 0 186.5 -79t79.5 -199v-406l50 -76l88 18l22 -44 l-178 -108q-149 48 -178 134q-117 -134 -248 -134q-110 0 -186 69.5t-76 160.5zM174 1028l28 82q30 84 142 84q12 0 22.5 -1.5t22.5 -5t19 -6t20.5 -9.5t18 -9.5t19.5 -11.5t18 -11q99 -58 150 -58l92 106l58 -26l-44 -84q-45 -84 -142 -84q-26 0 -52.5 8.5t-40.5 16 t-45 25.5q-36 21 -52.5 30t-47 20.5t-52.5 11.5l-86 -90zM290 230q0 -62 52 -108t108 -46l128 84v290l-178 -68q-53 -20 -81.5 -61.5t-28.5 -90.5z" />
<glyph unicode="&#xe4;" horiz-adv-x="950" d="M72 210q0 53 34 95.5t74 54.5l384 136l14 62v54q0 87 -33 135.5t-107 76.5q-59 -10 -93.5 -28.5t-50 -33.5t-11.5 -53t9.5 -53.5t26.5 -67.5q0 -3 1 -4l-148 -58l-58 106l20 108q51 43 162.5 88.5t215.5 45.5q107 0 186.5 -79t79.5 -199v-406l50 -76l88 18l22 -44 l-178 -108q-149 48 -178 134q-117 -134 -248 -134q-110 0 -186 69.5t-76 160.5zM152 1112q0 43 35 74.5t83 31.5t82 -31t34 -75t-34 -75t-82 -31t-83 31.5t-35 74.5zM290 230q0 -62 52 -108t108 -46l128 84v290l-178 -68q-53 -20 -81.5 -61.5t-28.5 -90.5zM562 1112 q0 43 35 74.5t83 31.5t81 -31t33 -75t-34 -75t-82 -31t-82 31t-34 75z" />
<glyph unicode="&#xe5;" horiz-adv-x="950" d="M72 210q0 53 34 95.5t74 54.5l384 136l14 62v54q0 87 -33 135.5t-107 76.5q-59 -10 -93.5 -28.5t-50 -33.5t-11.5 -53t9.5 -53.5t26.5 -67.5q0 -3 1 -4l-148 -58l-58 106l20 108q51 43 162.5 88.5t215.5 45.5q107 0 186.5 -79t79.5 -199v-406l50 -76l88 18l22 -44 l-178 -108q-149 48 -178 134q-117 -134 -248 -134q-110 0 -186 69.5t-76 160.5zM280 1118q0 73 58 125.5t138 52.5q79 0 135.5 -52t56.5 -126t-56.5 -126t-135.5 -52q-80 0 -138 52.5t-58 125.5zM290 230q0 -62 52 -108t108 -46l128 84v290l-178 -68q-53 -20 -81.5 -61.5 t-28.5 -90.5zM346 1118q0 -49 38 -83.5t92 -34.5t91 34t37 84t-37 85t-91 35t-92 -35t-38 -85z" />
<glyph unicode="&#xe6;" horiz-adv-x="1422" d="M72 210q0 53 31.5 94t72.5 56l398 142q9 50 28 98v10q-8 88 -58.5 148t-121.5 60q-70 0 -102 -53t6 -145l-164 -82l-56 124l16 58q51 44 170.5 99t225.5 55q124 0 204 -106q121 106 280 106q77 0 136.5 -17.5t97 -46.5t61.5 -71.5t33.5 -87.5t9.5 -99l-24 -46h-552v-10 q0 -81 20.5 -147t53 -109.5t76 -73t87 -42t87.5 -12.5l228 108l20 -62l-192 -144q-77 -30 -148 -30q-103 0 -193.5 41.5t-150.5 116.5q-113 -93 -174 -125.5t-128 -32.5q-278 0 -278 226zM290 240q0 -62 35.5 -109t92.5 -47q44 0 62 16l136 96q-50 91 -50 202q0 36 2 54 l-166 -60q-53 -24 -82.5 -64t-29.5 -88zM772 560h338l24 54q0 29 -9 62t-26.5 66t-50 54.5t-74.5 21.5q-45 0 -82 -22.5t-58.5 -55t-36.5 -69t-20.5 -63t-4.5 -38.5v-10z" />
<glyph unicode="&#xe7;" horiz-adv-x="912" d="M78 394q0 122 80.5 235t201.5 179t240 66q130 0 202 -38l26 -68l-94 -98l-256 128q-79 0 -138.5 -96.5t-59.5 -217.5q0 -96 28 -170t75.5 -116t103.5 -63t119 -21l238 94l12 -18v-26l-204 -152q-68 -28 -148 -28q-24 0 -36 2l-34 -52l68 2q40 1 69 -27t29 -63 q0 -64 -55.5 -104t-144.5 -40l-80 20l10 44l92 -28q47 0 74.5 21t27.5 51q0 31 -21 51.5t-51 20.5l-58 -10l-16 18l62 98q-155 23 -258.5 136t-103.5 270z" />
<glyph unicode="&#xe8;" horiz-adv-x="936" d="M80 398q0 116 39.5 209.5t103.5 150t139.5 86.5t153.5 30q77 0 136.5 -17.5t97 -46.5t61.5 -71.5t33.5 -87.5t9.5 -99l-24 -46h-552v-10q0 -81 20.5 -147t53 -109.5t76 -73t87 -42t87.5 -12.5l228 108l20 -62l-192 -144q-77 -30 -148 -30q-180 0 -305 116t-125 298z M150 1258l86 42l66 -16l200 -270l-20 -18q-22 7 -101 57t-155 113t-76 92zM286 560h338l24 54q0 29 -9 62t-26.5 66t-50 54.5t-74.5 21.5q-45 0 -82 -22.5t-58.5 -55t-36.5 -69t-20.5 -63t-4.5 -38.5v-10z" />
<glyph unicode="&#xe9;" horiz-adv-x="936" d="M80 398q0 116 39.5 209.5t103.5 150t139.5 86.5t153.5 30q77 0 136.5 -17.5t97 -46.5t61.5 -71.5t33.5 -87.5t9.5 -99l-24 -46h-552v-10q0 -81 20.5 -147t53 -109.5t76 -73t87 -42t87.5 -12.5l228 108l20 -62l-192 -144q-77 -30 -148 -30q-180 0 -305 116t-125 298z M286 560h338l24 54q0 29 -9 62t-26.5 66t-50 54.5t-74.5 21.5q-45 0 -82 -22.5t-58.5 -55t-36.5 -69t-20.5 -63t-4.5 -38.5v-10zM412 1016l200 270l66 14l86 -42q0 -30 -77 -93t-156 -113t-99 -56z" />
<glyph unicode="&#xea;" horiz-adv-x="936" d="M80 398q0 116 39.5 209.5t103.5 150t139.5 86.5t153.5 30q77 0 136.5 -17.5t97 -46.5t61.5 -71.5t33.5 -87.5t9.5 -99l-24 -46h-552v-10q0 -81 20.5 -147t53 -109.5t76 -73t87 -42t87.5 -12.5l228 108l20 -62l-192 -144q-77 -30 -148 -30q-180 0 -305 116t-125 298z M242 1028l214 256l14 6l16 -6l214 -256l-28 -34l-194 138h-14l-188 -138zM286 560h338l24 54q0 29 -9 62t-26.5 66t-50 54.5t-74.5 21.5q-45 0 -82 -22.5t-58.5 -55t-36.5 -69t-20.5 -63t-4.5 -38.5v-10z" />
<glyph unicode="&#xeb;" horiz-adv-x="936" d="M80 398q0 116 39.5 209.5t103.5 150t139.5 86.5t153.5 30q77 0 136.5 -17.5t97 -46.5t61.5 -71.5t33.5 -87.5t9.5 -99l-24 -46h-552v-10q0 -81 20.5 -147t53 -109.5t76 -73t87 -42t87.5 -12.5l228 108l20 -62l-192 -144q-77 -30 -148 -30q-180 0 -305 116t-125 298z M148 1112q0 43 35 74.5t83 31.5t82 -31t34 -75t-34 -75t-82 -31t-83 31.5t-35 74.5zM286 560h338l24 54q0 29 -9 62t-26.5 66t-50 54.5t-74.5 21.5q-45 0 -82 -22.5t-58.5 -55t-36.5 -69t-20.5 -63t-4.5 -38.5v-10zM558 1112q0 43 35 74.5t83 31.5t81 -31t33 -75t-34 -75 t-82 -31t-82 31t-34 75z" />
<glyph unicode="&#xec;" horiz-adv-x="624" d="M-8 1258l86 42l66 -16l200 -270l-20 -18q-22 7 -101 57t-155 113t-76 92zM68 754v40l356 92l24 -26l-16 -120v-488l12 -178l132 -34v-40h-506v40l138 34l16 178v322l-16 142z" />
<glyph unicode="&#xed;" horiz-adv-x="624" d="M68 754v40l356 92l24 -26l-16 -120v-488l12 -178l132 -34v-40h-506v40l138 34l16 178v322l-16 142zM254 1016l200 270l66 14l86 -42q0 -30 -77 -93t-156 -113t-99 -56z" />
<glyph unicode="&#xee;" horiz-adv-x="624" d="M68 754v40l356 92l24 -26l-16 -120v-488l12 -178l132 -34v-40h-506v40l138 34l16 178v322l-16 142zM84 1028l214 256l14 6l16 -6l214 -256l-28 -34l-194 138h-14l-188 -138z" />
<glyph unicode="&#xef;" horiz-adv-x="624" d="M-10 1112q0 43 35 74.5t83 31.5t82 -31t34 -75t-34 -75t-82 -31t-83 31.5t-35 74.5zM68 754v40l356 92l24 -26l-16 -120v-488l12 -178l132 -34v-40h-506v40l138 34l16 178v322l-16 142zM400 1112q0 43 35 74.5t83 31.5t81 -31t33 -75t-34 -75t-82 -31t-82 31t-34 75z" />
<glyph unicode="&#xf0;" horiz-adv-x="1122" d="M82 428q0 196 128.5 328t313.5 132l170 -32l24 24q-42 119 -226 288l-210 -132l-28 48l196 124l-212 164l60 62l246 -168l204 138l32 -48l-184 -124l178 -146q133 -110 181.5 -250.5t48.5 -329.5q0 -115 -37 -213.5t-100 -164.5t-145.5 -103t-173.5 -37 q-127 0 -231.5 50.5t-169.5 152.5t-65 237zM306 440q0 -165 73 -280.5t177 -115.5q58 0 102.5 32.5t69.5 88t37.5 122t12.5 141.5q0 182 -56 288q-69 116 -196 116q-60 0 -104.5 -34t-69 -92.5t-35.5 -124.5t-11 -141z" />
<glyph unicode="&#xf1;" horiz-adv-x="1198" d="M68 744v40l354 92l22 -24l-18 -112l12 -28q30 33 70 65.5t107.5 64.5t128.5 32q85 0 139 -24.5t83.5 -80.5t40.5 -131t11 -192v-196l14 -176l140 -34v-40h-492v40l122 34l14 176v200q0 74 -8 126.5t-28 94.5t-57 62.5t-91 20.5l-206 -120v-384l14 -176l128 -34v-40h-498 v40l138 34l16 176v314l-16 142zM300 1028l28 82q30 84 142 84q12 0 22.5 -1.5t22.5 -5t19 -6t20.5 -9.5t18 -9.5t19.5 -11.5t18 -11q99 -58 150 -58l92 106l58 -26l-44 -84q-45 -84 -142 -84q-26 0 -52.5 8.5t-40.5 16t-45 25.5q-36 21 -52.5 30t-47 20.5t-52.5 11.5 l-86 -90z" />
<glyph unicode="&#xf2;" horiz-adv-x="1102" d="M80 430q0 192 135.5 324t330.5 132q209 0 341.5 -125t132.5 -315q0 -192 -137.5 -326t-332.5 -134q-208 0 -339 126.5t-131 317.5zM230 1258l86 42l66 -16l200 -270l-20 -18q-22 7 -101 57t-155 113t-76 92zM308 470q0 -73 16 -146.5t47 -137.5t83 -104t116 -40 q63 0 108 32.5t68.5 87.5t33.5 113.5t10 124.5q0 74 -16.5 148t-48 138.5t-83.5 105t-116 40.5q-63 0 -108 -32.5t-67.5 -88t-32.5 -114.5t-10 -127z" />
<glyph unicode="&#xf3;" horiz-adv-x="1102" d="M80 430q0 192 135.5 324t330.5 132q209 0 341.5 -125t132.5 -315q0 -192 -137.5 -326t-332.5 -134q-208 0 -339 126.5t-131 317.5zM308 470q0 -73 16 -146.5t47 -137.5t83 -104t116 -40q63 0 108 32.5t68.5 87.5t33.5 113.5t10 124.5q0 74 -16.5 148t-48 138.5t-83.5 105 t-116 40.5q-63 0 -108 -32.5t-67.5 -88t-32.5 -114.5t-10 -127zM492 1016l200 270l66 14l86 -42q0 -30 -77 -93t-156 -113t-99 -56z" />
<glyph unicode="&#xf4;" horiz-adv-x="1102" d="M80 430q0 192 135.5 324t330.5 132q209 0 341.5 -125t132.5 -315q0 -192 -137.5 -326t-332.5 -134q-208 0 -339 126.5t-131 317.5zM308 470q0 -73 16 -146.5t47 -137.5t83 -104t116 -40q63 0 108 32.5t68.5 87.5t33.5 113.5t10 124.5q0 74 -16.5 148t-48 138.5t-83.5 105 t-116 40.5q-63 0 -108 -32.5t-67.5 -88t-32.5 -114.5t-10 -127zM322 1028l214 256l14 6l16 -6l214 -256l-28 -34l-194 138h-14l-188 -138z" />
<glyph unicode="&#xf5;" horiz-adv-x="1102" d="M80 430q0 192 135.5 324t330.5 132q209 0 341.5 -125t132.5 -315q0 -192 -137.5 -326t-332.5 -134q-208 0 -339 126.5t-131 317.5zM250 1028l28 82q30 84 142 84q12 0 22.5 -1.5t22.5 -5t19 -6t20.5 -9.5t18 -9.5t19.5 -11.5t18 -11q99 -58 150 -58l92 106l58 -26 l-44 -84q-45 -84 -142 -84q-26 0 -52.5 8.5t-40.5 16t-45 25.5q-36 21 -52.5 30t-47 20.5t-52.5 11.5l-86 -90zM308 470q0 -73 16 -146.5t47 -137.5t83 -104t116 -40q63 0 108 32.5t68.5 87.5t33.5 113.5t10 124.5q0 74 -16.5 148t-48 138.5t-83.5 105t-116 40.5 q-63 0 -108 -32.5t-67.5 -88t-32.5 -114.5t-10 -127z" />
<glyph unicode="&#xf6;" horiz-adv-x="1102" d="M80 430q0 192 135.5 324t330.5 132q209 0 341.5 -125t132.5 -315q0 -192 -137.5 -326t-332.5 -134q-208 0 -339 126.5t-131 317.5zM228 1112q0 43 35 74.5t83 31.5t82 -31t34 -75t-34 -75t-82 -31t-83 31.5t-35 74.5zM308 470q0 -73 16 -146.5t47 -137.5t83 -104t116 -40 q63 0 108 32.5t68.5 87.5t33.5 113.5t10 124.5q0 74 -16.5 148t-48 138.5t-83.5 105t-116 40.5q-63 0 -108 -32.5t-67.5 -88t-32.5 -114.5t-10 -127zM638 1112q0 43 35 74.5t83 31.5t81 -31t33 -75t-34 -75t-82 -31t-82 31t-34 75z" />
<glyph unicode="&#xf7;" horiz-adv-x="1294" d="M140 468l26 78h970l14 -18l-28 -76h-974zM538 120q0 42 31.5 72t76.5 30t75.5 -30t30.5 -72t-30.5 -72t-75.5 -30t-76.5 30t-31.5 72zM538 880q0 42 31.5 72t76.5 30t75.5 -30t30.5 -72t-30.5 -72t-75.5 -30t-76.5 30t-31.5 72z" />
<glyph unicode="&#xf8;" horiz-adv-x="1102" d="M80 430q0 192 135.5 324t330.5 132q127 0 230 -50l64 104l6 2l46 -14l2 -6l-70 -112q93 -59 144.5 -153.5t51.5 -210.5q0 -192 -137.5 -326t-332.5 -134q-117 0 -210 42l-72 -116l-58 10v4l80 128q-99 57 -154.5 156t-55.5 220zM308 470q0 -162 64 -284l332 536 q-70 110 -178 110q-63 0 -108 -32.5t-67.5 -88t-32.5 -114.5t-10 -127zM404 132q70 -90 166 -90q63 0 108 32.5t68.5 87.5t33.5 113.5t10 124.5q0 146 -54 266z" />
<glyph unicode="&#xf9;" horiz-adv-x="1140" d="M30 772v42l346 72l24 -30l-18 -126v-388q0 -109 19.5 -164t59.5 -74.5t119 -19.5l174 104v398l-18 146l-126 40l4 42l340 72l24 -30l-20 -124v-490l18 -120l116 -30l4 -16l-12 -28l-314 -62l-16 30v64l-12 22q-58 -49 -144 -81.5t-158 -32.5q-147 0 -203.5 74t-56.5 222 v302l-20 146zM252 1258l86 42l66 -16l200 -270l-20 -18q-22 7 -101 57t-155 113t-76 92z" />
<glyph unicode="&#xfa;" horiz-adv-x="1140" d="M30 772v42l346 72l24 -30l-18 -126v-388q0 -109 19.5 -164t59.5 -74.5t119 -19.5l174 104v398l-18 146l-126 40l4 42l340 72l24 -30l-20 -124v-490l18 -120l116 -30l4 -16l-12 -28l-314 -62l-16 30v64l-12 22q-58 -49 -144 -81.5t-158 -32.5q-147 0 -203.5 74t-56.5 222 v302l-20 146zM514 1016l200 270l66 14l86 -42q0 -30 -77 -93t-156 -113t-99 -56z" />
<glyph unicode="&#xfb;" horiz-adv-x="1140" d="M30 772v42l346 72l24 -30l-18 -126v-388q0 -109 19.5 -164t59.5 -74.5t119 -19.5l174 104v398l-18 146l-126 40l4 42l340 72l24 -30l-20 -124v-490l18 -120l116 -30l4 -16l-12 -28l-314 -62l-16 30v64l-12 22q-58 -49 -144 -81.5t-158 -32.5q-147 0 -203.5 74t-56.5 222 v302l-20 146zM344 1028l214 256l14 6l16 -6l214 -256l-28 -34l-194 138h-14l-188 -138z" />
<glyph unicode="&#xfc;" horiz-adv-x="1140" d="M30 772v42l346 72l24 -30l-18 -126v-388q0 -109 19.5 -164t59.5 -74.5t119 -19.5l174 104v398l-18 146l-126 40l4 42l340 72l24 -30l-20 -124v-490l18 -120l116 -30l4 -16l-12 -28l-314 -62l-16 30v64l-12 22q-58 -49 -144 -81.5t-158 -32.5q-147 0 -203.5 74t-56.5 222 v302l-20 146zM250 1112q0 43 35 74.5t83 31.5t82 -31t34 -75t-34 -75t-82 -31t-83 31.5t-35 74.5zM660 1112q0 43 35 74.5t83 31.5t81 -31t33 -75t-34 -75t-82 -31t-82 31t-34 75z" />
<glyph unicode="&#xfd;" horiz-adv-x="1058" d="M4 808v46h476l-6 -46l-114 -44l236 -524l186 426l22 82l-140 60v46h394l-2 -46l-156 -66l-338 -716q-50 -109 -87 -176t-89 -136l-140 -126l-240 60l114 186l152 -120q51 28 107 110.5t101 201.5l-348 724zM500 996l200 270l66 14l86 -42q0 -30 -77 -93t-156 -113 t-99 -56z" />
<glyph unicode="&#xfe;" horiz-adv-x="1088" d="M0 -396l140 34l14 176v1312l-14 108l-132 36v42l350 74l20 -24l-22 -184v-392l4 -18h18l240 118q92 -1 169 -39t125.5 -98.5t75 -134t26.5 -148.5q0 -102 -46.5 -193.5t-119.5 -153.5t-163 -98.5t-177 -36.5q-24 0 -50 3.5t-53.5 10t-28.5 6.5l-10 2l-10 -38v-154 l14 -176l134 -34v-42h-504v42zM356 190q0 -71 56 -108.5t122 -37.5q102 0 177 100t75 250q0 174 -73 277t-201 103h-2l-154 -72v-512z" />
<glyph unicode="&#xff;" horiz-adv-x="1058" d="M4 808v46h476l-6 -46l-114 -44l236 -524l186 426l22 82l-140 60v46h394l-2 -46l-156 -66l-338 -716q-50 -109 -87 -176t-89 -136l-140 -126l-240 60l114 186l152 -120q51 28 107 110.5t101 201.5l-348 724zM236 1092q0 43 35 74.5t83 31.5t82 -31t34 -75t-34 -75t-82 -31 t-83 31.5t-35 74.5zM646 1092q0 43 35 74.5t83 31.5t81 -31t33 -75t-34 -75t-82 -31t-82 31t-34 75z" />
<glyph unicode="&#x152;" horiz-adv-x="2316" d="M96 656q0 137 58.5 263t155.5 216.5t227 144.5t267 54q132 0 256.5 -47.5t223.5 -132.5l-6 78l-12 34v46h824l58 -260l-30 -8l-28 12l-146 194h-282l-136 -24l-8 -140v-370l144 -20l238 12l48 134l22 12l26 -10v-364l-24 -6l-24 12l-48 132l-238 14l-144 -24v-348 l12 -170l132 -30h262l126 58l124 196l28 10l46 -10l-114 -314h-866v42l10 32l6 90q-99 -87 -223.5 -135.5t-256.5 -48.5q-92 0 -181.5 23.5t-167.5 66t-144.5 104.5t-114 136t-74 163t-26.5 183zM360 712q0 -97 18 -191t57 -181.5t94.5 -153.5t137.5 -106t179 -40 q86 0 156 33.5t116 88t76.5 128.5t44 151t13.5 159q0 97 -18 191t-57.5 182t-95.5 154.5t-138.5 106.5t-180.5 40q-86 0 -155.5 -33.5t-114.5 -88.5t-75.5 -129t-43.5 -151.5t-13 -159.5z" />
<glyph unicode="&#x153;" horiz-adv-x="1690" d="M80 430q0 192 135.5 324t330.5 132q123 0 223.5 -46.5t164.5 -129.5q62 80 152 122t184 42q77 0 136.5 -17.5t97 -46.5t61.5 -71.5t33.5 -87.5t9.5 -99l-24 -46h-552v-10q0 -81 20.5 -147t53 -109.5t76 -73t87 -42t87.5 -12.5l228 108l20 -62l-192 -144q-77 -30 -148 -30 q-108 0 -201 44.5t-151 123.5q-66 -78 -160 -122t-202 -44q-208 0 -339 126.5t-131 317.5zM308 470q0 -73 16 -146.5t47 -137.5t83 -104t116 -40q63 0 108 32.5t68.5 87.5t33.5 113.5t10 124.5q0 74 -16.5 148t-48 138.5t-83.5 105t-116 40.5q-63 0 -108 -32.5t-67.5 -88 t-32.5 -114.5t-10 -127zM1040 560h338l24 54q0 29 -9 62t-26.5 66t-50 54.5t-74.5 21.5q-45 0 -82 -22.5t-58.5 -55t-36.5 -69t-20.5 -63t-4.5 -38.5v-10z" />
<glyph unicode="&#x178;" horiz-adv-x="1300" d="M-8 1264v48h560l-2 -48l-132 -60l24 -56l284 -472l286 490l12 48l-158 50l-2 48h454l-2 -50l-174 -62l-372 -596l-10 -56v-298l12 -176l142 -34v-40h-532v40l138 34l18 176v304l-18 50l-286 486l-110 126zM330 1560q0 43 35 74.5t83 31.5t82 -31t34 -75t-34 -75t-82 -31 t-83 31.5t-35 74.5zM740 1560q0 43 35 74.5t83 31.5t81 -31t33 -75t-34 -75t-82 -31t-82 31t-34 75z" />
<glyph unicode="&#x2000;" horiz-adv-x="874" />
<glyph unicode="&#x2001;" horiz-adv-x="1748" />
<glyph unicode="&#x2002;" horiz-adv-x="874" />
<glyph unicode="&#x2003;" horiz-adv-x="1748" />
<glyph unicode="&#x2004;" horiz-adv-x="582" />
<glyph unicode="&#x2005;" horiz-adv-x="437" />
<glyph unicode="&#x2006;" horiz-adv-x="291" />
<glyph unicode="&#x2007;" horiz-adv-x="291" />
<glyph unicode="&#x2008;" horiz-adv-x="218" />
<glyph unicode="&#x2009;" horiz-adv-x="349" />
<glyph unicode="&#x200a;" horiz-adv-x="97" />
<glyph unicode="&#x2010;" horiz-adv-x="826" d="M136 422l28 96l518 24l8 -10l-28 -102l-514 -22z" />
<glyph unicode="&#x2011;" horiz-adv-x="826" d="M136 422l28 96l518 24l8 -10l-28 -102l-514 -22z" />
<glyph unicode="&#x2012;" horiz-adv-x="826" d="M136 422l28 96l518 24l8 -10l-28 -102l-514 -22z" />
<glyph unicode="&#x2013;" horiz-adv-x="1230" d="M134 414l28 106h920l10 -10l-20 -98l-10 -8h-920z" />
<glyph unicode="&#x2014;" horiz-adv-x="1970" d="M132 424l28 106h1664l8 -10l-16 -96l-12 -10h-1664z" />
<glyph unicode="&#x2018;" horiz-adv-x="398" d="M96 1110q0 48 20 94t49 78.5t62.5 59t58 40.5t38.5 18l30 -22q-44 -25 -74 -52.5t-42 -51t-16 -37.5t-4 -25l92 -164l-186 -70q-28 46 -28 132z" />
<glyph unicode="&#x2019;" horiz-adv-x="378" d="M90 996q44 25 74 52.5t42 51t16 37.5t4 25l-92 164l186 70q28 -46 28 -132q0 -48 -20 -94t-49 -78.5t-62.5 -59t-58 -40.5t-38.5 -18z" />
<glyph unicode="&#x201a;" horiz-adv-x="390" d="M60 -170q44 25 74 52.5t42 51t16 37.5t4 25l-92 164l186 70q28 -46 28 -132q0 -48 -20 -94t-49 -78.5t-62.5 -59t-58 -40.5t-38.5 -18z" />
<glyph unicode="&#x201c;" horiz-adv-x="654" d="M98 1110q0 48 20 94t48.5 78.5t62 59.5t58 41t39.5 19l28 -44q-136 -79 -136 -146l92 -164l-184 -70q-28 40 -28 132zM418 1110q0 48 20 94t48.5 78.5t62 59.5t58 41t39.5 19l30 -44q-138 -79 -138 -146l92 -164l-182 -70q-30 43 -30 132z" />
<glyph unicode="&#x201d;" horiz-adv-x="654" d="M66 1018q138 79 138 146l-92 164l182 70q30 -43 30 -132q0 -48 -20 -94t-48.5 -78.5t-62 -59.5t-58 -41t-39.5 -19zM388 1018q136 79 136 146l-92 164l184 70q28 -40 28 -132q0 -48 -20 -94t-48.5 -78.5t-62 -59.5t-58 -41t-39.5 -19z" />
<glyph unicode="&#x201e;" horiz-adv-x="718" d="M74 -154q138 79 138 146l-92 164l182 70q30 -43 30 -132q0 -48 -20 -94t-48.5 -78.5t-62 -59.5t-58 -41t-39.5 -19zM396 -154q136 79 136 146l-92 164l184 70q28 -40 28 -132q0 -48 -20 -94t-48.5 -78.5t-62 -59.5t-58 -41t-39.5 -19z" />
<glyph unicode="&#x2022;" horiz-adv-x="712" d="M94 526q0 98 77 168t185 70q107 0 183.5 -70.5t76.5 -167.5t-76.5 -167.5t-183.5 -70.5q-108 0 -185 70t-77 168z" />
<glyph unicode="&#x2026;" horiz-adv-x="1880" d="M112 112q0 48 40 82t94 34t92 -36t38 -84t-38 -84t-92 -36t-94 37t-40 87zM758 112q0 48 40 82t96 34q53 0 90.5 -35.5t37.5 -84.5t-37.5 -84.5t-90.5 -35.5q-55 0 -95.5 37t-40.5 87zM1406 112q0 48 40 82t94 34t92 -36t38 -84t-38 -84t-92 -36t-94 37t-40 87z" />
<glyph unicode="&#x202f;" horiz-adv-x="349" />
<glyph unicode="&#x2039;" horiz-adv-x="712" d="M114 470l2 54l454 310l34 -42l-300 -288l-10 -8l10 -8l300 -288l-36 -44z" />
<glyph unicode="&#x203a;" horiz-adv-x="656" d="M116 200l300 288l10 8l-10 8l-300 288l34 42l454 -310l2 -54l-454 -314z" />
<glyph unicode="&#x205f;" horiz-adv-x="437" />
<glyph unicode="&#x20ac;" horiz-adv-x="1476" d="M36 480l34 66h64l-2 12q-2 14 -2 44q0 42 2 64v10h-96l34 66h76l2 8q56 221 247 362.5t449 141.5q240 0 436 -34l48 -280l-32 -18l-20 6q-7 29 -19 57.5t-43 69t-73.5 70.5t-116.5 51.5t-166 21.5q-99 0 -182.5 -36t-140 -98.5t-93.5 -141t-52 -168.5l-2 -12h448l-16 -66 h-436v-24l4 -106h448l-16 -66h-418l2 -12q20 -90 60 -166t100 -136.5t145 -95t187 -34.5q170 0 276 88q56 45 92.5 110t51.5 116l48 -12l-76 -272q-205 -86 -452 -86q-261 0 -451 138t-239 354l-2 8h-108z" />
<glyph unicode="&#x2122;" horiz-adv-x="1330" d="M12 1182l20 142h10l64 -12h278l66 12h8l20 -142h-32l-34 70l-36 18h-66v-308l4 -62l50 -12v-34h-238v34l54 12l4 62v308h-68l-40 -18l-30 -70h-34zM504 854v34l66 20l12 52l10 274l-4 26l-52 14v38h210l146 -294l14 32l74 180l30 82h220l4 -38l-48 -10l-8 -32l8 -256 l12 -74l52 -12l2 -36h-246l-2 36l54 10l6 30l-10 292l-4 20l-10 -2l-158 -370l-48 -16l-186 400l-12 -308l4 -38l66 -18l2 -36h-204z" />
<glyph unicode="&#x25fc;" horiz-adv-x="850" d="M0 0v850h850v-850h-850z" />
</font>
</defs>
</svg>
