<?xml version="1.0" standalone="no"?>
<!DOCTYPE svg PUBLIC "-//W3C//DTD SVG 1.1//EN" "http://www.w3.org/Graphics/SVG/1.1/DTD/svg11.dtd" >
<svg xmlns="http://www.w3.org/2000/svg">
<metadata></metadata>
<defs>
<font id="coelacanthlightminikin" horiz-adv-x="948" >
<font-face units-per-em="2048" ascent="1559" descent="-489" />
<missing-glyph horiz-adv-x="567" />
<glyph horiz-adv-x="0" />
<glyph horiz-adv-x="682" />
<glyph unicode=" "  horiz-adv-x="567" />
<glyph unicode="&#x09;" horiz-adv-x="567" />
<glyph unicode="&#xa0;" horiz-adv-x="567" />
<glyph unicode="!" horiz-adv-x="544" d="M142 104q0 10 15 21q33 23 48.5 38.5t31.5 45.5q7 15 26 15q15 0 23 -15q34 -57 83 -86q14 -7 14 -21q0 -20 -14 -27q-36 -20 -50.5 -34t-32.5 -46q-7 -14 -23 -14q-17 0 -26 14q-14 22 -21 31.5t-22.5 23.5t-36.5 27q-15 7 -15 27zM185 1338q27 3 54.5 8t47 9.5t39 8.5 t32 5.5t22.5 1t15.5 -6t7.5 -15.5q-7 -21 -11.5 -39.5t-7.5 -44t-4.5 -42.5t-3.5 -59.5t-4 -71.5q-7 -91 -22 -213.5t-23.5 -227t-8.5 -225.5l-96 2q2 404 -13 664q-2 40 -13.5 115t-10.5 131z" />
<glyph unicode="&#x22;" horiz-adv-x="741" d="M125 1430h156q0 -67 -17 -242.5t-19 -271.5h-84q-2 97 -18.5 272.5t-17.5 241.5zM455 1430h155q0 -67 -16.5 -242.5t-18.5 -271.5h-85q-2 96 -18 272t-17 242z" />
<glyph unicode="&#x26;" horiz-adv-x="1384" d="M41 352q0 158 83 274.5t209 175.5q-72 39 -116.5 99t-44.5 135q0 51 18 93.5t43.5 71.5t69 55.5t80 42t90.5 35.5q123 -44 178.5 -117.5t55.5 -187.5q0 -29 -46.5 -93t-109.5 -108q84 -33 178 -131.5t145 -211.5q45 81 91.5 201.5t67.5 204.5q14 62 -124 107l26 80 q77 -31 190 -52.5t199 -19.5l-14 -83q-158 0 -183 -69q-103 -292 -197 -485q46 -147 96 -210t97 -63q29 0 55.5 15.5t48 43t35 50.5t28.5 53l80 -37q-30 -62 -50.5 -96t-53 -68.5t-74.5 -49t-101 -14.5q-76 0 -140 64t-107 167q-12 -11 -43.5 -47.5t-62.5 -65.5t-78 -61 t-111.5 -50.5t-140.5 -18.5q-87 0 -158.5 33t-116 86.5t-68.5 118.5t-24 133zM178 420q0 -147 79.5 -234t209.5 -87q32 0 62 7.5t57.5 25t48 32.5t46 44t38 44.5t37 48t32.5 42.5q-147 316 -354 401q-120 -50 -188 -136t-68 -188zM281 1065q0 -24 8.5 -45t19 -36t31 -31.5 t34 -25t38.5 -23t34 -20.5q129 80 129 152q0 63 -44 113t-109 50q-48 0 -94.5 -38t-46.5 -96z" />
<glyph unicode="'" horiz-adv-x="409" d="M125 1430h156q0 -67 -17 -242.5t-19 -271.5h-84q-2 97 -18.5 272.5t-17.5 241.5z" />
<glyph unicode="(" horiz-adv-x="784" d="M82 438q0 351 160 621.5t448 420.5l40 -76q-263 -137 -398 -389.5t-135 -576.5q0 -326 127 -568t407 -404l-37 -79q-298 165 -455 432t-157 619z" />
<glyph unicode=")" horiz-adv-x="778" d="M53 -532q279 161 404.5 404t125.5 566q0 325 -133 576.5t-396 388.5l40 77q288 -150 446 -420t158 -622q0 -353 -156.5 -619.5t-453.5 -431.5z" />
<glyph unicode="*" horiz-adv-x="741" d="M60 1125q-12 24 4 62.5t33 51.5q63 -16 129.5 -44.5t110.5 -41.5q-6 52 -21 126.5t-20 137.5q19 17 60 15t62 -17q2 -64 -0.5 -135.5t-2.5 -120.5q45 21 111.5 60t125.5 63q20 -9 32.5 -47t2.5 -67q-58 -29 -127.5 -45.5t-114.5 -34.5q34 -39 90.5 -88.5t95.5 -97.5 q-2 -22 -36.5 -45t-61.5 -23q-44 49 -80.5 110t-64.5 97q-25 -42 -55.5 -112t-67.5 -125q-25 -4 -56.5 22.5t-38.5 49.5q34 55 81 109t73 93q-45 14 -122.5 15t-141.5 32z" />
<glyph unicode="+" d="M77 388v114h793v-114h-793zM430 76v736h87v-736h-87z" />
<glyph unicode="," horiz-adv-x="380" d="M62 -161q55 43 85.5 87t14.5 77q-23 50 -77 72q-15 6 -15 25q0 11 15 22q30 21 44 38t34 52q7 15 25 15q10 0 23 -15q26 -32 42.5 -48.5t35.5 -24.5q21 -8 21 -27q2 -65 -58.5 -168.5t-155.5 -162.5z" />
<glyph unicode="-" horiz-adv-x="505" d="M28 503l445 105l4 -115l-445 -105z" />
<glyph unicode="." horiz-adv-x="382" d="M72 104q0 10 15 21q33 23 48.5 38.5t31.5 45.5q7 15 26 15q15 0 23 -15q34 -57 83 -86q14 -7 14 -21q0 -20 -14 -27q-36 -20 -50.5 -34t-32.5 -46q-7 -14 -23 -14q-17 0 -26 14q-14 22 -21 31.5t-22.5 23.5t-36.5 27q-15 7 -15 27z" />
<glyph unicode="/" horiz-adv-x="784" d="M17 -588l661 2072l88 -28l-662 -2072z" />
<glyph unicode="0" horiz-adv-x="1120" d="M141 492q0 36 7.5 77t23.5 87.5t40 90t59.5 84t79 70.5t101.5 48t123 18q91 0 167 -29.5t127.5 -78.5t87 -113t52 -131.5t16.5 -136.5q0 -67 -17 -135.5t-53 -133.5t-85.5 -115t-121 -80.5t-153.5 -30.5q-142 0 -247 70.5t-156 184.5t-51 254zM274 487q0 -67 20.5 -131 t60 -118t105 -87.5t147.5 -33.5q123 0 207.5 107t84.5 248q0 160 -101 265t-225 105q-75 0 -135 -36.5t-94 -92t-52 -114.5t-18 -112z" />
<glyph unicode="1" horiz-adv-x="1015" d="M273 102q77 6 131.5 20.5t57.5 33.5q12 29 16 87.5t4 208.5q1 213 -8 314q-2 39 -31.5 50.5t-144.5 20.5l3 102q104 -7 267 2t228 27v-115q-62 -3 -98.5 -9t-53 -17.5t-21 -22t-5.5 -29.5q-4 -43 -4 -323q0 -229 20 -296q4 -27 37.5 -37t130.5 -15l-6 -101q-245 5 -510 0 z" />
<glyph unicode="2" horiz-adv-x="1329" d="M210 98q32 35 106.5 93t148 115t146 122.5t117.5 137.5t45 138q0 102 -57 151t-137 49q-67 0 -146 -50.5t-143 -125.5l-62 73q35 45 65.5 78.5t81 77t111 67.5t125.5 24q74 0 135 -30t98.5 -77.5t58 -104t20.5 -112.5q0 -80 -49.5 -163.5t-122.5 -150t-147 -122 t-134 -100t-72 -63.5q90 7 210 7t176.5 -2t95.5 3q37 14 67 49.5t61.5 93t41.5 72.5l96 -73q-4 -4 -10.5 -11t-24.5 -32.5t-33.5 -54t-32 -75t-24.5 -96.5q-15 7 -80.5 7t-151 -3.5t-104.5 -3.5h-71h-78h-72.5t-72.5 -1t-58 -2.5t-50 -4t-29 -6.5z" />
<glyph unicode="3" horiz-adv-x="1150" d="M233 827q39 68 139.5 134t190.5 66q114 0 186.5 -73t72.5 -176q0 -69 -17 -128t-45 -100t-53 -67.5t-52 -50.5q-7 -5 -10 -8q243 -130 243 -354q0 -86 -43.5 -170t-108.5 -147.5t-146.5 -119t-150.5 -89.5t-128 -54l-43 86q247 103 361.5 220t114.5 255q0 34 -8 65.5 t-17 53.5t-31 46.5t-33.5 36.5t-42 32.5t-39.5 26t-42 24.5q-30 -18 -93 -47.5t-107 -41.5l-52 72q165 90 220 129q155 110 176 240q3 22 3 45q0 73 -46.5 118.5t-100.5 45.5q-17 0 -34 -2.5t-30.5 -6t-29.5 -11t-26 -12t-24.5 -15.5t-21.5 -16t-21 -18t-18 -17l-17.5 -17.5 l-15.5 -15.5z" />
<glyph unicode="4" horiz-adv-x="1331" d="M76 -8q26 27 200 239t360.5 454t210.5 302l99 -58q-60 -124 -60 -443q0 -88 2 -185.5t2 -189.5h67t47 4t32.5 6.5t25 15t21 20t25 31t33.5 40.5q68 -27 73 -30q-47 -137 -76 -227q-62 21 -248 21q-1 -172 7.5 -255t33.5 -113q-39 -10 -60.5 -38t-39 -65t-38.5 -55 q-107 65 -111 72q50 95 64.5 175.5t15.5 276.5q-104 0 -255 1q-206 1 -244 -3.5t-60 -33.5q-13 -18 -25 -30q-96 62 -102 68zM314 105q65 2 446 2q0 454 -6 565q-268 -349 -440 -567z" />
<glyph unicode="5" horiz-adv-x="1083" d="M230 -344q47 5 106 24.5t129 61t126.5 96.5t95 140.5t38.5 184.5q0 35 -9 69.5t-37.5 76t-74 71.5t-126 48t-184.5 14q22 236 13 493q78 -3 142 -4.5t108.5 -1t71 1.5t55.5 2.5t36 1.5q72 6 140 143q74 -50 78 -52q-9 -15 -26.5 -45t-27 -46.5t-24.5 -41t-25.5 -38 t-22.5 -28t-21.5 -21.5t-18.5 -7q-74 1 -163.5 -1t-185.5 -2q-4 -173 -8 -227q195 13 316.5 -94.5t121.5 -294.5q0 -123 -55.5 -236t-145 -193t-199 -133.5t-220.5 -67.5q1 101 -3 106z" />
<glyph unicode="6" horiz-adv-x="1261" d="M199 487q0 595 604 898q32 -93 39 -101q-278 -157 -391.5 -336.5t-113.5 -455.5q0 -54 19 -119t54 -129t96 -107t135 -43q45 0 89.5 21t81 59t59.5 98t23 131q0 79 -24.5 141.5t-64 97.5t-84 53t-89.5 18q-97 0 -164 -93l-59 57q85 161 239 161q153 0 256.5 -125.5 t103.5 -298.5q0 -174 -117.5 -302.5t-278.5 -128.5q-88 0 -160.5 34.5t-118 88t-77 122.5t-44.5 134t-13 125z" />
<glyph unicode="7" horiz-adv-x="1153" d="M109 693q108 242 126 328l67 -40q-14 1 -13 -4q1 -11 46 -21q26 -5 55 -6q175 -3 359 -2t219 4q30 -86 36 -92q-36 -60 -318 -601.5t-300 -591.5h-163q235 456 608 1121q5 10 -2.5 20t-22.5 11q-134 7 -280 6q-51 -1 -78.5 -1.5t-61.5 -3.5t-50.5 -7.5t-38.5 -13.5 t-32.5 -21t-25 -31t-24.5 -41.5t-22 -55.5q-78 41 -84 43z" />
<glyph unicode="8" horiz-adv-x="1103" d="M171 331q0 64 30 124t78.5 108t106.5 93.5t116.5 88.5t107 85.5t78.5 93t30 102.5q0 102 -57 161t-147 59q-64 0 -106.5 -54.5t-42.5 -139.5q0 -58 30.5 -109.5t80 -91t109 -78.5t118.5 -81.5t108.5 -89t80 -111.5t30.5 -141q0 -70 -22.5 -133.5t-68 -118t-125 -86.5 t-183.5 -32q-155 0 -253.5 96.5t-98.5 254.5zM230 997q0 87 29.5 156.5t75 108t95 58.5t95.5 20q50 0 101.5 -12t75.5 -36q126 -91 126 -243q0 -64 -29.5 -123t-77.5 -105t-105 -90t-114.5 -87t-105.5 -86.5t-77.5 -98t-29.5 -112.5q0 -26 6.5 -56.5t25 -69.5t47 -69.5 t79 -51.5t114.5 -21q113 0 172 71.5t59 174.5q0 24 -4 47t-9 41t-17.5 38t-20.5 33t-27.5 31.5t-29.5 27.5t-35.5 28t-36 26.5t-41 28t-40.5 27.5q-39 27 -55 38t-55.5 41t-59 48t-49 48.5t-44.5 55t-26.5 54.5t-11.5 59z" />
<glyph unicode="9" horiz-adv-x="1056" d="M81 541q9 174 133 296t285 114q88 -5 158.5 -43t113 -94.5t70.5 -126.5t37.5 -136t6.5 -126q-31 -594 -650 -865q-27 94 -34 103q286 142 409 315.5t137 449.5q2 41 -6.5 92.5t-30.5 107t-54 101.5t-82.5 77.5t-109.5 34.5q-61 3 -119.5 -29t-101.5 -102.5t-48 -164.5 q-4 -79 17 -142.5t58.5 -100.5t81.5 -57.5t89 -22.5q97 -5 169 84l55 -59q-92 -157 -246 -148q-101 5 -181.5 68t-121.5 162t-35 212z" />
<glyph unicode=":" horiz-adv-x="413" d="M87 104q0 10 15 21q32 22 47.5 38t31.5 46q7 15 27 15q16 0 23 -15q34 -57 83 -86q13 -7 13 -21q0 -20 -13 -27q-36 -20 -50.5 -34t-32.5 -46q-7 -14 -23 -14q-18 0 -27 14q-15 23 -21 31.5t-21.5 23t-36.5 27.5q-15 7 -15 27zM87 702q0 10 15 21q32 22 47.5 38t31.5 46 q7 15 27 15q16 0 23 -15q34 -57 83 -86q13 -7 13 -21q0 -20 -13 -27q-36 -20 -50.5 -34t-32.5 -46q-7 -14 -23 -14q-18 0 -27 14q-15 23 -21 31.5t-21.5 23t-36.5 27.5q-15 7 -15 27z" />
<glyph unicode=";" horiz-adv-x="415" d="M79 -161q55 43 85 87t14 77q-23 50 -76 72q-15 6 -15 25q0 11 15 22q30 21 43.5 37.5t33.5 52.5q7 15 25 15q10 0 23 -15q26 -32 42.5 -48.5t35.5 -24.5q21 -8 21 -27q2 -65 -58.5 -168.5t-155.5 -162.5zM89 702q0 11 14 21q33 23 48.5 38.5t31.5 45.5q7 15 26 15 q17 0 24 -15q34 -57 83 -86q13 -7 13 -21q0 -20 -13 -27q-36 -20 -50.5 -34t-32.5 -46q-7 -14 -24 -14t-26 14q-14 22 -21 31.5t-22.5 23.5t-36.5 27q-14 7 -14 27z" />
<glyph unicode="&#x3c;" d="M111 414l663 427l59 -97l-498 -320l479 -328l-77 -107z" />
<glyph unicode="=" d="M77 243v113h793v-113h-793zM77 534v113h793v-113h-793z" />
<glyph unicode="&#x3e;" d="M116 86l497 319l-478 328l76 108l627 -425l-664 -427z" />
<glyph unicode="?" horiz-adv-x="774" d="M59 1409.5q5 7.5 19.5 11.5t51.5 7q10 -35 19 -54.5t22 -27.5t22 -9.5t32 -1.5q118 0 223.5 -51.5t173.5 -150.5t68 -222q0 -81 -18.5 -145t-44.5 -100.5t-62 -63.5t-62 -37t-54.5 -17.5t-29.5 -8.5q-61 -32 -67 -158q-60 -1 -82 -1q-6 71 -8 104.5t-1 81t12 72.5t31 35 q13 5 53.5 9t79.5 12.5t79 27.5t65 63.5t25 111.5q0 157 -145 226t-377 41q4 55 -0.5 103t-11 72.5t-12.5 43.5t-1 26.5zM189 104q0 10 15 21q32 22 47.5 38t31.5 46q7 15 27 15q16 0 23 -15q34 -57 83 -86q13 -7 13 -21q0 -20 -13 -27q-36 -20 -50.5 -34t-32.5 -46 q-7 -14 -23 -14q-18 0 -27 14q-15 23 -21 31.5t-21.5 23t-36.5 27.5q-15 7 -15 27z" />
<glyph unicode="@" horiz-adv-x="1642" d="M54 322q0 175 67.5 334.5t181.5 274.5t271.5 183.5t330.5 68.5q122 0 238 -42t206.5 -117t145.5 -188.5t55 -245.5q0 -77 -25 -153.5t-65 -138t-80 -107.5t-81 -79q-60 -49 -142 -85.5t-163 -36.5q-49 0 -73.5 27.5t-24.5 69.5t5 92q-70 -66 -150 -113.5t-133 -47.5 q-88 0 -144 58t-56 141q0 154 90.5 294t203.5 190q38 18 85 29.5t122.5 25.5t119.5 24q20 4 36.5 20t24.5 33l114 7q-10 -19 -31 -63.5t-33 -67.5q-15 -35 -28 -73.5t-25 -85t-19.5 -77.5t-20.5 -87t-18 -78q-25 -117 -25 -154q0 -54 26 -54q37 0 93.5 26.5t116.5 76.5 q78 73 127.5 170.5t49.5 211.5q0 116 -46 211t-123 155.5t-176 93.5t-208 33q-136 0 -260 -56.5t-216 -155.5t-146.5 -240.5t-54.5 -303.5q0 -131 53.5 -245.5t142.5 -191.5t204 -121t237 -44q170 0 318.5 77t261.5 209l76 -60q-121 -145 -300 -244t-375 -99q-145 0 -281 51 t-243 142t-172 228.5t-65 297.5zM563 281q0 -59 27 -100t81 -41q91 0 243 154q7 28 25 93.5t25 97.5q18 75 21 114q12 48 14 71q-16 6 -36 6q-36 0 -113 -25.5t-114 -50.5q-72 -48 -122.5 -131.5t-50.5 -187.5z" />
<glyph unicode="A" horiz-adv-x="1409" d="M51 79q95 15 120 26t43 52q64 148 131 316t105.5 270.5t109 292t93.5 251.5q8 22 13 37.5t8.5 30.5t5 24t4 29t4.5 34l99 1q15 -94 34 -155q108 -347 193 -589.5t216 -575.5q5 -13 12 -20.5t22 -12t24.5 -6t38 -3.5t44.5 -4q-1 -12 -4 -47t-4 -52q-9 1 -56 5t-58 4.5 t-48.5 2.5t-54.5 1t-47.5 -3.5t-56 -8t-53.5 -13.5l-26 103q12 3 29.5 6t27 4.5t20 5.5t14.5 10t4 16t-6 25q-20 47 -37 94t-38.5 107.5t-35.5 99.5q-194 -3 -343 -3q-75 0 -138 1q-30 -80 -109 -277q-16 -41 3 -52t100 -20q25 -3 39 -5l-7 -115q-88 24 -210 26q-9 0 -19 1 q-110 0 -192 -17q-5 45 -14 103zM493 531q14 0 35 -1q66 0 196 6q170 6 193 6q-27 79 -96.5 278.5t-105.5 309.5q-91 -255 -222 -599z" />
<glyph unicode="B" horiz-adv-x="1331" d="M141 1308l20 113q11 -2 46.5 -9t73 -10.5t96.5 -3.5q52 0 144.5 10t140.5 10q103 0 184.5 -33.5t130 -88.5t74 -120.5t25.5 -134.5q0 -106 -60.5 -177.5t-182.5 -102.5q171 -23 271.5 -130t100.5 -243q0 -180 -150 -292t-381 -112q-49 0 -139 5t-147 5q-71 0 -233 -9 l-7 112q129 2 143 6q15 5 17 13q1 4 1 485q0 617 -12 657q-1 4 -2 9.5t-1 8t-1.5 6.5t-3.5 5t-5 3t-8 3t-12 1q-27 2 -123 14zM467 689q1 -106 1 -291.5t1 -245.5v-18.5t1.5 -13.5t2 -10t5 -6.5t6 -4.5t9.5 -2t12 -0.5t17 0.5h21q7 0 34.5 -0.5t65 -1.5t61.5 -1 q96 0 173.5 32t126.5 102t49 167q0 55 -22 106t-66.5 95.5t-123.5 71t-183 26.5q-12 0 -94.5 -2.5t-96.5 -2.5zM469 786q192 0 223 4q235 35 235 212q0 36 -6 73t-24.5 80.5t-47 76.5t-78 55t-113.5 22q-87 0 -117 -10q-23 -4 -38 -12.5t-21 -21.5t-7.5 -22t-2.5 -24 q-5 -76 -5 -217q0 -94 2 -216z" />
<glyph unicode="C" horiz-adv-x="1482" d="M89 677q0 92 21.5 182.5t63 174.5t106 155.5t145 125t186.5 84t225 30.5q98 0 165 -11t160 -40q47 -13 63.5 -17t37 -1.5t35.5 17.5l80 -39q-26 -50 -37 -89q-12 -39 -12 -75v-26q0 -27 1 -60q2 -41 -19.5 -55t-78.5 -16q-17 48 -21.5 100t-8.5 77t-25 32 q-86 46 -161.5 64.5t-180.5 18.5q-119 0 -224.5 -43t-184.5 -120.5t-125 -194t-46 -255.5q0 -144 51 -265t136.5 -200.5t195 -123.5t228.5 -44q343 0 433 295l92 -23q-5 -45 -15.5 -85.5t-32 -101.5t-27.5 -80q-121 -63 -221.5 -96t-225.5 -33q-168 0 -313.5 57t-247 156 t-160 235t-58.5 290z" />
<glyph unicode="D" horiz-adv-x="1613" d="M115 1270l5 122q31 -2 75 -6t76 -5.5t73 -1.5q86 0 215 13t211 13q69 0 142 -13t148 -41t145 -68.5t131 -98.5t106.5 -127t71.5 -159t26 -190q0 -162 -48.5 -290t-128 -209t-188 -135t-220 -75.5t-232.5 -21.5q-69 0 -179 5.5t-184 5.5q-100 0 -232 -22l-8 122 q90 6 122.5 12t33.5 19q2 145 2 320q0 131 -1 279q-3 346 -9 531q0 7 -8.5 11t-26 5.5t-33 2t-43 1t-42.5 1.5zM439 1228q-6 -237 -6 -449q0 -353 16 -635v-11.5t1 -10.5t3.5 -8.5t9.5 -5.5t18 -3h73.5h99.5h95q185 0 329.5 67t229 200t84.5 313q0 267 -180 434t-492 167 q-61 0 -135.5 -3t-112.5 -3q-25 0 -28.5 -6t-4.5 -46z" />
<glyph unicode="E" horiz-adv-x="1363" d="M134 1274l15 117q197 -8 531 -7h42q364 0 422 12q38 -29 47.5 -52t2.5 -45t-20.5 -84.5t-16.5 -137.5l-95 -7q-2 28 0.5 60.5t5.5 53t3 39.5t-9 28t-28 10q-202 16 -381 16q-74 0 -144 -3q-33 -1 -41.5 -7t-8.5 -31q0 -256 -3 -473q48 1 170 1h204q27 0 49 -1q42 0 59 1 q9 0 14 5.5t9.5 18t7.5 26.5t9.5 40t14.5 50l106 -22q-29 -92 -31 -180v-15q0 -81 19 -170l-100 -31q-10 34 -17 65.5t-9 49t-4 31t-5.5 18.5t-11.5 5q-136 -4 -284 -4q-99 0 -203 2q0 -77 -1 -253v-150v-97q0 -28 9 -34.5t42 -6.5h141q154 0 359 1q51 0 80 45.5t89 193.5 l97 -23q-14 -57 -42.5 -156t-44.5 -172q-53 -1 -129 -1q-89 0 -210 2q-98 2 -185 1q-111 -1 -203 -3q-164 -4 -282 -25l-30 108q78 9 112.5 19.5t34.5 27.5v1122q0 11 -29 14.5t-95 6.5h-11t-10 0.5t-11 0.5z" />
<glyph unicode="F" horiz-adv-x="1257" d="M128 1289l18 110q172 -7 356 -9q44 -1 89 -1q142 0 291 6q195 8 222 31q22 -8 35.5 -16.5t20.5 -23.5q8 -16 10 -30q2 -10 2 -27v-15q-1 -28 -3 -53.5t-5 -71t-4 -87.5l-99 -7q-3 16 -6 36t-5 33t-4.5 28t-4.5 24.5t-5 19.5t-6.5 15.5t-8 10t-10 5.5t-12.5 0 q-30 1 -109 5.5t-130.5 7t-139.5 3.5h-28q-68 0 -108 -4q-11 0 -14.5 -9t-3.5 -34v-60q0 -117 2 -393q69 0 173.5 -0.5t186.5 -1.5t86 -1q5 0 8.5 1t7 3.5t6 5t5.5 8.5t5 11.5t5.5 15.5t6.5 19l8 24t9 28l115 -22q-30 -92 -30 -161q0 -70 24 -173l-113 -30q-11 31 -18 60.5 t-9.5 45t-6 28t-8.5 16.5t-15 3q-24 1 -105 1.5t-172 2t-167 5.5q0 -348 4 -533q1 -22 8 -25.5t38 -2.5q10 2 38 2q14 -1 33 -1q56 -2 123 -9l-20 -126q-140 28 -271 28q-123 0 -237 -25l-29 120q25 4 55 7.5t43.5 5t27 5.5t18.5 11t5 19q1 89 1 306q-1 109 -1 249 q0 422 -1 563q1 6 -14 9q-10 3 -157 14h-6z" />
<glyph unicode="G" horiz-adv-x="1564" d="M89 692q0 208 110.5 381t287.5 268.5t376 95.5q198 0 331 -79q29 -14 33.5 -10t3.5 37v35l90 -3l36 -371l-98 -23q-5 13 -14.5 41.5t-14.5 43t-17 40.5t-22 40.5t-27.5 36t-37 33.5t-47.5 26t-60.5 21.5t-75 12.5t-92.5 5q-121 0 -229.5 -45t-187 -123t-124 -187.5 t-45.5 -232.5q0 -143 53 -268t144 -213.5t218 -139t270 -50.5q61 0 119.5 15t142.5 45q15 3 15 33q0 15 1 168q1 92 1 162v84v10q0 28 -8.5 32.5t-63.5 3.5h-2.5h-2.5q-95 1 -202 10l8 114q166 -20 302 -20q113 0 206 14l9 -94q-49 -3 -65 -10.5t-16 -32.5q-2 -95 -3.5 -245 t-2.5 -200q2 -6 0 -9t1 -7t2.5 -5.5t4 -4t5.5 -3.5t7.5 -3t9.5 -3t11.5 -3t13.5 -4l-7 -73q-47 -8 -170.5 -33t-216 -39.5t-149.5 -14.5q-163 0 -312 57t-259 154.5t-175 236t-65 293.5z" />
<glyph unicode="H" horiz-adv-x="1742" d="M93 96q30 5 57 6q10 0 18 -2q34 -2 57.5 1.5t23.5 19.5q10 272 13 656q1 89 1 162q0 243 -8 312q-1 8 -7.5 13t-22 8t-29.5 4t-43 3.5t-51 4.5l8 115q122 -24 247 -24q108 0 220 18l7 -112q-31 -6 -70.5 -8.5t-61.5 -4.5t-27 -8q0 -16 -3.5 -111.5t-6.5 -199t-3 -189.5 l946 -2q0 16 -8 495q-5 16 -19 19.5t-57 5.5t-82 9l14 111q102 -20 189 -20h13q92 2 218 34l23 -112q-25 -10 -59 -14t-51.5 -8.5t-17.5 -17.5q-9 -230 -12 -636q-1 -135 -1 -236q0 -202 4 -266q0 -12 16 -15t55.5 -3.5t70.5 -5.5l-12 -128q-113 16 -214 16q-110 0 -205 -19 q-4 22 -22 120q25 3 55 6t43.5 4.5t28 5t19.5 10t5 18.5q6 140 6 511l-943 -2q0 -57 -1 -170.5t-1 -198t2 -139.5q1 -22 24 -28q21 -6 62 -6h7t8 1q40 0 63 -5l-11 -125q-132 21 -237 21h-6q-102 0 -212 -17z" />
<glyph unicode="I" horiz-adv-x="907" d="M119 86q46 3 97 4t77.5 1t50.5 2.5t33 10t10 22.5q7 250 7 590q0 20 1 39q0 313 -8 503q3 11 -9.5 18t-40.5 11t-56.5 6t-72.5 4.5t-75 5.5l12 122q176 -35 310 -35q1 0 3 1q134 0 325 27l9 -125q-30 -3 -59 -3h-15q-36 1 -66.5 1.5t-53 0t-34.5 -7.5t-10 -22 q-18 -427 -18 -761q0 -211 7 -384q0 -4 3 -7.5t9 -6t13.5 -4.5t20.5 -3.5t25.5 -2t32.5 -1.5t38 -2t45.5 -2.5t52.5 -2.5l-5 -115q-165 22 -318 22q-170 0 -326 -27z" />
<glyph unicode="J" horiz-adv-x="823" d="M80 -411q95 57 127 85q17 15 36 35q61 65 88.5 167.5t29.5 270.5v26q0 107 -5 547q-6 512 -9 536q-1 12 -10.5 19t-31 9.5t-45 3.5t-66 3.5t-79.5 6.5l11 120q106 -25 208 -30q40 -1 75 -1q54 0 95 4q69 7 207 27l7 -125q-23 -2 -57.5 -4t-57 -4t-46 -5t-35 -8t-11.5 -12 q-5 -66 -7.5 -134.5t-3.5 -158t-2 -143.5v-72.5v-105.5q1 -124 1 -174q0 -127 4 -248q3 -98 3 -141v-18q0 -155 -60.5 -263.5t-168.5 -201.5q-51 -46 -132 -105q3 0 3 3q0 13 -68 91z" />
<glyph unicode="K" horiz-adv-x="1484" d="M108 88q37 2 65.5 2t48 -1t31.5 0t16.5 5t3.5 14q8 394 8 715q0 222 -4 408q1 26 -0.5 38t-14.5 18.5t-26.5 7t-50.5 3.5t-72 9l20 100q102 -20 215.5 -20.5t239.5 20.5l12 -109q-24 -3 -49 -5t-39.5 -3t-29 -2.5t-22 -3t-14 -5t-8.5 -9t-2 -14.5q-8 -304 -9 -496 q43 40 148.5 137.5t187 174t149.5 142.5q11 10 24 21t20.5 17.5t14 12.5t10 9.5t3.5 6.5q0 2 -15 3.5t-52.5 4t-72.5 6.5l7 102q72 -11 146 -11q128 0 265 32l25 -109q-24 -5 -58.5 -12t-45 -9.5t-29.5 -9.5t-31.5 -16t-31.5 -26q-288 -252 -556 -503l658 -566 q30 -23 52.5 -38t48 -26t35 -14.5t44.5 -13t46 -12.5l-14 -87q-132 16 -205 16q-62 0 -186 -19l-17 97q55 8 56 15q0 6 -8 13q-166 135 -618 523q0 -331 6 -485q0 -11 2.5 -18.5t9 -12.5t14.5 -8t24 -6t31 -5.5t41.5 -6.5t51.5 -9l-13 -105q-118 23 -220 27q-17 1 -34 0 q-92 0 -223 -15z" />
<glyph unicode="L" horiz-adv-x="1304" d="M99 1287l9 133q124 -36 268 -36q125 0 265 27l9 -117q-50 -7 -97 -8.5t-68.5 -1.5t-40 -0.5t-23.5 -10.5t-7.5 -24.5t-1.5 -50.5q4 -58 4 -503q0 -89 1 -161q0 -287 -2 -296q1 -85 7.5 -105t35.5 -19h36q80 0 230 3q187 4 248 8q5 0 13 1q64 7 80 18q18 14 37 73 q2 9 9 31q18 59 31 100l108 -22q-1 -44 -6.5 -73.5t-14 -50.5t-25 -86t-33.5 -160q-12 4 -39 14.5t-52 15.5t-67 6q-92 4 -371 4q-157 0 -262 -3t-140.5 -6t-65 -6t-52.5 -3l-12 120q83 3 115.5 9.5t33.5 26.5q2 31 2 200q0 112 -1 285q-4 568 -8 632q0 9 -2 14.5t-7 9 t-11.5 4.5t-19.5 2t-27 1t-38 1.5t-48 3.5z" />
<glyph unicode="M" horiz-adv-x="1982" d="M75 83q114 12 159.5 22t60 24.5t14.5 48.5q0 1 10.5 244.5t20.5 486.5t10 246q2 22 2 40q0 70 -31 80q-56 22 -224 24l20 126q169 -28 337 -28h22q18 0 31.5 -8t19.5 -17t11.5 -20t6.5 -12q170 -401 478 -1061q-1 6 128.5 276t260.5 538l130 268q21 41 62 41h7 q34 -3 76 -3q84 0 200 12l13 -122q-33 -3 -65.5 -4.5t-53 -1t-39.5 0.5t-29.5 -1t-18.5 -5.5t-10.5 -13.5t-1.5 -24v-28q0 -194 12 -550q14 -383 16 -487q0 -13 2 -21t5 -14t11 -9t16 -5t25 -3t33 -2t44.5 -3t55.5 -4l-5 -128q-122 27 -245 27q-133 0 -269 -31l-17 119 q31 7 64 13t51 8.5t36.5 6.5t27 10.5t15 17.5t8.5 29q1 76 1 161q0 327 -21 782q-59 -125 -200.5 -417.5t-207.5 -431.5q-51 -113 -96 -272h-104q-11 140 -84 292q-4 4 -195.5 423.5t-189.5 430.5q-30 -425 -37 -952q0 -11 -1 -29q-1 -49 7 -58q10 -9 58 -13q66 -5 121 -14 l-16 -120q-127 25 -252 25q-132 0 -263 -28z" />
<glyph unicode="N" horiz-adv-x="1814" d="M104 1294l4 126q26 0 117.5 -8.5t131.5 -9.5q37 -1 68 -35q496 -564 1031 -1114q10 697 10 901q-1 52 -7 83t-14.5 46.5t-29 21t-40 5.5t-58 1.5t-72.5 7.5l14 123q158 -27 329 -27q72 0 147 5l14 -112q-40 -4 -69 -4h-19q-35 2 -51.5 0.5t-16.5 -12.5 q-28 -492 -28 -1121q0 -68 21 -178l-114 -34q-58 127 -179 257q-99 107 -271.5 299.5t-319.5 352t-279 293.5q0 -45 -4 -465.5t-6 -428.5v-40q1 -27 1 -45q2 -31 9.5 -50.5t17.5 -25.5t32.5 -8.5t45.5 -0.5q12 1 28 1t37 -1q42 -2 84 -9l-25 -138q-53 22 -104 33 q-49 11 -102 11h-5q-56 0 -90 -3.5t-101 -13t-95 -12.5l-16 136h47t36.5 -1t27 -0.5t19 2t12 7t7 13.5t2.5 22q12 311 12 1054q0 46 -11 66q-12 20 -52 28q-22 5 -58 5q-29 0 -68 -3z" />
<glyph unicode="O" horiz-adv-x="1634" d="M90 683q0 148 59.5 287.5t158 242t232.5 164.5t276 62t275.5 -60t233 -161t160 -242.5t60.5 -295.5q0 -147 -58 -282.5t-154.5 -233.5t-227.5 -156t-272 -58q-107 0 -214 32t-202 95.5t-168 150t-116 204.5t-43 251zM247 695q0 -121 47.5 -234.5t126.5 -197.5t188.5 -135 t227.5 -51q113 0 214.5 52t172 137.5t111.5 196.5t41 226q0 154 -75.5 296t-211.5 233t-296 91q-145 0 -271 -82t-200.5 -224t-74.5 -308z" />
<glyph unicode="P" horiz-adv-x="1329" d="M127 1275l9 124q108 -11 204 -11q69 0 166.5 11t164.5 11q116 0 219 -41t172.5 -108.5t110 -154.5t40.5 -179q0 -64 -19.5 -128t-65 -127.5t-111.5 -112t-168.5 -78.5t-226.5 -30q-75 0 -142 25q1 -81 4.5 -208.5t3.5 -140.5q0 -21 23 -25.5t72.5 -6.5t86.5 -13l-11 -117 q-125 33 -217 33h-8q-95 -2 -246 -47l-43 106q39 12 75.5 20t54 10t31.5 6t18 10.5t4 19.5q1 88 1 187q0 198 -4 438q-6 360 -19 507q-1 15 -31 17.5t-148 2.5zM475 583q61 -24 162 -24q180 0 303 102t123 258q0 99 -60.5 190t-139.5 129q-88 44 -280 44q-39 0 -68 -5 t-41 -11t-12 -13z" />
<glyph unicode="Q" horiz-adv-x="1548" d="M93 720q0 153 51.5 287t140 228t210.5 148t259 54q139 0 266 -56.5t219 -151.5t146.5 -226.5t54.5 -276.5q0 -160 -53.5 -309.5t-158 -262.5t-239.5 -152q143 -125 297 -186.5t300 -61.5q143 0 223 25l29 -86q-139 -57 -284 -57q-153 0 -286 40.5t-232.5 104 t-220.5 167.5h-16q-155 0 -287 58q-137 60 -228 165.5t-141 247t-50 301.5zM265 683q0 -134 43 -250.5t114.5 -195.5t164.5 -124t192 -45q100 0 190.5 48t156 129.5t104 195t38.5 238.5q0 152 -41.5 276.5t-111.5 204.5t-160 123t-190 43q-139 0 -254 -84.5t-180.5 -232 t-65.5 -326.5z" />
<glyph unicode="R" horiz-adv-x="1607" d="M115 1288v111q174 -4 218 -4q61 0 158 20.5t175 20.5q128 0 242.5 -49.5t186 -139t71.5 -196.5q0 -127 -87.5 -221t-226.5 -139q198 -354 359.5 -501t359.5 -153l-23 -111q-101 2 -206 47.5t-195 120.5t-172.5 171.5t-145.5 200t-107 206.5q-39 -3 -68 -3 q-51 0 -127.5 3.5t-95.5 3.5q0 -64 2 -174.5t2 -196.5t-4 -159q0 -12 2.5 -20t9.5 -13t15.5 -7.5t24 -4t30.5 -2.5t39.5 -3.5t46.5 -5.5l-22 -124q-110 34 -225 34q-102 0 -206 -27l-23 123q62 4 94.5 10.5t39.5 12t8 15.5q4 116 6 223t3 176q1 46 1 111q-1 32 -1 69 q0 111 -0.5 155.5t-2 186.5t-2.5 195q-1 17 -10.5 24.5t-29.5 9.5t-70 3q-28 0 -44 1zM428 1271q4 -37 4 -243q0 -103 -1 -247q25 -1 66 -2.5t76 -2.5t69 -1q101 0 178 22.5t120.5 61.5t64.5 84t21 96q0 104 -95.5 193t-242.5 89q-95 0 -180.5 -15.5t-79.5 -34.5z" />
<glyph unicode="S" horiz-adv-x="1198" d="M86 433l107 16q16 -47 31.5 -96t22 -71.5t15 -44.5t15 -31.5t15.5 -16.5q48 -36 149.5 -64.5t188.5 -28.5q84 0 146 23t96 63t50 87.5t16 103.5q0 35 -13.5 67.5t-33.5 57.5t-56 51t-66.5 43.5t-81.5 39t-84 34t-89 33.5q-114 37 -169 71q-166 100 -166 293 q0 68 32.5 136.5t90.5 124t147.5 90.5t193.5 35q178 0 280 -61l6 -3q13 -8 17 -3q1 3 6 16q5 17 10 30l99 -24q-13 -64 -19 -96q-4 -22 -4 -45v-21q2 -34 5.5 -44.5t17.5 -60.5q6 -23 6 -40q1 -29 -17 -43q-19 -15 -54 -16q-17 0 -37 4q-13 38 -18.5 72t-10.5 52t-21 38 q-37 52 -111 87.5t-170 35.5q-133 0 -219.5 -70t-86.5 -189q0 -36 6.5 -64t17 -49t33 -39.5t44.5 -32t61 -30t73.5 -29.5t92 -35.5t106.5 -42.5q76 -29 135 -70t93.5 -82t56.5 -86t29.5 -80t7.5 -68q0 -53 -14 -104.5t-49 -104t-87.5 -91.5t-135.5 -63.5t-187 -24.5 q-154 0 -314 66q-14 -4 -21.5 -13.5t-12.5 -37.5l-101 10q2 38 3.5 62.5t-1 55t-3.5 43t-10 51.5t-13 53.5t-20.5 76t-25.5 94.5z" />
<glyph unicode="T" horiz-adv-x="1472" d="M6 1164q24 44 76 157t70 146q49 -76 91 -76q5 0 9 1q156 0 515 -2q215 -1 370 0h178q8 0 14.5 0.5t13 3.5t10 4.5t9 6.5t6.5 6.5t8 8.5l6 7l80 -52q-23 -52 -34.5 -82t-24 -80.5t-12.5 -93.5l-123 18q2 16 13 63.5t19 65.5q-35 -1 -62 -1q-14 1 -24 1q-32 0 -163.5 1.5 t-233.5 2.5q-2 -782 -4 -1101q-1 -52 4 -60q8 -10 55 -11q103 -2 182 -11l-15 -127q-105 28 -246 28q-31 0 -64 -2q-182 -8 -301 -47l-21 135q35 4 71.5 8t59 5.5t44.5 4t34.5 5t22 6.5t13 9.5t3.5 13.5q4 977 7 1146q-11 -1 -70 -1q-44 1 -115 1q-165 2 -192 1h-17 q-31 0 -42 -1t-23.5 -10.5t-22.5 -28.5t-27 -56q-17 -38 -29 -62z" />
<glyph unicode="U" horiz-adv-x="1681" d="M75 1290l12 117q87 -13 237 -14h21q137 0 235 12l13 -110q-26 -3 -53.5 -4.5t-43 -2t-31 -2t-22.5 -3.5t-13.5 -6.5t-8.5 -11t-3 -17.5q-14 -413 -17 -721v-8q0 -175 87 -274q119 -138 427 -138q26 0 56 4t77 15t96.5 39.5t87.5 70.5q88 96 101 283q5 86 7 210 q1 62 1 139q-1 76 -1 168q-2 183 -1 214q0 11 -2 17.5t-7.5 11t-13 5.5t-21.5 2t-28.5 1t-39.5 0.5t-50 2.5l3 117q94 -17 228 -19q14 0 27 -1q113 0 170 20l9 -122q-25 -2 -53.5 -2.5t-41.5 -1t-26 -2.5t-17 -6t-4 -13q5 -138 5 -338q0 -177 -4 -403q-4 -222 -142 -373 q-159 -174 -468 -174q-330 0 -487 170q-118 126 -127 353q-2 28 -2 141q-1 94 1 247q2 336 12 356q5 29 -15.5 35.5t-130.5 13.5q-25 1 -39 2z" />
<glyph unicode="V" horiz-adv-x="1677" d="M35 1273l18 113q73 -14 137 -20q54 -5 85 -5h11q32 1 112.5 7.5t123.5 9.5l-3 -120q-101 -2 -114 -5q-19 -4 -20.5 -9t7.5 -27q1 -5 240 -504t242 -511q18 45 220 524.5t208 488.5q17 26 14.5 30t-22.5 6q-13 3 -64.5 8t-65.5 7l3 130q96 -25 232 -25q7 1 15 1 q146 2 215 29l16 -129q-40 -10 -79 -16.5t-57.5 -9t-35.5 -7t-25.5 -13t-15.5 -25.5q-33 -62 -210 -457t-268 -615q-23 -57 -53 -178l-109 -1q-4 26 -9.5 47t-9 31t-17 42.5t-20.5 50.5q-73 178 -223.5 491.5t-298.5 588.5q-11 22 -17.5 31.5t-19.5 15.5t-25 7t-46.5 6 t-70.5 12z" />
<glyph unicode="W" horiz-adv-x="2238" d="M33 1282l21 122q82 -42 244 -42t254 37l23 -123q-31 -8 -62.5 -11.5t-48 -4t-30.5 -3t-19.5 -9t-5.5 -21.5q0 -21 18 -70q0 -6 90.5 -243.5t183 -480.5t96.5 -255q4 12 147 388t146 388q-67 181 -135 301q-6 10 -20 15t-29 6.5t-46 4.5t-55 7l20 105q77 -23 211 -23h6 q138 0 232 29l14 -117q-10 -2 -58 -7t-62 -9q-17 -2 -20.5 -8t0.5 -36q0 5 170 -425t235 -595q120 383 327 955q8 19 11.5 33.5t1.5 25.5t-5.5 18t-14.5 12.5t-21 8.5t-29.5 5.5t-35.5 3.5t-44 3.5t-50 4.5l5 115q71 -15 191 -15h29q141 2 274 25l19 -104q-29 -10 -61 -18 t-45.5 -12.5t-30 -13t-28 -26t-26 -45t-35.5 -76.5q-128 -330 -235 -631.5t-137 -378.5q-22 -50 -28.5 -69t-14.5 -61l-109 -5q-5 51 -11 78t-29 94q-42 117 -136 355.5t-136 356.5q-294 -769 -287 -780q-23 -65 -29 -112h-100q-5 23 -9.5 39.5t-12.5 39.5t-14.5 39.5 t-23 59t-30.5 79.5q-35 89 -71.5 181.5t-68.5 170t-63.5 154.5t-57 136t-48.5 113t-37.5 87.5t-25.5 58t-11 25.5q-17 41 -64 95q-17 17 -35.5 26.5t-32.5 12t-43 7t-52 9.5z" />
<glyph unicode="X" horiz-adv-x="1593" d="M106 1283l1 92q156 -9 224 -9h19q64 2 213 26l5 -110q-47 -15 -96 -20q-9 -1 -10 -15.5t4 -19.5q1 0 86.5 -104.5t171.5 -210.5t88 -107q13 21 72 110.5t113 172.5t73 114q11 16 15.5 22.5t5 12.5t-4.5 7.5t-17 2.5q-107 8 -132 22l16 103q123 -15 215 -15q8 1 16 1 q96 2 238 20l10 -107l-57.5 -7.5t-46.5 -6.5t-33 -6.5t-29 -9t-21.5 -13.5t-23.5 -20.5t-23 -29.5q-2 -3 -14 -20.5t-33.5 -47.5t-55 -76t-91.5 -123t-130 -172q11 -15 127 -163.5t206 -265t92 -122.5q43 -46 76.5 -58.5t146.5 -29.5l-21 -112q-98 21 -201 21q-21 0 -41 -1 q-125 -5 -238 -36l-9 108q38 16 122 30q36 6 39 13.5t-20 36.5q-93 146 -196.5 279t-164.5 200q-50 -68 -113 -161t-145 -220t-84 -129q-23 -30 22 -33q86 -3 102 -8l-3 -109q-159 15 -231 15h-4q-73 0 -223 -19l-5 100q93 15 128.5 28.5t78.5 58.5q4 5 36.5 50t132.5 178 t241 313q-426 514 -453 539q-15 14 -34 21.5t-34.5 9.5t-46 4.5t-51.5 5.5z" />
<glyph unicode="Y" horiz-adv-x="1495" d="M51 1283l9 112q172 -20 289 -20q113 0 175 19l14 -129h-6q-27 0 -65 -8q-19 -1 -26 -11.5t1 -17.5q141 -209 352 -484q40 63 115.5 186t126 206t51.5 80q21 32 19 37t-32 8q-54 3 -81 12l7 121q50 -11 126 -18q49 -4 107 -4q30 0 63 2q95 3 153 23v-129q-20 -2 -53.5 -4 t-44.5 -3t-32 -3.5t-28.5 -5.5t-20.5 -8t-21 -12.5t-17 -17.5q-91 -106 -190.5 -261.5t-178.5 -308.5q0 -4 -1 -75.5t-1 -107t2.5 -124.5t7.5 -192q1 -30 45.5 -41.5t165.5 -24.5q14 -1 21 -2l-14 -115q-113 19 -195 26q-36 2 -76 2q-50 0 -104 -4q-100 -8 -194 -38l-27 119 q142 23 189 40q43 16 43 51l-3 230v186v38q-3 5 -38.5 56.5t-74.5 107t-92.5 129.5t-117.5 156.5t-125 156.5q-14 19 -39 27.5t-83 17.5t-101 20z" />
<glyph unicode="Z" horiz-adv-x="1460" d="M52 1094q18 38 33.5 88t26 87t24.5 73t34.5 58t50.5 28q25 -26 56 -49.5t38 -23.5q146 -3 458 -5q89 -1 171 -1q206 0 368 4h15h9h5l42 -61l-17 -20q-5 -1 -510 -585.5t-512 -586.5q88 0 328 2q109 1 177 2q83 0 108 -2q23 -3 45 -3q18 0 36 2q38 5 63.5 2t49 7 t38.5 12.5t30 19.5t24 28.5t21.5 38.5t21 50t23.5 62q3 7 4 11l101 -46q-21 -48 -49 -114.5t-41.5 -97.5t-34 -70t-42.5 -70q-11 6 -31.5 19t-32 18t-35.5 13q-24 7 -60 9q-24 1 -55 1h-33h-47q-119 0 -439 3q-133 1 -221 1q-178 0 -179 -5l-33 86q90 51 213 182 q124 139 262 299.5t319.5 373.5t259.5 304l7 8q-17 -4 -218.5 -6t-403 -2.5t-205.5 -0.5h-1h-1h-1h-2q-23 2 -39 2q-26 0 -36 -5q-16 -9 -36 -57q-3 -6 -8 -19l-41 -96z" />
<glyph unicode="[" horiz-adv-x="503" d="M82 -468v1933h367v-95l-253 -17v-1709l253 -15v-97h-367z" />
<glyph unicode="\" horiz-adv-x="784" d="M17 1456l87 28l662 -2072l-88 -28z" />
<glyph unicode="]" horiz-adv-x="503" d="M55 -373l253 17v1709l-253 16v96h367v-1933h-367v95z" />
<glyph unicode="^" horiz-adv-x="1771" />
<glyph unicode="_" d="M0 -409h948v-67h-948v67z" />
<glyph unicode="a" horiz-adv-x="1081" d="M157 205q0 141 25 190q17 41 55 62q105 45 207 65t247 26l1 163q0 59 -22 96q-11 19 -54 61.5t-68 42.5q-75 0 -150 -33.5t-75 -61.5q0 -11 4 -29t8.5 -33.5t4.5 -16.5l-133 -50q-1 3 -7.5 21t-12 39.5t-5.5 39.5q0 76 83 138q45 32 148 73.5t156 41.5q41 0 124.5 -58 t106.5 -97q24 -39 24 -136q0 -80 -5.5 -258.5t-5.5 -251.5q0 -56 8 -117q2 -13 7 -23t9.5 -13.5t6.5 -3.5q17 0 71.5 29t69.5 42l52 -108l-29 -15q-139 -63 -194 -70q-5 -1 -8 -1q-33 0 -62 29.5t-44 83.5q-107 -54 -198 -79.5t-193 -25.5q-39 0 -67.5 14t-44.5 35.5 t-25.5 55t-12 63.5t-2.5 70zM291 277q0 -192 54 -192q65 0 157.5 28.5t182.5 76.5q0 11 -0.5 27.5t0.5 38.5q1 44 1 64q0 28 1.5 77t1.5 66q-4 -3 -8 -3q-161 -5 -257 -36q-78 -25 -105.5 -54.5t-27.5 -92.5z" />
<glyph unicode="b" horiz-adv-x="1128" d="M51 1390q79 12 141.5 48t130.5 105l70 -55q-34 -63 -44 -156q-18 -168 -21 -501q167 115 300 115q87 0 167 -39.5t135 -102t88 -139t33 -150.5q0 -108 -40.5 -206.5t-109 -170.5t-163.5 -114.5t-200 -42.5q-55 0 -100.5 10.5t-69 23.5t-44.5 23.5t-33 10.5q-4 0 -8 -2 t-9 -6.5t-9 -9t-10 -12.5l-10.5 -14t-12 -16.5t-11.5 -16.5l-85 41q22 44 38 82q19 71 20 208q1 109 4.5 337t3.5 382q2 79 3 164.5t1 89.5q-1 26 -4.5 30.5t-21.5 3.5q-16 0 -58.5 -7t-50.5 -11zM325 197q0 -13 5 -18q46 -35 116 -56t135 -21q141 0 240 106t99 270 q0 59 -19.5 119.5t-56 113t-98.5 86t-137 33.5q-76 0 -154 -35.5t-127 -71.5q0 -93 -1.5 -263.5t-1.5 -262.5z" />
<glyph unicode="c" horiz-adv-x="997" d="M109 443q0 109 39 209t104.5 172t155 114.5t185.5 42.5q89 0 175.5 -32t129.5 -69q-3 -14 -7.5 -34t-5 -25t-6.5 -17t-8.5 -14.5t-15 -11.5t-22.5 -13.5t-34 -16.5q-37 29 -118.5 64t-142.5 35q-128 0 -210.5 -109t-82.5 -272q0 -159 96 -264.5t227 -105.5q72 0 129 25 t127 79l68 -107q-88 -59 -169 -93.5t-171 -34.5q-26 0 -60 6t-77 22t-85 39.5t-82.5 62t-71 86.5t-49 115.5t-18.5 146.5z" />
<glyph unicode="d" horiz-adv-x="1173" d="M82 421q0 125 63 245.5t156 178.5q69 42 150.5 64t140.5 22q25 0 63.5 -7.5t84.5 -18.5t60 -14q1 57 3.5 160t2.5 137.5t-3 119.5q-2 33 -6 33q-11 0 -64.5 -17.5t-78.5 -22.5l-29 106q181 40 287 138l77 -57q-26 -97 -28 -118q-31 -324 -31 -983q0 -237 3 -321q1 0 4 -2 t7.5 -2.5t10.5 -0.5q26 5 70 25.5t61 25.5l35 -93q-15 -7 -51.5 -23.5t-59 -26.5t-51 -21.5t-48.5 -17.5t-32 -6q-24 0 -48 15.5t-27 46.5q-1 16 -4.5 66.5t-3.5 63.5q-170 -132 -334 -132q-110 0 -198.5 65t-135 164.5t-46.5 207.5zM215 478q0 -66 19.5 -131.5t54.5 -120 t90.5 -88.5t121.5 -34q154 0 296 123q2 89 2.5 280t1.5 244q0 12 -9 16.5t-46 9.5q-130 31 -207 31q-45 0 -101.5 -17t-93.5 -45q-50 -38 -89.5 -113t-39.5 -155z" />
<glyph unicode="e" horiz-adv-x="1034" d="M131 436q0 104 32 197.5t79.5 155t102.5 107t101 66.5t75 21q118 0 221 -83.5t139 -215.5q8 -28 17.5 -35t33.5 -7v-110q-298 -38 -649 -95q-4 -32 -1 -55q6 -127 79.5 -208.5t163.5 -81.5q140 0 296 131l69 -91q-43 -36 -76 -59.5t-81.5 -50.5t-102.5 -41t-113 -14 q-79 0 -144.5 29.5t-109.5 77t-74.5 109.5t-44 126t-13.5 127zM281 549l451 76q10 2 10 9q-6 98 -73 158t-159 60q-66 0 -142 -96t-87 -207z" />
<glyph unicode="f" horiz-adv-x="897" d="M135 85q12 1 53.5 3.5t60.5 3.5q25 1 32.5 2t14 7t6.5 20q15 193 15 415q0 15 -1 92t-1 114q-62 -2 -170 -6v110q152 -5 169 -6q-2 79 -2 147q0 82 15.5 149t46.5 120.5t66.5 94t85.5 82.5q130 109 271 109q70 0 143.5 -25.5t125.5 -74.5q1 -5 1 -11q0 -25 -22 -55 q-27 -36 -56 -51q-130 92 -238 92q-132 0 -206.5 -104t-88.5 -327q-3 -53 -6 -148q81 1 316 8v-110q-54 2 -159 5t-159 4q0 -31 -0.5 -90.5t-0.5 -68.5q0 -399 3 -478q0 -8 3 -9.5t11 -2.5h4q74 -3 182 -8l-9 -111q-133 17 -277 17q-96 0 -225 -15z" />
<glyph unicode="g" horiz-adv-x="1114" d="M89 -385q0 64 21 122t57 100t66 68t63 48q-27 15 -47 34t-30.5 33t-19.5 40t-11.5 36t-8.5 39q59 43 199 95q-111 30 -178 120.5t-67 204.5q0 92 36.5 172.5t93 133t124 82.5t131.5 30q127 0 242 -62q54 5 158 5q34 0 57.5 -4t34 -8.5t30.5 -15.5q0 5 -10 -20 q-32 -78 -32 -88q-2 1 -92 18q-30 1 -58 -6q55 -98 55 -217q0 -62 -23 -118t-57.5 -96t-82.5 -74.5t-91 -56t-90 -38.5q-194 -65 -211 -95q6 -21 48.5 -38t117.5 -17q26 0 81 6.5t90 6.5q158 0 245 -81.5t87 -191.5q0 -68 -31 -129t-81.5 -105.5t-113 -81t-128.5 -58.5 t-124 -34t-103 -12q-89 0 -158.5 23.5t-109 62t-59.5 81t-20 86.5zM209 -360q0 -38 23 -65.5t62 -42t80 -21t85 -6.5q29 0 98.5 19.5t148.5 51.5t138.5 83.5t59.5 105.5q0 76 -56.5 113.5t-141.5 37.5q-33 0 -92 -5t-82 -5q-26 0 -78.5 3t-56.5 3q-99 -58 -143.5 -129.5 t-44.5 -142.5zM267 590q0 -129 65.5 -207t178.5 -101q110 19 184.5 90.5t74.5 155.5q0 47 -8.5 92.5t-29.5 90.5t-52 79t-80 55t-109 21q-107 0 -165.5 -76.5t-58.5 -199.5z" />
<glyph unicode="h" horiz-adv-x="1239" d="M60 1394q168 35 287 145l71 -57q-24 -108 -25 -122q-15 -168 -19 -556q90 53 195 90t158 37q139 0 219.5 -80t91.5 -203q8 -84 8 -282q0 -64 -1.5 -155t-1.5 -105q1 -8 4.5 -11.5t6.5 -4.5t11.5 -1.5t12.5 -1.5q5 -1 61 -5.5t74 -9.5l-19 -103q-105 27 -198 27 q-82 0 -188 -27l-14 100q17 3 43.5 8.5t40.5 7.5q26 4 28 8q1 3 2 43q1 18 5.5 77.5t4.5 78.5q0 269 -8 317q-15 98 -61.5 151t-135.5 53q-83 0 -164 -32t-179 -91q1 -20 1.5 -130t3.5 -179q1 -41 2 -106t2 -107t5 -61q1 -5 4 -8t6.5 -3.5t13 -1.5t17.5 -3q63 -13 106 -16 l-17 -102q-15 3 -45.5 9t-47 9t-44 5.5t-54.5 2.5q-59 0 -226 -20l-9 103q17 2 45.5 8t45.5 8q13 2 26 3t18.5 0.5t10 1.5t5.5 7t1 15q4 151 4 439q0 669 -3 717q0 34 -2 48q-15 -1 -70.5 -18.5t-76.5 -22.5z" />
<glyph unicode="i" horiz-adv-x="712" d="M122 855q121 28 153 43q47 22 109 91q11 13 26 30l77 -71q-30 -81 -40 -137q-10 -49 -14.5 -186t-4.5 -204q0 -143 13 -297q0 -13 13 -18.5t44 -8.5q68 -13 151 -18l-20 -106q-201 26 -300 26q-31 0 -60.5 -3.5t-69 -10.5t-63.5 -10l-11 101q22 1 107 16q11 2 27 4 q24 3 28 8.5t4 34.5v15q0 28 -0.5 125t-0.5 129q0 176 -5 309q-1 54 -7 59q-2 3 -7 3q-9 0 -29 -5l-46 -11.5t-40 -9.5zM294 1371q0 40 31.5 68t58.5 28q41 0 71.5 -30t30.5 -75q0 -40 -32 -67.5t-60 -27.5q-41 0 -70.5 29.5t-29.5 74.5z" />
<glyph unicode="j" horiz-adv-x="604" d="M8 -619q7 101 30.5 161.5t80.5 120.5q30 32 62.5 82.5t41.5 78.5q5 16 10.5 62t11 148.5t5.5 230.5q0 125 -2 224.5t-4.5 179t-3.5 118.5q2 19 0 20l1 -6l2 -3q-8 -1 -49 -16.5t-60 -19.5l-26 98q83 19 137 52t124 113l75 -64q-23 -81 -32 -128q-10 -57 -20 -186 q-8 -117 -8 -155v-7v-168q0 -236 -4 -376q0 -150 -57 -243q-13 -21 -28 -40.5t-34 -38.5t-31.5 -30.5t-36.5 -31.5t-31 -27q-19 -20 -34 -69q-14 -46 -14 -92v-6zM271 1371q0 40 31.5 68t59.5 28q41 0 71 -30t30 -75q0 -40 -32 -67.5t-60 -27.5q-41 0 -70.5 29.5t-29.5 74.5 z" />
<glyph unicode="k" horiz-adv-x="1214" d="M77 1398q95 18 159 49t139 94l72 -57q-38 -87 -38 -122q-7 -118 -15.5 -378.5t-8.5 -430.5q50 36 154.5 130.5t139.5 122.5q14 11 64 36q-8 2 -18.5 2.5t-35.5 1.5t-52 3l9 103q153 -10 187 -10q94 0 252 14l9 -101q-58 -4 -108 -19.5t-74.5 -29.5t-65.5 -43.5t-56 -38.5 l-266 -185q49 -45 144 -133.5t173.5 -159.5t152.5 -133q15 -13 31.5 -18.5t30.5 -6.5t46.5 -2.5t64.5 -5.5l-18 -106q-25 3 -58 8.5t-51 8t-48.5 4.5t-67.5 2q-39 0 -107 -9t-99 -11l-9 113q15 1 48 5t51 5q-18 19 -98.5 106.5t-142.5 149.5t-142 135q0 -1 -19.5 -17 t-19.5 -17q1 -77 2.5 -198t1.5 -149q0 -3 1 -4t3.5 -1.5t6 -0.5h8h9.5q17 -5 93 -14l-18 -117q-19 4 -45.5 10t-41 8.5t-39.5 5t-57 2.5q-36 0 -102.5 -9t-96.5 -11l-11 106q61 4 101 13q11 2 20.5 3t12 -0.5t5.5 3t3 6.5t1 17q11 246 11 437q0 595 -4 745q1 10 3 13t10 2 q-14 -1 -40 -6t-63 -14t-53 -12z" />
<glyph unicode="l" horiz-adv-x="692" d="M94 85q74 4 116 12q36 1 47.5 7.5t13.5 22.5q11 211 11 437q0 134 0.5 268.5t0.5 203.5v131.5t-0.5 90.5t-2.5 42q-4 18 -12 20q-14 -1 -65.5 -13t-69.5 -15l-30 106q98 21 162.5 51t137.5 92l75 -57q-15 -24 -27 -61.5t-14 -60.5q-19 -228 -19 -743q0 -407 9 -506 q2 -11 42 -13q4 -1 7 -1t7.5 -0.5t8.5 -0.5q52 -9 142 -16l-18 -109q-199 26 -275 26q-61 0 -238 -20z" />
<glyph unicode="m" horiz-adv-x="1818" d="M94 82q9 1 34.5 6t43.5 6q46 10 58 20t21 51q16 87 16 300q0 41 -4 150.5t-8 133.5q-3 45 -8.5 54.5t-28.5 9.5q-13 0 -42.5 -6.5t-44.5 -8.5l-14 96q8 1 31 4t28 4t22.5 4t23.5 6t20.5 8.5t23 11.5t22.5 15.5t27.5 21.5t30.5 27l71 -56q-22 -70 -26 -140 q218 157 368 157q82 0 146.5 -52t83.5 -121q48 34 76.5 51.5t78 43t100.5 37.5t106 12q65 0 114 -19t76.5 -48t44.5 -69.5t22 -75.5t5 -74q0 -36 -1 -134.5t-1 -136.5v-264q-2 -4 -0.5 -5t4.5 0h3q158 -21 165 -23l-18 -105q-130 27 -237 27q-72 0 -176 -27l-13 100 q10 2 29.5 5t35 6t26.5 7q2 0 8 1.5t7 1.5t5 2t4.5 3.5t3 5.5t3 8t2 11t2 15.5t1.5 20.5q13 107 13 173q0 36 -0.5 96t-1 104.5t-0.5 57.5q-11 110 -54 165t-141 55q-61 0 -140.5 -39.5t-147.5 -96.5q-1 -6 0.5 -16.5t1.5 -15.5q-1 -34 -1 -63.5t1 -84t1 -77.5 q1 -74 4 -189.5t3 -131.5q1 -3 3 -4t5 -0.5t9.5 0t12.5 -2.5q9 -3 47.5 -10t49.5 -10l-14 -97q-12 3 -34 8t-30.5 7t-24.5 5t-28.5 4t-31 2t-40.5 1q-85 0 -189 -27l-13 100q13 3 51.5 10t51.5 10q13 2 17 4t8 16t5 45q1 13 6 84t5 90q0 276 -6 322q-7 78 -47 129.5 t-116 51.5q-117 0 -309 -152q0 -65 -1 -199.5t-1.5 -227t-0.5 -127.5q0 -18 1 -22.5t2.5 -6.5t10.5 -1.5t18 -1.5q88 -20 105 -22l-16 -103q-25 4 -64 11.5t-68.5 11t-70.5 3.5q-23 0 -51.5 -2t-48.5 -4.5t-53.5 -7t-49.5 -6.5z" />
<glyph unicode="n" horiz-adv-x="1261" d="M100 80q13 2 43.5 6t48.5 6q37 4 45 9t14 34q16 99 16 273q0 74 -8 222t-19 180q-3 8 -5 11t-3.5 3h-2.5h-2q-9 0 -43.5 -10t-54.5 -10l-14 95q17 3 50.5 8.5t45.5 8.5t35.5 12t45 24.5t50.5 40.5l69 -47q-11 -20 -15 -157q3 2 31 22t34 24t32.5 21.5t36 22.5t34 19 t37.5 19t35.5 14t39 12.5t37 6.5t39.5 3q147 0 221 -61t74 -176q0 -46 2 -168t2 -170q0 -212 4 -278v-3q2 2 12 2q10 -2 68.5 -11.5t70.5 -12.5l-20 -103q-107 23 -161 26q-21 1 -47 1q-71 0 -186 -26l-13 100q15 3 54.5 8t50.5 7q1 0 3 1t2.5 1t2 1t2.5 2t2 3t1.5 5 t1.5 6.5t1.5 9t1 12t1.5 15.5q12 96 12 160q0 323 -11 381q-13 141 -163 141q-173 0 -344 -133q1 -140 1 -247q0 -257 -8 -328q1 -10 -1.5 -15t2.5 -7.5t7.5 -2.5t13.5 -1.5t21 -3.5q43 -8 90 -12l-14 -101q-21 3 -51 8.5t-46.5 8t-44 5t-58.5 2.5q-30 0 -60 -2.5 t-78.5 -9.5t-59.5 -8z" />
<glyph unicode="o" horiz-adv-x="1132" d="M86 463q0 100 31.5 188t82 149.5t114.5 107t129 67t125 21.5q88 0 165.5 -30t133.5 -80.5t97 -115.5t61 -137.5t20 -145.5q0 -97 -34.5 -191t-95 -168.5t-152 -120.5t-196.5 -46q-128 0 -238.5 65.5t-176.5 181.5t-66 255zM232 495q0 -161 100.5 -285t243.5 -124 q101 0 175.5 57.5t109.5 142t35 180.5q0 169 -103 284t-236 115q-131 0 -228 -106.5t-97 -263.5z" />
<glyph unicode="p" horiz-adv-x="1169" d="M48 874q81 12 139.5 40.5t123.5 96.5q35 -16 49 -42t18 -99q2 1 29 12t31.5 12.5t30 11.5t33.5 12.5t31 10.5t34.5 10.5t31.5 8t34 7t31 3.5t33 2q80 0 155 -45.5t126.5 -115t82.5 -151.5t31 -156q0 -110 -44.5 -208t-116.5 -165.5t-164 -106.5t-186 -39q-47 0 -103.5 15 t-95.5 38q0 -417 9 -493q1 -24 11.5 -32t33.5 -8q41 -5 125 -9l-4 -114q-22 1 -94.5 3.5t-127.5 2.5q-30 0 -68 -4t-89.5 -11t-70.5 -9l-9 112q22 1 97 11q8 2 19 3.5t13.5 2t6 5t3.5 11v21.5q10 113 10 587q0 95 -2 215t-4.5 205.5t-5 164t-2.5 84.5q-2 19 -9 40q1 1 3 1 q-7 0 -57 -15.5t-97 -20.5zM379 161q120 -69 235 -69q80 0 148 32.5t110.5 83t66 110t23.5 117.5q0 89 -35.5 180t-103 154.5t-146.5 63.5q-21 0 -43.5 -2.5t-38.5 -4.5t-41.5 -9t-35 -9t-38 -13t-33 -12.5t-36.5 -14.5l-32 -13v-594z" />
<glyph unicode="q" horiz-adv-x="1118" d="M82 441q0 79 25 160t73 153t112 129t148.5 90t176.5 33q71 0 122 -13t78 -25.5t39 -12.5q6 0 12.5 3.5t14 11t13.5 14t16 18.5t16 18l75 -46q-17 -44 -31 -91q-6 -50 -16 -255q3 -147 3 -393q0 -503 5 -693q0 -7 0.5 -13.5t1.5 -10.5t3 -8l3 -6t3.5 -3.5t3.5 -2.5 t4.5 -1.5t4 -0.5h4.5h3q107 -7 121 -7l-6 -117q-121 7 -231 7q-58 0 -224 -26l-9 113q15 1 30 3t33 5t29 4q8 1 19 2.5t16.5 2.5t12 2.5t9.5 3t6 4t4 6t1 8.5q4 65 4 544q-7 -2 -41 -15t-48.5 -17.5t-47.5 -14.5t-56 -14.5t-54.5 -8.5t-61.5 -4q-111 0 -210 75.5t-154 182 t-55 206.5zM227 475q0 -86 39.5 -172t109.5 -143.5t149 -57.5q158 0 286 74q1 107 5 303.5t5 302.5l-7 29q-34 34 -103.5 52.5t-144.5 18.5q-88 0 -168.5 -65.5t-125.5 -159t-45 -182.5z" />
<glyph unicode="r" horiz-adv-x="964" d="M108 897q125 14 247 144q2 -2 17.5 -11.5t20.5 -15t11.5 -19.5t6.5 -33q0 -7 -3 -72t-4 -97q50 72 159 143.5t172 72.5q13 7 28 7q30 0 65 -29q53 -43 56 -106l1 -12q-1 -5 -3 -10q-4 -8 -7 -17t-14 -17.5t-26 -15t-40 -9.5t-57 -2q-7 21 -11 31.5t-16.5 23.5t-28.5 13 q-32 0 -99 -37.5t-122 -85t-57 -73.5q0 -40 -0.5 -127t-0.5 -99q-1 -68 -1 -123q0 -165 7 -216q2 -5 12 -6.5t46 -4.5q19 -1 32 -2q26 -1 75 -4t64 -4l-4 -95q-270 7 -293 7q-40 0 -200 -20l-9 103q80 8 97 12q9 2 14 5t10.5 16.5t5.5 37.5q8 240 8 364q0 26 -2.5 135 t-2.5 138q-1 11 -1 29q0 27 -4 28q-1 0 -3 -1q-9 -2 -46.5 -18.5t-72.5 -20.5z" />
<glyph unicode="s" horiz-adv-x="911" d="M124 285l94 38q37 -103 59 -136q46 -70 150 -85q35 -5 79 -5q76 0 125 40.5t49 100.5q0 35 -14 64.5t-30 47.5t-51 38.5t-51.5 28t-57.5 23.5q-8 3 -12 5q-110 48 -158 81q-121 87 -122 211q0 95 85 170.5t202 75.5q37 0 79.5 -3.5t64.5 -6t75 -10.5t62 -9 q-2 -8 4.5 -44.5t17.5 -91t15 -90.5l-74 -31q-67 165 -257 165q-62 0 -101 -35t-39 -87q0 -44 49 -95t172 -90q125 -38 202.5 -125t77.5 -179q0 -85 -53.5 -149.5t-128 -94.5t-151.5 -30q-152 0 -351 60q21 65 21 119q0 31 -10 69.5t-22 59.5z" />
<glyph unicode="t" horiz-adv-x="833" d="M74 893q54 18 83 32t55.5 40.5t43 64t32.5 99.5l72 -19q-6 -77 -13 -180q323 5 386 8l-11 -118q-64 2 -190 4.5t-186 3.5q-3 -41 -8 -264.5t-5 -347.5q-2 -122 117 -122q48 0 103.5 20t87 38t79.5 49l51 -98q-44 -29 -71 -45t-75.5 -39.5t-100 -35t-105.5 -11.5 q-22 0 -46.5 4.5t-59 21t-60.5 43t-45 76.5t-19 116q0 93 2.5 191.5t6.5 216t6 183.5q-32 -2 -115 -2z" />
<glyph unicode="u" horiz-adv-x="1196" d="M46 850q13 3 26.5 8t29.5 13.5t27 14t30 19t27 18.5t30 22t27 21t29.5 23t26.5 21l61 -64q-32 -184 -32 -568q0 -65 6.5 -112.5t23 -85.5t46.5 -57.5t73 -19.5q70 0 169.5 36.5t183.5 81.5q-4 76 -4 168v37q1 114 5.5 211t7.5 106q1 16 0 26.5t-2.5 19t-7.5 11.5l-10 5 t-17 0.5t-22 -3t-30.5 -6t-37.5 -7.5l-23 91q160 42 268 90l49 -64q-20 -53 -34 -274t-14 -329q0 -89 14 -173q2 -18 9.5 -28.5t17.5 -8.5q17 3 53.5 18.5t54.5 21.5l26 -99q-118 -34 -186 -79q-27 -11 -36 -11q-29 0 -45 22t-20.5 47.5t-7.5 63.5q0 12 -1 17 q-79 -36 -122 -54.5t-124.5 -42t-142.5 -23.5q-70 0 -132 30t-94 89q-36 75 -37 231q-1 60 -1 127q0 134 4 296q-2 45 4 49q-23 -6 -60.5 -28.5t-46.5 -26.5z" />
<glyph unicode="v" horiz-adv-x="1034" d="M7 877l14 95q96 -16 172 -16q68 0 209 26l14 -112q-48 -14 -105 -19q-2 -2 -2 -12q0 -6 2 -10q25 -78 97.5 -332.5t85.5 -298.5q109 195 257 595q9 29 9 39q0 5 -1.5 8.5t-6.5 6t-11 4.5t-17.5 5t-22.5 5t-29 6.5t-35 8.5l23 110q91 -22 152 -22t173 32l36 -96 q-23 -9 -46 -17t-29.5 -9t-16.5 -10.5t-15.5 -20t-18.5 -38.5q-37 -67 -109.5 -218.5t-104.5 -210.5q-11 -24 -45 -95.5t-51 -109.5t-40 -102t-37 -122h-102q-74 366 -272 873q-1 2 -3 6.5t-3 6.5t-3 5.5t-3 5t-3 4t-4 3.5t-4.5 2t-5.5 2q-17 4 -49 10.5t-49 11.5z" />
<glyph unicode="w" horiz-adv-x="1525" d="M12 879l16 95q98 -16 172 -16q85 0 180 19l16 -109q-24 -10 -74 -18l-11 -2q0 -2 4 -18q18 -96 68 -315.5t66 -301.5q43 85 136.5 292.5t123.5 271.5q-4 12 -9 23.5t-7 20.5q-2 10 -5 15t-4.5 6.5t-7 2.5t-6.5 1q-11 3 -37.5 10.5t-45.5 12.5l12 103q64 -12 151 -12 q60 0 193 27l16 -110q-42 -17 -93 -22q-2 -3 -4 -5t-2 -6q0 -7 1 -10q46 -282 123 -636q44 84 134.5 290t136.5 296q3 9 12 35l11 29q0 6 -25 11q-14 2 -24.5 4t-33.5 7.5t-49 11.5l27 109q98 -24 156 -24q60 0 162 31l36 -95q-25 -12 -49 -22.5t-29.5 -10.5t-16.5 -11 t-11.5 -13t-12.5 -29t-22 -48q-13 -26 -57 -116t-77.5 -155t-64.5 -115q-48 -91 -71 -137t-57 -130.5t-54 -160.5q-4 -7 -44 -6t-42 6q-10 55 -24 116t-24.5 105t-30 115t-27.5 100.5t-31.5 110t-28.5 99.5q-23 -48 -74 -136.5t-72 -129.5q-108 -228 -154 -382q-2 -5 -49 -5 q-4 0 -7 -1q-40 0 -41 6q-23 207 -85.5 453.5t-135.5 416.5q-2 5 -4 11.5t-2.5 9t-2 5.5t-3.5 4t-5 2q-20 6 -57.5 13.5t-48.5 10.5z" />
<glyph unicode="x" horiz-adv-x="1187" d="M81 81q53 7 73 13.5t35 25.5l342 370q1 -1 -53.5 67.5t-108.5 136.5t-52 67q-13 17 -30 42q-14 20 -20.5 27t-21 12.5t-38 6.5t-65.5 1h-33v114q115 -5 165 -5q191 0 273 16l12 -114q-26 -3 -53.5 -4t-41.5 -2t-21 -4q0 -1 4 -5.5t9.5 -10t6.5 -7.5q4 -4 84 -118t83 -117 l177 222l9 9q9 10 14 19t7 19q-41 0 -102 4l14 103q34 -2 98 -2q49 0 145.5 4.5t103.5 4.5l10 -88q-28 -4 -48 -10.5t-38 -21t-27.5 -24t-29.5 -32.5q-49 -51 -141.5 -151.5t-136.5 -146.5q25 -30 127 -160.5t159 -194.5q11 -16 16.5 -22.5t19 -12t23.5 -7t44 -6t66 -10.5 l-14 -94q-132 16 -248 16q-82 0 -200 -15l-11 99q34 6 79 10t55 7q0 4 -15 22q-5 2 -99.5 131t-97.5 130q-2 -2 -57.5 -67.5t-111 -129t-62.5 -64.5q-3 -3 -10.5 -14t-7.5 -12h1q10 0 127 -12l-13 -103q-19 1 -54 4.5t-64 5.5t-55 2q-24 0 -189 -12z" />
<glyph unicode="y" horiz-adv-x="1118" d="M12 -547q65 8 93.5 17.5t71 64.5t84 139t129.5 271q28 60 43 92q-54 197 -148.5 479t-116.5 315q-6 12 -35 16q-65 10 -107 16l16 98q104 -17 174 -17q99 0 208 19l18 -103q-3 0 -27.5 -4.5t-46 -8t-27.5 -3.5q-12 0 -12 -2q0 -6 4 -17q11 -37 52 -176.5t79.5 -261 t70.5 -203.5q75 132 159.5 300t136.5 293q14 31 14 59q-5 2 -28 3.5t-63 6.5t-81 15l27 107q134 -30 209 -30q80 0 180 27l20 -103q-24 -6 -51.5 -11t-35.5 -6.5t-20.5 -8.5t-18.5 -17.5t-17 -32.5q-28 -54 -182.5 -324t-231.5 -428q-220 -450 -220 -626q0 -29 6 -50 q-22 0 -57 2.5t-98 2.5q-43 0 -97 -3t-68 -3q1 18 1 34q0 39 -7 62z" />
<glyph unicode="z" horiz-adv-x="1126" d="M76 725q0 -2 10 25.5t25 67t30 79.5t26.5 67t12.5 25l20 -8t19 -7.5t18.5 -6.5t23 -6t27 -4.5t36 -4.5t44.5 -3t58 -2.5t71 -1t89 -0.5h94.5h87h71.5t65.5 1t51.5 2t45 3.5t32 6.5l40 -66q-113 -122 -357 -393t-355 -391q7 0 186 1.5t185 1.5h22h23h21t21.5 0.5t18.5 1.5 t19 2t15.5 3t14.5 4.5t11 5.5q17 12 25.5 27.5t26.5 63.5q13 35 33 113l100 -36q0 1 -5 -17.5t-12.5 -47.5t-17 -65t-19 -71.5t-17.5 -65t-12 -47.5q-4 -17 -5 -17l-31 19q-8 4 -29.5 9.5t-50.5 5.5q0 -1 -214.5 -1t-214.5 1h-36q-238 0 -286 -25l-21 90q83 72 169 157.5 t186 198.5t153.5 175t163.5 193q8 10 13 15.5t12 14t13 15.5q-58 -1 -180 -1q-241 0 -314 -2q-60 -1 -80.5 -23.5t-48.5 -99.5l-3 -7.5t-2.5 -6.5t-2.5 -8z" />
<glyph unicode="{" horiz-adv-x="544" d="M27 463v71q61 20 104.5 65t63 95t19.5 99q0 45 -23.5 132.5t-23.5 152.5q0 89 18.5 158.5t49 112.5t74 70t89.5 37t99 8v-94q-95 -2 -143.5 -59.5t-48.5 -194.5q0 -69 28 -159t28 -160q0 -82 -59.5 -172.5t-132.5 -126.5q73 -36 132.5 -126.5t59.5 -172.5q0 -71 -28 -160 t-28 -158q0 -137 48.5 -195.5t143.5 -59.5v-93q-53 -2 -99 8t-89.5 37t-74 70t-49 112.5t-18.5 158.5q0 65 23.5 152.5t23.5 132.5q0 49 -19.5 99t-63 95t-104.5 65z" />
<glyph unicode="|" horiz-adv-x="323" d="M116 -457v1899h92v-1899h-92z" />
<glyph unicode="}" horiz-adv-x="544" d="M48 -374q95 2 143.5 60t48.5 195q0 69 -28 158.5t-28 159.5q0 82 59.5 172.5t131.5 126.5q-72 36 -131.5 126.5t-59.5 172.5q0 71 28 160.5t28 158.5q0 137 -48.5 195t-143.5 59v94q53 2 99 -8t89 -37t73.5 -70t49 -112.5t18.5 -158.5q0 -65 -23 -152.5t-23 -132.5 q0 -49 19.5 -99t63 -95t104.5 -65v-71q-61 -20 -104.5 -65t-63 -95t-19.5 -99q0 -45 23 -132.5t23 -152.5q0 -89 -18.5 -158.5t-49 -112.5t-73.5 -70t-89 -37t-99 -8v93z" />
<glyph unicode="~" horiz-adv-x="806" d="M43 405q41 56 107.5 109.5t81.5 53.5q43 0 176.5 -34.5t174.5 -34.5q19 0 60.5 29.5t68.5 63.5l52 -21q-39 -57 -97.5 -114t-78.5 -57q-41 0 -183.5 35.5t-180.5 35.5q-21 0 -62.5 -29t-69.5 -58z" />
<glyph unicode="&#xad;" horiz-adv-x="505" d="M28 503l445 105l4 -115l-445 -105z" />
<glyph unicode="&#xb6;" horiz-adv-x="1239" d="M423 565q0 -116 14 -191.5t34.5 -111.5t54.5 -69q25 -23 118 -47.5t186 -35.5l137 1359q-4 -1 -10.5 -47t-9.5 -49q-14 -4 -82 -17t-119.5 -25t-115.5 -38t-101 -59q-44 -51 -64.5 -107.5t-31 -186.5t-10.5 -375zM464 276q0 15 8 33q51 113 135 137q42 12 99 20h5 q8 0 8 -11v-6q-2 -10 -13 -10q-45 -1 -88 -11l-5 -307q3 -1 7.5 50.5t9 134t9 183t9.5 201t9.5 183.5t9 134.5t8.5 51.5q1 0 21 2t33 3t17 -2l-15 -982q0 -2 -15.5 0.5t-31 5.5t-16.5 2q-3 -3 -4 -3q-4 0 -6 1q-79 18 -109 40q-51 38 -77 116q-8 22 -8 34z" />
<glyph unicode="&#xd0;" horiz-adv-x="1939" />
<glyph unicode="&#x2000;" horiz-adv-x="772" />
<glyph unicode="&#x2001;" horiz-adv-x="1545" />
<glyph unicode="&#x2002;" horiz-adv-x="772" />
<glyph unicode="&#x2003;" horiz-adv-x="1545" />
<glyph unicode="&#x2004;" horiz-adv-x="515" />
<glyph unicode="&#x2005;" horiz-adv-x="386" />
<glyph unicode="&#x2006;" horiz-adv-x="257" />
<glyph unicode="&#x2007;" horiz-adv-x="257" />
<glyph unicode="&#x2008;" horiz-adv-x="193" />
<glyph unicode="&#x2009;" horiz-adv-x="309" />
<glyph unicode="&#x200a;" horiz-adv-x="85" />
<glyph unicode="&#x2010;" horiz-adv-x="505" d="M28 503l445 105l4 -115l-445 -105z" />
<glyph unicode="&#x2011;" horiz-adv-x="505" d="M28 503l445 105l4 -115l-445 -105z" />
<glyph unicode="&#x2012;" horiz-adv-x="505" d="M28 503l445 105l4 -115l-445 -105z" />
<glyph unicode="&#x2013;" horiz-adv-x="1080" d="M28 503l1015 105l9 -115l-1015 -105z" />
<glyph unicode="&#x2014;" horiz-adv-x="2104" d="M28 503l2030 105l18 -115l-2030 -105z" />
<glyph unicode="&#x202f;" horiz-adv-x="309" />
<glyph unicode="&#x205f;" horiz-adv-x="386" />
<glyph unicode="&#x25fc;" horiz-adv-x="972" d="M0 0v973h973v-973h-973z" />
<glyph unicode="&#xfb01;" horiz-adv-x="1179" d="M80 46q9 1 36 3.5t40 4.5q45 9 57 27t14 72q13 179 13 392q0 18 -1 91t-1 119q-25 -1 -74.5 -4t-74.5 -4v71q25 -1 74.5 -3t74.5 -3v198q0 111 22 185.5t68.5 129.5t132.5 114q60 41 155 73.5t165 32.5q46 0 121 -24t111 -54q-1 -30 -11 -42.5t-67 -55.5 q-12 7 -51.5 30.5t-59 32.5t-63.5 19t-96 10q-130 0 -212 -111.5t-95 -329.5q-1 -10 -6 -208h246q95 0 138 2.5t101.5 17.5t121.5 48l31 -25q-29 -61 -33 -116q-10 -51 -15.5 -169.5t-5.5 -168.5q0 -173 15 -306q2 -20 19.5 -28t48.5 -13q44 -9 106 -13l-8 -52 q-137 22 -240 22q-29 0 -61.5 -3t-82 -10.5t-61.5 -8.5l-3 50q10 1 78 11q54 10 69 26t17 64q3 55 3 236q0 150 -8 295q-3 68 -89 77q-70 5 -215.5 5.5t-173.5 1.5q-1 -34 -1 -155q0 -313 9 -502q1 -25 10.5 -33.5t36.5 -10.5q81 -3 125 -6l-5 -57q-108 14 -245 14 q-100 0 -198 -14z" />
</font>
</defs>
</svg>
