<?xml version="1.0" standalone="no"?>
<!DOCTYPE svg PUBLIC "-//W3C//DTD SVG 1.1//EN" "http://www.w3.org/Graphics/SVG/1.1/DTD/svg11.dtd" >
<svg xmlns="http://www.w3.org/2000/svg">
<metadata></metadata>
<defs>
<font id="coelacanthdisplay" horiz-adv-x="948" >
<font-face units-per-em="2048" ascent="1638" descent="-410" />
<missing-glyph horiz-adv-x="352" />
<glyph horiz-adv-x="0" />
<glyph horiz-adv-x="682" />
<glyph horiz-adv-x="505" d="M57 1853l43 37l129 -129l121 129l35 -43l-129 -121l102 -114l-43 -43l-86 114l-106 -86l-43 27l106 102z" />
<glyph unicode=" "  horiz-adv-x="352" />
<glyph unicode="&#x09;" horiz-adv-x="352" />
<glyph unicode="&#xa0;" horiz-adv-x="352" />
<glyph unicode="!" horiz-adv-x="567" d="M138 98q0 14 20 22q62 32 93 93q10 24 22 24q11 0 21 -24q30 -59 97 -93q22 -9 22 -22q0 -14 -22 -23q-70 -36 -97 -89q-9 -22 -21 -22q-13 0 -22 22q-29 56 -93 89q-20 8 -20 23zM174 1339q43 5 87 14.5t67 15.5t44 8.5t30 -4.5t12 -25q-10 -22 -16 -41t-9.5 -44.5 t-5 -43.5t-4.5 -61t-6 -73q-7 -83 -23 -210.5t-23.5 -226.5t-7.5 -222l-69 2q0 340 -23 664q-3 41 -29 116t-24 131z" />
<glyph unicode="&#x22;" horiz-adv-x="741" d="M117 1433h172q-1 -61 -33.5 -228.5t-36.5 -291.5h-33q-4 124 -36 291.5t-33 228.5zM446 1433h172q-1 -61 -33 -228.5t-36 -291.5h-33q-4 124 -36.5 291.5t-33.5 228.5z" />
<glyph unicode="#" d="M121 406l10 93l655 60l-10 -93zM164 742l10 93l655 60l-10 -93zM252 0l136 1298h59l-137 -1298h-58zM499 0l137 1298h59l-137 -1298h-59z" />
<glyph unicode="&#x26;" horiz-adv-x="1384" d="M35 352q0 148 88 257.5t223 164.5q-80 43 -130 110.5t-50 151.5q0 37 8.5 68t27.5 56.5t38 44.5t52 38.5t56 31.5t63 31.5t62 30.5q133 -46 194 -123t52 -194q-17 -41 -70 -86t-139 -103q60 -23 112 -57.5t89.5 -72t71.5 -86.5t58 -93t48 -100q66 109 130 265.5t68 240.5 q4 65 -94 98l6 27q149 -57 308 -54v-28q-64 0 -93 -18.5t-55 -80.5q-125 -304 -248 -514q61 -158 124 -228.5t134 -70.5q27 0 54.5 20t50.5 52t39.5 60t29.5 57l33 -19q-28 -60 -51.5 -98t-57.5 -73t-78.5 -51.5t-103.5 -16.5q-77 0 -146 71t-114 177q-62 -83 -98 -120 q-141 -141 -319 -141q-88 0 -160.5 33.5t-118 87.5t-70 120t-24.5 134zM166 449q0 -171 89.5 -266t240.5 -95q47 0 91 17t81 48t63.5 58.5t56.5 63.5q9 11 13 16q-43 97 -80.5 163.5t-69.5 110.5t-77 79t-82.5 56t-106.5 54q-109 -49 -164 -119t-55 -186zM233 1085 q0 -164 232 -237q72 45 106.5 80t34.5 71q0 96 -60.5 171t-152.5 75q-54 0 -107 -45.5t-53 -114.5z" />
<glyph unicode="'" horiz-adv-x="411" d="M117 1433h172q-1 -61 -33.5 -228.5t-36.5 -291.5h-33q-4 124 -36 291.5t-33 228.5z" />
<glyph unicode="(" horiz-adv-x="784" d="M76 434q0 352 161.5 625.5t452.5 423.5l25 -41q-267 -140 -410 -403t-143 -601q0 -342 134.5 -592t418.5 -415l-21 -47q-301 166 -459.5 431.5t-158.5 618.5z" />
<glyph unicode=")" horiz-adv-x="778" d="M68 -569q284 165 418.5 415t134.5 592q0 338 -143 601t-410 403l26 41q290 -150 450.5 -423t160.5 -626t-158 -618.5t-459 -431.5z" />
<glyph unicode="*" horiz-adv-x="741" d="M53.5 1166.5q13.5 47.5 51.5 83.5q34 -10 67.5 -32.5t81.5 -49.5t116 -48q-3 48 -17.5 90.5t-30 68.5t-29 62t-14.5 72q13 22 59 23.5t94 -23.5q1 -37 -20.5 -118t-20.5 -174q44 18 80 44.5t55.5 49.5t50 46.5t64.5 36.5q24 -6 40.5 -50.5t7.5 -95.5q-35 -12 -119.5 -17 t-171.5 -34q38 -46 85.5 -73.5t90 -50.5t70.5 -59q2 -25 -35.5 -55t-88.5 -36q-22 28 -36 66t-36.5 88t-65.5 107q-32 -51 -44 -104.5t-21 -101t-34 -85.5q-23 -10 -62.5 17t-61.5 73q20 30 51 55t72 62.5t82 95.5q-58 14 -117.5 9t-93.5 -12.5t-96 6.5q-17 16 -3.5 63.5z " />
<glyph unicode="+" horiz-adv-x="970" d="M82 420v80h806v-80h-806zM460 89v747h50v-747h-50z" />
<glyph unicode="," horiz-adv-x="411" d="M71 101q0 6 3 9.5t6 5t10 4.5q61 31 93 94q9 23 22 23q12 0 21 -23q31 -60 97 -94q1 0 4 -1q17 -9 18 -18q0 -8 -4 -28t-20.5 -60t-42 -80t-75.5 -87.5t-115 -82.5l-17 26q57 35 99 94.5t23 100.5q-23 52 -103 93q-19 8 -19 24z" />
<glyph unicode="-" horiz-adv-x="483" d="M20 496l440 98l3 -62l-440 -98z" />
<glyph unicode="." horiz-adv-x="411" d="M71 98q0 14 19 22q63 32 94 93q10 24 22 24q10 0 20 -24q30 -58 98 -93q21 -8 21 -22q0 -15 -21 -23q-71 -36 -98 -89q-9 -22 -20 -22q-13 0 -22 22q-28 55 -94 89q-19 8 -19 23z" />
<glyph unicode="/" horiz-adv-x="784" d="M29 -592l662 2072l62 -20l-661 -2072z" />
<glyph unicode="0" horiz-adv-x="970" d="M72 391q0 110 62 206.5t163 152t213 55.5q168 0 278.5 -113.5t110.5 -286.5q0 -172 -124.5 -294.5t-306.5 -122.5q-172 0 -284 116.5t-112 286.5zM206 450q0 -109 39 -202.5t115.5 -153t175.5 -59.5q64 0 111 29t72 77.5t36 100t11 108.5q0 110 -34.5 201t-106.5 149 t-171 58q-75 0 -133 -45.5t-86.5 -115t-28.5 -147.5z" />
<glyph unicode="1" horiz-adv-x="679" d="M129 36q5 1 24 3t23.5 2.5t19.5 3.5t20 5.5t16 7.5t16 11t11 15t11 20q20 45 20 326q0 178 -3.5 226t-18.5 85q-14 34 -122 27l2 35q162 -8 242 3q72 10 132 35l10 -37q-14 -4 -36.5 -10.5t-29 -9t-18.5 -9t-16 -14.5t-8.5 -20.5t-7.5 -32.5q0 -1 -2 -10t-3.5 -17.5 t-3.5 -31.5t-3.5 -51t-2.5 -77.5t-1 -110.5q0 -245 3 -308q3 -48 73 -60q21 -3 77 -6l-1 -40q-151 26 -232.5 25.5t-188.5 -23.5z" />
<glyph unicode="2" horiz-adv-x="827" d="M43 20q9 7 48 35.5t69.5 51t78.5 63t85 76t78 83.5t68 93t44.5 97.5t17.5 102.5q0 84 -44 128t-115 44q-51 0 -94 -20t-65 -41t-52 -58l-31 22q42 68 119 113t160 45q121 0 191.5 -54.5t70.5 -158.5q0 -94 -101.5 -213.5t-343.5 -315.5q207 -15 268.5 -14.5t182.5 10.5 q12 0 23 3t19 6.5t18 12t15.5 14t15.5 19.5t14.5 21.5t17 27t18.5 28.5l25 -17q-107 -168 -144 -266q-11 2 -19 9t-13 14.5t-22 13.5t-44 6q-368 0 -445 -2t-104 -9z" />
<glyph unicode="3" horiz-adv-x="636" d="M63 -428q186 45 281.5 146.5t95.5 238.5q0 66 -22.5 119.5t-63.5 90t-75 57t-80 41.5q-3 0 -20.5 -8t-40 -17.5t-34.5 -12.5l-12 33q45 18 82 35t86.5 49t82.5 67t57 87t24 111q0 78 -55 129t-93 51q-39 0 -74 -13.5t-49.5 -24t-46.5 -36.5l-20 23q33 49 115.5 83.5 t140.5 34.5q87 0 143 -66.5t56 -152.5q0 -68 -54 -133t-176 -160q112 -38 183 -123.5t71 -212.5q0 -86 -43.5 -163t-105.5 -128.5t-134.5 -91.5t-127 -59t-86.5 -24z" />
<glyph unicode="4" d="M16 6q75 80 369.5 433t321.5 424l32 -18q-4 -12 -10.5 -28t-11 -29t-4.5 -29q-5 -134 -10 -363.5t-7 -310.5q59 -2 102 -0.5t73 12t51 34.5t36 69q15 -8 25 -13q-48 -128 -84 -210q-45 25 -203 25q0 -293 15 -378q-69 -41 -106.5 -71t-57.5 -66q-20 8 -27 20 q11 20 19.5 40t14.5 45t10.5 43t7.5 50.5t4.5 50t2 59t1 60t0.5 71v74.5q-295 0 -401.5 -3t-147.5 -15q-5 15 -15 24zM135 85h447q0 29 0.5 104t0 116.5t-1.5 101t-4 103.5t-8 77q-264 -328 -434 -502z" />
<glyph unicode="5" horiz-adv-x="1067" d="M181 -410q92 3 188 67t162 173t66 227q0 49 -19 95t-58.5 86.5t-112 61t-168.5 11.5q42 252 51 495q50 1 141 3t146 3.5t69 3.5q19 3 35.5 12.5t25 18t25.5 27t27 28.5l24 -12q-20 -28 -51.5 -84.5t-53.5 -87.5t-38 -31q-32 1 -147.5 -2.5t-178.5 -3.5q-9 -150 -16 -246 q53 4 108.5 -4.5t111.5 -33.5t99.5 -63t71 -99t27.5 -136q0 -105 -52.5 -205t-132.5 -169t-172 -113.5t-174 -51.5q1 18 -4 30z" />
<glyph unicode="6" horiz-adv-x="1200" d="M127 438q0 301 169 531t441 321q13 -17 21 -28q-253 -136 -378.5 -319t-125.5 -443q0 -85 20 -165.5t58.5 -148t102.5 -108.5t143 -41q89 0 146.5 71t57.5 166q0 99 -32.5 187t-101.5 147.5t-161 59.5q-68 0 -139 -78l-20 16q4 20 41.5 52t97 59.5t111.5 27.5 q117 0 210 -115t93 -265q0 -101 -55.5 -191t-142 -142t-175.5 -52q-74 0 -137.5 29.5t-107.5 77.5t-75.5 108.5t-46 122.5t-14.5 120z" />
<glyph unicode="7" horiz-adv-x="1091" d="M84 598q74 201 86 264l25 2q11 -16 22.5 -23t18.5 -8t26 -2q200 -7 426 -4.5t250 9.5q10 -21 16 -29q-35 -29 -184.5 -299.5t-283.5 -544.5t-130 -311q-9 1 -24 2t-50 2t-57 0q331 555 557 1003q5 11 -1.5 23t-18.5 14q-26 2 -76 7.5t-67.5 7t-56.5 3.5t-69 1.5t-76.5 -3 t-105.5 -7.5q-14 -1 -38 -2t-36.5 -2t-30.5 -4.5t-29 -10.5t-23.5 -19t-22 -31t-16.5 -46q-18 5 -31 8z" />
<glyph unicode="8" horiz-adv-x="1136" d="M119 272q0 59 19 111t44 88t72 76t79 61.5t89 57.5q-59 44 -92 71t-72.5 68.5t-57.5 84.5t-18 91q0 149 79 230t185 81q185 0 252 -86q66 -85 66 -188q0 -53 -17 -98.5t-52.5 -83.5t-69 -65t-85.5 -61q35 -24 49.5 -34t46.5 -33.5t47 -37t40.5 -37.5t38 -42t29.5 -44 t25 -50t14 -54t6 -61q0 -141 -109 -236t-256 -95q-140 0 -246 79.5t-106 206.5zM246 354q0 -74 36 -152t99 -131t131 -53q56 0 97 17t62 40t33 56.5t14.5 56t2.5 48.5q0 83 -28 150.5t-77 119.5t-133 115q-6 4 -18.5 13t-18.5 14q-96 -65 -148 -132t-52 -162zM254 1096 q0 -51 15 -97.5t37 -81.5t59.5 -71.5t69.5 -61t80 -57.5q72 50 110.5 101t38.5 116q0 51 -15.5 105t-44 102t-75.5 78.5t-103 30.5q-71 0 -121.5 -47.5t-50.5 -116.5z" />
<glyph unicode="9" horiz-adv-x="1200" d="M186 380q5 101 65.5 188t149 134t178.5 43q91 -5 164 -53.5t114.5 -120.5t61.5 -151.5t16 -152.5q-10 -200 -97.5 -369.5t-231 -284t-325.5 -164.5q-12 17 -19 29q260 123 394.5 299t148.5 436q5 85 -11 166.5t-51 150.5t-96.5 113.5t-140.5 48.5q-89 4 -150.5 -64 t-66.5 -163q-5 -99 23 -188.5t94 -152t157 -67.5q68 -4 143 71l20 -18q-5 -19 -44 -49.5t-100 -55t-113 -21.5q-116 6 -203.5 126t-79.5 270z" />
<glyph unicode=":" horiz-adv-x="407" d="M71 98q0 14 19 22q63 32 94 93q10 24 22 24q10 0 20 -24q30 -58 98 -93q21 -8 21 -22q0 -15 -21 -23q-71 -36 -98 -89q-9 -22 -20 -22q-13 0 -22 22q-28 55 -94 89q-19 8 -19 23zM71 708q0 14 19 22q62 32 94 94q9 23 22 23q11 0 20 -23q30 -59 98 -94q21 -8 21 -22 q0 -15 -21 -23q-71 -36 -98 -89q-9 -22 -20 -22q-13 0 -22 22q-28 55 -94 89q-19 8 -19 23z" />
<glyph unicode=";" horiz-adv-x="411" d="M71 101q0 6 3 9.5t6 5t10 4.5q61 31 93 94q9 23 22 23q12 0 21 -23q31 -60 97 -94q1 0 4 -1q17 -9 18 -18q0 -8 -4 -28t-20.5 -60t-42 -80t-75.5 -87.5t-115 -82.5l-17 26q57 35 99 94.5t23 100.5q-23 52 -103 93q-19 8 -19 24zM71 708q0 14 19 22q62 32 94 94 q9 23 22 23q11 0 20 -23q30 -59 98 -94q21 -8 21 -22q0 -15 -21 -23q-71 -36 -98 -89q-9 -22 -20 -22q-13 0 -22 22q-28 55 -94 89q-19 8 -19 23z" />
<glyph unicode="&#x3c;" d="M104 414l676 430l21 -31l-572 -367l559 -380l-57 -80z" />
<glyph unicode="=" d="M70 293v80h806v-80h-806zM70 547v80h806v-80h-806z" />
<glyph unicode="&#x3e;" d="M147 16l572 367l-559 381l57 80l627 -428l-676 -430z" />
<glyph unicode="?" horiz-adv-x="804" d="M130 98q0 14 20 22q62 32 93 93q10 24 22 24q11 0 21 -24q30 -59 97 -93q21 -8 21 -22q0 -15 -21 -23q-70 -36 -97 -89q-9 -22 -21 -22q-13 0 -22 22q-29 56 -93 89q-20 8 -20 23zM215.5 1419q7.5 6 57.5 15h1q15 -40 22.5 -56t15 -31.5t17.5 -19t19 -5t31 -1.5 q76 0 148.5 -63t116.5 -161.5t44 -199.5q0 -64 -9.5 -114.5t-24.5 -85t-41 -59t-52.5 -39t-65 -22t-73 -10t-82.5 -2.5q-35 0 -45.5 -19.5t-4.5 -45t13.5 -62t3.5 -59.5h-80q13 101 9 161.5t-13 93t-3 48t40 27.5q185 -34 273 12t88 158q0 146 -106.5 230t-283.5 60 q16 127 -14 219q-9 25 -1.5 31z" />
<glyph unicode="@" horiz-adv-x="1642" d="M76 322q0 168 66 321t177 264t264.5 176.5t321.5 65.5q98 0 193.5 -24.5t177.5 -73.5t145 -115.5t99 -156t36 -189.5q0 -73 -26 -146t-68 -131.5t-85 -103t-88 -77.5q-176 -130 -309 -130q-29 0 -47 15.5t-25 40.5t-9.5 57.5t1.5 67.5q-68 -73 -148 -121.5t-134 -48.5 q-71 0 -116.5 58.5t-45.5 141.5q0 139 87 264t195 183q25 13 50.5 23.5t64 21t59 15.5t77 17.5t75.5 16.5q17 4 35 21t26 33l96 9q-10 -19 -31 -63.5t-33 -67.5q-78 -174 -111 -378q-19 -122 -19 -162q0 -54 28 -54q44 0 101 16t100 53q210 180 210 423q0 236 -165 366.5 t-437 130.5q-132 0 -250.5 -57t-206 -156t-139 -241t-51.5 -305q0 -133 52.5 -248.5t139 -193.5t198.5 -122.5t231 -44.5q182 0 342 71.5t282 192.5q5 -4 12 -10.5t11 -11.5q-120 -141 -298 -236.5t-372 -95.5q-140 0 -272.5 49.5t-236.5 138t-167 222t-63 289.5zM588 298 q0 -79 32 -130t98 -51q40 0 91 31t95 75q11 46 34 137.5t31 126.5q20 82 20 125q0 25 -8 33q-13 8 -41.5 15.5t-42.5 7.5q-40 0 -86 -17.5t-77 -41.5q-61 -47 -103.5 -128t-42.5 -183z" />
<glyph unicode="A" horiz-adv-x="1472" d="M47 33q33 4 57.5 14.5t40.5 28.5t23.5 30.5t19.5 36.5q71 143 244 552t287 696q16 45 18 63l41 -4q2 -8 19 -51q123 -354 281 -764.5t216 -523.5q23 -43 50 -57.5t88 -24.5l-5 -37q-117 4 -209 4q-148 0 -233 -10l-6 37q68 3 96 29q20 19 20 48q0 11 -3 23 q-14 58 -34.5 117t-52 139.5t-44.5 116.5q-95 6 -271 10q-95 2 -161 1q-57 0 -93 -1q-14 -34 -39 -92t-38.5 -89t-31.5 -77.5t-32 -89.5q-5 -16 -6 -28.5t4 -23.5t11 -19.5t21 -16t27 -13t35.5 -12t40.5 -11t47 -11.5l-6 -43q-98 12 -208 16q-37 2 -72 2q-71 0 -136 -6z M469 584q100 -11 463 -11q-102 268 -232 584q-155 -387 -231 -573z" />
<glyph unicode="B" horiz-adv-x="1175" d="M61 29q33 1 57.5 7t48 21t37.5 45t17 74q12 160 12 703q0 209 -4 319q-3 97 -25 137t-75 54q-31 9 -66 12l5 41q139 -21 229 -21q54 0 140.5 8.5t142.5 8.5q75 0 147 -23t131 -65t95 -108.5t36 -145.5q0 -117 -84 -201.5t-237 -108.5q89 -11 169.5 -42t147 -80 t106 -121.5t39.5 -159.5q0 -89 -32 -158.5t-83.5 -113t-122 -71.5t-141.5 -39t-149 -11q-75 0 -164 4t-133 4q-162 0 -242 -10zM383 172q3 -76 20 -88q46 -33 162 -33q171 0 278 81.5t107 232.5q0 134 -74 232t-210 128q-53 12 -106.5 15t-176.5 3q-2 -200 -2 -342.5 t2 -228.5zM383 786q92 0 178 13q109 19 178.5 86.5t69.5 191.5q0 134 -86.5 223t-230.5 89q-45 0 -64 -11q-26 -19 -31 -55q-7 -32 -12 -241q-3 -131 -3 -214q0 -49 1 -82z" />
<glyph unicode="C" horiz-adv-x="1363" d="M47 705q0 135 31 249t81.5 193t120.5 141t142.5 99t153.5 61t148 32.5t130 8.5q32 0 62 -2t59 -7t49 -9t48.5 -13t40.5 -13t42 -14.5t37 -13.5q30 -11 63 -11q30 0 62 9l12 -10q-43 -94 -59 -262q-2 -32 -41 -6q2 20 2 37q1 36 -7 62q-10 38 -30.5 58t-63.5 45 q-50 31 -142.5 59.5t-168.5 28.5q-267 0 -427.5 -188t-160.5 -514q0 -141 43 -260.5t111 -198t152.5 -133.5t165.5 -79.5t153 -24.5q162 0 279.5 84t144.5 209l43 -7q-9 -41 -38 -133.5t-40 -138.5q-11 -2 -52.5 -12t-54.5 -13t-50 -11t-55 -11t-51 -8t-56.5 -7t-53.5 -4 t-59 -2q-157 0 -298.5 56t-244 152t-163 232t-60.5 290z" />
<glyph unicode="D" horiz-adv-x="1632" d="M63 -8v39h14q75 1 105 21q34 22 41 102q11 128 17 547q2 120 2 220q0 252 -11 384q-4 33 -13 53t-31 30t-43 13.5t-66 7.5l2 41q37 -4 194 -4q25 0 196 7t249 7q141 0 269 -29.5t237.5 -90t189.5 -146.5t125 -207t45 -264q0 -113 -28.5 -212t-77 -172.5t-115 -133.5 t-140 -99.5t-153.5 -66.5t-155 -39t-146 -12q-96 0 -221.5 6t-196.5 6q-149 0 -289 -8zM396 704q-2 -152 -2 -269q0 -231 7 -314q1 -16 7.5 -23t21.5 -10q175 -53 295 -53q320 0 497 185t177 523q0 129 -41.5 241t-110 189.5t-157 134t-181.5 83t-184 26.5q-186 0 -287 -45 q-9 -4 -13 -9t-5 -11.5t-2 -24.5q-16 -165 -22 -623z" />
<glyph unicode="E" horiz-adv-x="1308" d="M57 20q82 14 106 27q38 21 44 62q29 220 33 579q1 53 0 105q0 292 -17 510q-3 55 -36.5 78.5t-102.5 31.5v29q305 -2 525 -3q471 0 548 11q12 -6 13 -15.5t-6 -53.5q-17 -110 -29 -230l-39 2q5 37 5 67q0 26 -4 50q-8 48 -42 67q-69 37 -197 49q-80 8 -153 8 q-43 0 -85 -2q-110 -8 -182 -24q-18 -4 -20 -14q-10 -83 -16.5 -275.5t-5.5 -312.5q41 -1 102 -1q73 -1 176 1q191 4 268 14q13 2 23.5 9.5t20 23.5t14.5 25.5t12.5 33.5t8.5 28l7 28l35 -4q-9 -72 -9 -207q0 -8 -1 -16q0 -124 8 -197l-41 -2q-3 172 -86 186 q-142 23 -385 23q-73 0 -153 -2v-89v-114t0.5 -108.5t2.5 -116.5t6 -92t9 -78q3 -20 14 -23q29 -14 111.5 -24.5t185.5 -12.5h16q95 -1 195 21q108 24 172 73q86 67 137 197l35 -12q-83 -266 -117 -342q-35 10 -493 12q-32 0 -63 1q-406 0 -544 -19z" />
<glyph unicode="F" horiz-adv-x="1206" d="M61 1399v39q73 -1 180 -3.5t173 -3.5t154 -3q89 -2 145 -2h58.5h64.5q67 0 110.5 2t85.5 4.5t68 7t41 10.5q1 -1 3 -2q5 -3 5 -9q0 -3 -1 -10q-16 -91 -18 -278l-47 6q0 74 -12.5 111.5t-44.5 52.5q-60 27 -162 38q-93 10 -174 10h-15q-88 -1 -237 -7q-14 0 -14 -19 q-11 -123 -16 -565q54 -6 110 -9t104 -3q16 0 31 -1q31 0 60 1q44 1 79 3t60.5 4t41.5 3.5t17 1.5q19 2 29.5 6t21.5 17t16.5 41.5t8.5 75.5l45 -7q-4 -35 -4 -383h-51q2 24 2 44q0 50 -11 72q-15 30 -57 38q-31 6 -71.5 10.5t-74 7.5t-90 6.5t-84.5 4.5t-94.5 4t-86.5 4 q-4 -70 -9 -531q0 -34 9 -60t29 -42t39.5 -26t52.5 -15t56 -7t60 -3l-8 -60q-121 26 -313 26q-112 0 -248 -9l-8 45q93 9 119.5 33t33.5 112q23 222 25 568q0 35 1 68q0 296 -20 472q-4 32 -10 49t-23 32.5t-49 21.5t-86 6z" />
<glyph unicode="G" horiz-adv-x="1533" d="M47 731q0 131 46.5 247t127 202t186.5 148.5t228 94t248 31.5q76 0 134 -9.5t121 -28.5t79 -23q11 -3 19.5 -3t13.5 0.5t12 7t9 9.5t10.5 16.5t12.5 18.5l27 -8q0 -47 14 -159t31 -171l-41 -10q-20 57 -57 107t-95 94.5t-144.5 70t-192.5 25.5q-93 0 -174 -23t-142 -61.5 t-111 -92t-83 -112.5t-56 -124t-33 -126t-10 -119q0 -172 87.5 -331t243 -260t337.5 -101q103 0 172.5 21t134.5 61q32 26 35 74q3 49 3 105q0 112 -11 249q-3 48 -23 71.5t-80 30.5q-30 3 -86 3q-34 0 -77 -1l2 47q82 -6 172 -6q161 0 344 19l8 -43q-50 -7 -67 -32.5 t-19 -84.5q-4 -302 -4 -371v-18q0 -9 1 -16.5t4 -14.5t4.5 -11t7.5 -11t8.5 -9.5l11.5 -11.5l12 -12l-2 -19q-57 -9 -179 -32.5t-215.5 -36t-177.5 -12.5q-170 0 -319.5 51.5t-263 145.5t-179 237t-65.5 317z" />
<glyph unicode="H" horiz-adv-x="1785" d="M57 20q90 11 121 32.5t37 88.5q21 340 21 666t-13 498q-6 65 -36 83.5t-117 20.5v41q59 0 159 -6t157 -6q2 0 5 -1q58 0 187 11l4 -37q-35 -4 -58 -7.5t-51 -10.5t-43 -18.5t-16 -26.5q-10 -73 -14 -164.5t-4 -225.5t-1 -182l1016 2v32q0 38 1 102q1 54 1 107 q-1 40 -1 81q-2 94 -9 190q-6 71 -43.5 96t-124.5 37l6 37q165 -16 260 -16q3 0 5 -1q93 0 212 17l4 -39q-68 -7 -104 -33.5t-37 -91.5q-12 -436 -12 -728q0 -266 10 -414q6 -78 47 -101q22 -12 103 -22l-3 -45q-106 17 -216 17q-128 0 -261 -23l-8 49q49 8 72.5 14t47 20 t32.5 38t10 63q10 202 10 378q0 82 -2 158l-1018 5q-1 -61 -1 -130v-71q1 -108 3 -235.5t2 -129.5q0 -56 44.5 -82.5t125.5 -36.5l-6 -43q-73 17 -159 21q-40 2 -78 2q-42 0 -82 -2q-74 -4 -179 -16z" />
<glyph unicode="I" horiz-adv-x="763" d="M61 35q118 3 152 13q66 18 84 85q6 22 8 51q16 214 16 530q-1 28 -1 56q-2 354 -17 498q-5 48 -16 75.5t-44 42.5t-55 18.5t-89 9.5q-19 2 -29 3l4 39q152 -16 306 -16q164 0 329 18l2 -43q-98 -2 -130 -11q-70 -21 -86 -110q-2 -8 -3 -16q-16 -135 -20 -511 q-1 -97 0 -185q0 -250 7 -418q1 -39 8.5 -63t19.5 -38.5t41 -21t58.5 -8.5t87.5 -2v-39q-201 10 -354 10q-168 0 -277 -12z" />
<glyph unicode="J" horiz-adv-x="790" d="M2 -435q0 10 33 29q34 20 69.5 34t40.5 12q34 -23 60 -23q9 0 18.5 2.5t30 23.5t36.5 57.5t31 114.5t21 185q18 326 20 715v51q0 350 -20 512q-4 32 -12 55t-24.5 38.5t-30 24t-44 14t-51 7.5t-65.5 5h-5t-5 0.5t-5 0.5l2 41q161 -19 353 -19q133 0 280 9v-45 q-18 1 -36 1t-35 -1q-36 -3 -65 -11.5t-49 -38t-24 -79.5q-3 -42 -5.5 -104t-3.5 -157t-1.5 -170.5t-1 -216.5t-0.5 -222q0 -179 -8 -551q-160 -216 -258 -295q-31 -25 -84.5 -45.5t-87.5 -20.5q-28 0 -49 22q-25 27 -25 45z" />
<glyph unicode="K" horiz-adv-x="1460" d="M61 37q79 6 109.5 29.5t36.5 95.5q23 282 25 600v88q0 255 -13 407q-3 37 -7 56t-10.5 34.5t-26 23t-40 12t-65.5 10.5l4 39q12 -1 57.5 -3t59.5 -3t54.5 -2.5t61 -1t58.5 0.5t66.5 2t66 5t75.5 8l5 -35q-25 -2 -34.5 -3t-31 -4t-30 -6.5t-24 -10t-22.5 -15.5t-16 -21.5 t-13 -29.5t-6 -39q-19 -246 -22 -569q76 75 203.5 197.5t205.5 199.5t125 129q60 70 60 98q0 24 -36.5 40.5t-86.5 16.5l-4 39q98 -6 189 -6q33 0 67 1q122 3 170 12l6 -41h-2q-28 -1 -74 -23q-48 -24 -86 -53q-90 -68 -189.5 -155.5t-241.5 -222t-183 -171.5l735 -623 q135 -111 186 -125l-8 -38q-3 1 -24 6.5t-49.5 9.5t-67.5 4q-68 0 -134 -3.5t-104.5 -7t-40.5 -3.5l-2 39q81 9 95 23q3 4 4 8q0 15 -31 44q-119 106 -236.5 205t-255 211t-190.5 156q0 -324 12 -527q3 -55 35 -73.5t143 -42.5v-39q-9 0 -132 6.5t-211 8.5h-32 q-70 0 -131 -7z" />
<glyph unicode="L" horiz-adv-x="1271" d="M57 0v45q57 8 86.5 16t48 25t23.5 39t6 65q1 53 5 196t5 226q4 189 4 338q0 186 -6 307q-1 31 -4 53t-12.5 36.5t-17 22.5t-27 13t-33.5 6.5t-45 3.5h-5t-4.5 0.5t-4.5 0.5l4 41q175 -11 268 -11q18 1 32 1q91 2 214 18l4 -51q-106 -9 -142 -29t-42 -82 q-27 -361 -26 -779q0 -158 3 -325q2 -58 30 -80.5t111 -25.5q100 -4 167 -3.5t100 3.5q111 11 186 31t117 52t62 66t32 84l43 -16q-1 -6 -8 -35t-10 -39.5t-10 -38t-11 -41.5t-11 -37.5t-12.5 -38.5t-12 -33t-13.5 -32t-14 -25q-22 7 -48.5 12t-57 7t-52 3t-51.5 2t-37 1 q-564 8 -565 8h-269z" />
<glyph unicode="M" horiz-adv-x="2060" d="M57 25q118 3 170.5 57.5t61.5 173.5q51 795 51 878v5q-3 136 -56 188q-22 21 -58 34t-64.5 17.5t-95.5 12.5l2 43q226 -11 339 -11q45 0 72 2q9 0 14.5 -2t9 -8t5 -11t4 -16t4.5 -18q46 -152 505 -999q30 -55 44 -82q83 159 239.5 450t248 464.5t100.5 201.5q4 18 20 18 q56 -2 135.5 -2t182.5 2v-41q-26 2 -47 2q-77 0 -109 -24q-41 -32 -51 -146q-4 -45 -4 -156q0 -212 15 -663q1 -29 2 -45.5t1.5 -42t1.5 -47.5q2 -55 11 -92t22.5 -60.5t40 -37t54.5 -19t75 -8.5v-45q-103 6 -211 6q-189 0 -391 -18l-4 41q129 23 183 78t54 180 q-4 605 -10 899q-267 -446 -490 -927q-84 -180 -106 -257h-24q-40 123 -123 300q-74 156 -240.5 471t-220.5 425q-16 -124 -30 -419.5t-17 -522.5v-15q0 -119 44 -163q47 -48 179 -47l-2 -47q-116 11 -218 13q-51 1 -89.5 1t-64.5 -1q-52 -2 -161 -9z" />
<glyph unicode="N" horiz-adv-x="1822" d="M59 1414v42q92 -19 177 -19q62 0 120 10q8 2 12 -4q22 -37 97.5 -118t212 -214t247.5 -239.5t304 -290t282 -268.5q2 66 7.5 195.5t7.5 191.5t2 161v22q0 87 -4 167q-4 90 -13 189q-4 47 -12 74t-30.5 52.5t-65.5 38.5t-113 19l4 33h7q29 0 102 -6q83 -6 161 -10 q24 -1 51 -2q64 0 150 6v-41h-4q-76 -1 -110 -37q-35 -38 -41 -139q-21 -513 -21 -1020q0 -22 4.5 -120t5.5 -107l-45 -3q-19 72 -171 238q-106 115 -268.5 270t-414 386.5t-360.5 334.5q-1 -52 -4 -231.5t-4 -278.5q-1 -66 -1 -152q1 -42 1 -90q0 -144 4 -245q1 -23 2 -35 t6.5 -32t15.5 -31.5t29.5 -27.5t47 -26t69.5 -20.5t96 -18.5l-4 -41q-132 18 -259 17.5t-249 -17.5l-4 45q40 3 62.5 6.5t43 12t29.5 19.5t16 34.5t8.5 50t2.5 72.5q1 83 3.5 231.5t4.5 267t3 239.5q0 60 0.5 109.5t-0.5 87.5q-1 76 -5 93q-37 153 -195 169z" />
<glyph unicode="O" horiz-adv-x="1624" d="M47 709q0 110 31.5 212.5t86 185.5t129 151.5t159.5 114.5t179 71.5t187 25.5q156 0 297 -60t242.5 -161t161 -241t59.5 -293q0 -114 -34 -224.5t-99.5 -204.5t-154 -165.5t-205 -112.5t-244.5 -41q-133 0 -247.5 32t-193.5 83.5t-143 120.5t-102.5 139t-64 142.5 t-35 127.5t-9.5 97zM215 834q0 -173 57 -324.5t150.5 -254t216 -161.5t252.5 -59q99 0 184.5 34t146 91.5t104 133t64.5 159.5t21 170q0 112 -28 223t-84 211t-133.5 177.5t-185 123t-228.5 45.5q-107 0 -205.5 -42.5t-171.5 -117t-116.5 -181t-43.5 -228.5z" />
<glyph unicode="P" horiz-adv-x="1218" d="M61 1423l2 41q6 0 39.5 -1.5t85 -3t101.5 -1.5q65 0 156 6t116 6q162 0 303 -61t229.5 -178t88.5 -264q0 -76 -44 -153.5t-119.5 -141t-188 -104t-238.5 -40.5q-106 0 -191 19q0 -83 4 -227.5t5 -176.5q0 -15 2 -26t3.5 -20t7.5 -16t10.5 -12t16.5 -9.5t20.5 -7.5 t28.5 -6.5t34 -5.5t42.5 -6.5t49.5 -8.5q-1 -8 -5.5 -24t-5.5 -19q-96 20 -260 20t-266 -22l-8 43q48 9 80.5 21t49 21t24.5 25.5t9 25.5t1 30v6.5v5.5q4 163 4 360q0 140 -2 296q-5 376 -23 521q-4 31 -36 52.5t-65 28.5t-61 7zM401 600q54 -12 177 -12q198 0 312 108 t114 269q0 143 -59.5 243t-160.5 152q-89 45 -196 45q-48 0 -82 -3.5t-50 -7.5t-25.5 -11.5t-10.5 -11t-2 -9.5q-8 -28 -16 -359q-4 -184 -4 -288q0 -83 3 -115z" />
<glyph unicode="Q" horiz-adv-x="1689" d="M84 711q0 203 109.5 378t286.5 275t374 100q111 0 220.5 -34t205.5 -100t169.5 -156t116 -210.5t42.5 -254.5q0 -240 -143 -427t-371 -264q127 -105 307 -187.5t311 -82.5q54 0 115 14l6 -36q-4 -1 -43 -10t-50 -11.5t-47 -9.5t-57.5 -9.5t-55 -5t-64.5 -2.5 q-128 0 -332.5 90t-331.5 207q-130 0 -241.5 32.5t-188 84.5t-138 121t-98 138.5t-60.5 141t-33 125t-9 93.5zM248 821q0 -149 49 -289.5t135.5 -250.5t217 -177t282.5 -67q120 0 217.5 51.5t159.5 138t95.5 196.5t33.5 230q0 154 -58 294.5t-149.5 237t-205.5 153.5 t-226 57q-118 0 -220.5 -44t-175 -120t-114 -182.5t-41.5 -227.5z" />
<glyph unicode="R" horiz-adv-x="1566" d="M57 1389l6 43q5 0 79 -5.5t134 -5.5q66 0 179.5 16.5t181.5 16.5q97 0 181 -24.5t141.5 -64.5t98.5 -90.5t60 -103t19 -102.5q0 -68 -24 -126.5t-59 -96t-80.5 -67.5t-82 -45t-70.5 -23q205 -305 261 -381q173 -235 302 -313q82 -50 163 -50h9v-37q-26 -3 -52 -3 q-58 0 -114 14q-82 20 -148.5 52.5t-141.5 100t-126 122t-122.5 151.5t-110.5 155t-108 164q-24 -4 -45 -4q-102 0 -201 18q-1 -56 -1 -113q0 -243 11 -481q1 -19 11 -32.5t29.5 -22t38 -14t47.5 -12.5t46 -13l-8 -43q-67 21 -163 25q-39 2 -76 1q-54 1 -103 -3 q-83 -6 -149 -21l-7 41q66 7 109.5 37.5t44.5 85.5q10 245 14 378q3 97 3 244v118q-2 229 -15 417q-3 60 -40.5 78.5t-121.5 18.5zM387 748q88 -15 219 -15q78 0 141 19t102 49.5t65 70.5t36.5 79.5t10.5 80.5q0 67 -25.5 136t-82 131.5t-134.5 91.5q-29 9 -99 13 q-15 1 -30 1q-55 0 -111 -12q-71 -16 -73 -58q-19 -313 -19 -530v-57z" />
<glyph unicode="S" horiz-adv-x="1089" d="M43 371l37 8q45 -166 108 -221q50 -41 172 -81t256 -40t208.5 70t74.5 180q0 47 -11 87t-28 69t-46 56t-57 45t-69 38t-73 33t-79.5 32t-78.5 33q-90 40 -131 66q-195 121 -195 298q0 78 33.5 150.5t92 127t145 87.5t186.5 33q124 0 254 -37q36 -9 64 -9q55 0 77 36 l25 -7q-5 -33 -12 -76.5t-8 -54t-1 -39t4 -53t13 -74.5q2 -15 -2 -19t-27 -5q-18 132 -109 203q-47 37 -121 64.5t-151 27.5q-147 0 -237.5 -74t-90.5 -190q0 -59 21 -108t52 -81t79 -61t88.5 -46t94.5 -38q15 -5 22 -8l36 -13.5t47 -18t52 -23t57 -29.5t55.5 -36t54 -44.5 t46 -53.5t38 -64.5t24 -76t9.5 -88.5q0 -69 -26.5 -130t-71.5 -105t-103 -76t-122 -48t-127 -16q-127 0 -224.5 15.5t-145.5 31t-56 15.5q-19 0 -21 -43l-39 6q2 23 2 46q0 46 -8 94q-12 72 -57 235z" />
<glyph unicode="T" horiz-adv-x="1523" d="M35 1204q85 181 100 260q19 0 35.5 -18.5t46.5 -20.5q92 -6 551 -6q38 0 78 1q530 0 575 3q24 1 86 19l15 -10q-3 -8 -11 -26.5t-10 -23.5t-8 -20.5t-8.5 -24.5t-7.5 -26t-8.5 -34.5t-8.5 -42t-10 -54.5l-49 12q1 6 9 32t11 39.5t0 24.5q-23 26 -71 41t-136 19 q-77 3 -133 3q-8 -1 -16 -1q-61 0 -186 -4q-17 -567 -18 -884q0 -159 5 -255q5 -106 45 -132t171 -36q4 -1 6.5 -1t6.5 -0.5t7 -0.5l-10 -55q-153 27 -296 27q-17 -1 -33 -1q-158 -4 -302 -33q-1 4 -4 18.5t-8 26.5q154 31 193 50t40 65q11 187 17 443q3 140 3 273 q0 111 -2 216q-5 232 -24 276q-53 11 -245.5 11t-258.5 -33q-24 -12 -36 -20t-30.5 -35.5t-35.5 -73.5z" />
<glyph unicode="U" horiz-adv-x="1693" d="M47 1409l4 39q98 -12 241 -12q130 0 296 10l2 -41q-64 0 -98.5 -4t-62 -19.5t-39 -44t-15.5 -77.5q-6 -66 -9 -137t-3.5 -158.5t-0.5 -147.5t1.5 -172t1.5 -164q0 -166 55 -260q53 -87 159 -136.5t261 -49.5q160 0 276.5 48.5t163.5 113.5q38 53 60 129.5t32 199.5 q21 212 21 401q0 214 -27 398q-4 25 -17.5 41t-41 22.5t-53.5 8.5t-72 2l2 45q40 -6 200 -9q54 -1 98 -1q88 0 136 4l-4 -37q-19 1 -36 1q-54 0 -80 -14q-34 -20 -34 -83q0 -14 -0.5 -135.5t-1.5 -167t-4 -144.5t-8.5 -177.5t-13.5 -156.5q-11 -128 -34 -212.5t-73 -155.5 q-59 -84 -195 -136.5t-305 -52.5q-188 0 -298 35.5t-203 124.5q-62 57 -92 136q-25 66 -26 170q0 20 1 42q5 186 5 362v125q-2 236 -11 328q-2 23 -6 39.5t-7 28.5t-12 20t-14 12.5t-21.5 7.5t-24.5 4t-33.5 3.5t-39.5 3.5z" />
<glyph unicode="V" horiz-adv-x="1757" d="M31 1395l2 49q86 -7 244 -8q20 0 39 -1q132 0 216 7l7 -43q-144 -3 -144 -39q0 -20 25 -86q32 -78 67.5 -159.5t61 -138.5t77 -166t74.5 -157t97 -202.5t104 -217.5q32 66 90 186.5t79 163.5t61.5 128t56.5 120t44.5 96.5t45 101.5t38 91t42.5 105q24 63 24 104 q0 28 -37 51t-94 23l6 47q143 -13 263 -13q75 0 141 5l2 -37q-70 -10 -118.5 -52t-84.5 -118q-15 -31 -121 -247.5t-217.5 -447t-167.5 -352.5q-30 -64 -77 -223h-33q-45 106 -95 211q-114 244 -293.5 613t-203.5 415q-21 41 -28.5 55.5t-23.5 42.5t-22.5 35t-21 23t-24 19 t-26.5 9t-34 6.5t-41 0.5z" />
<glyph unicode="W" horiz-adv-x="2336" d="M31 1415v35h23q79 0 147 -6q64 -6 129 -6h28q79 2 240 20l6 -41q-75 -7 -127.5 -29.5t-52.5 -60.5q0 -35 16 -88q50 -150 172.5 -484.5t186.5 -482.5l321 748q-17 53 -62.5 150.5t-78.5 158.5q-29 53 -53 69q-23 16 -77 15h-7l2 42q185 -9 269 -9h16q82 1 245 12v-41 q-90 -2 -129 -22q-42 -21 -49 -51q-2 -10 -2 -21q0 -23 10 -49l27 -81l33 -99t35 -103t41 -117.5t41 -116t46 -126t46 -119.5t50 -125t50 -115q93 212 196.5 513t138.5 460q4 19 4 36q0 23 -8 43q-14 34 -46 55.5t-75.5 32t-96.5 11.5l2 37q173 -5 323 -5q117 0 221 3v-35 h-5q-47 -1 -85 -19q-40 -20 -69 -56.5t-49 -74.5t-39 -89q-62 -173 -204 -552.5t-189 -514.5q-37 -106 -52 -162h-51q1 19 -58 195q-46 135 -154.5 436.5t-123.5 345.5q-224 -472 -362 -881q-6 -19 -17 -51.5t-16 -46.5h-35q-31 90 -92 266q-233 687 -350 977 q-42 102 -72 143q-29 39 -66 54t-112 22z" />
<glyph unicode="X" horiz-adv-x="1677" d="M32 29h7q31 -1 62 7q34 8 53 16t45.5 29.5t29.5 24.5l23 23q50 48 139.5 160t191 244.5t138.5 177.5q-249 354 -447 589q-62 74 -108 100q-44 25 -105 24h-5l1 32q6 0 71 -4t153 -6h47q89 0 247 4v-35h-26q-43 0 -61 -5q-33 -9 -33 -35q0 -15 12 -36q39 -71 141 -223.5 t205 -284.5q106 133 161.5 214.5t127.5 211.5q18 29 18 60q0 5 -1 11q-4 38 -33 59q-46 33 -132 34l7 35q105 -14 185 -16q27 -1 69 -1q84 0 227 3l2 -33q-14 1 -26 1q-40 0 -60 -8q-26 -10 -68 -46q-17 -16 -56.5 -63.5t-93.5 -117.5t-102 -133t-107.5 -142t-84.5 -112 q333 -457 514 -683q13 -16 22.5 -27t22 -19t17 -12t20.5 -7t20 -4t27 -2t30 -2l3 -47q-109 14 -245 14q-131 0 -288 -13l-4 41q72 4 110 23q26 13 30 34.5t-5 40.5t-27 48l-6 9q-42 69 -92 142.5t-129.5 186t-111.5 159.5q-203 -261 -326 -453q-19 -29 -27.5 -49t-5.5 -49.5 t28 -54.5q37 -37 133 -46l-7 -38q-79 16 -195 20q-51 2 -94 1q-56 -1 -100 -3q-78 -4 -126 -10z" />
<glyph unicode="Y" horiz-adv-x="1533" d="M31 1415v43q184 -12 351 -12q97 0 188 4v-37h-12q-60 0 -92 -9q-36 -11 -38 -43q-1 -3 -1 -6q0 -29 22 -59q59 -93 393 -542q101 150 142.5 212.5t99.5 156t97 166.5q9 17 9 32q0 35 -44 64q-44 30 -128 33l8 49q74 -23 210 -29q29 -1 58 -1q104 0 200 16l-7 -36 q-141 -19 -232 -149q-227 -315 -381 -578q0 -3 -1 -160v-117q0 -80 1 -137q1 -97 5 -147q3 -30 5.5 -41t17 -21.5t39 -15.5t74.5 -14q12 -2 18.5 -3t18 -3t21.5 -4l-2 -50q-98 21 -269 22h-13q-161 0 -270 -24l-3 44q11 2 38.5 5.5t40 5.5t34 7.5t32.5 13t23.5 19.5t18 30 t6.5 41q5 89 5 219t-5 299q-56 100 -214 321t-255 333q-56 64 -98 83t-111 19z" />
<glyph unicode="Z" horiz-adv-x="1513" d="M40 1169q24 55 41 102t26.5 76t14 52.5t7.5 35.5t2.5 20t3.5 10.5t6.5 3.5t16.5 2q17 -56 112 -58q204 -5 412 -7q156 -1 311 -2h103q206 0 241 1q18 0 44 10l17 -25q-22 -19 -22 -20q-74 -92 -286 -362.5t-401.5 -504.5t-360.5 -429q138 -12 334 -13h86q113 0 126 2 q229 11 357 62.5t192 169.5l33 -21q-65 -110 -149 -321q-15 1 -21.5 6t-7 11.5t-7 12t-22.5 6.5q-190 12 -781 12q-185 0 -409 -1l-6 16q73 77 187 203q237 265 480.5 567.5t404.5 534.5q1 1 2.5 4t2.5 4q-133 13 -378 17q-89 1 -155 1q-115 0 -157 -4q-56 -4 -89.5 -8 t-70.5 -12.5t-60 -21.5t-50 -35.5t-50.5 -52.5t-51.5 -75z" />
<glyph unicode="[" horiz-adv-x="503" d="M76 -471v1939h373v-43l-285 -32v-1788l285 -31v-45h-373z" />
<glyph unicode="\" horiz-adv-x="784" d="M29 1460l63 20l661 -2072l-62 -20z" />
<glyph unicode="]" horiz-adv-x="503" d="M55 -426l285 31v1788l-285 32v43h373v-1939h-373v45z" />
<glyph unicode="^" d="M192 826l251 548h63l251 -548l-30 -21l-253 394l-252 -394z" />
<glyph unicode="_" d="M0 -424h948v-63h-948v63z" />
<glyph unicode="a" horiz-adv-x="788" d="M66 131q0 63 20 113q2 6 10 14.5t15 11.5q86 50 171 71t224 40q0 40 3 103.5t3 72.5q0 76 -29 121q-24 32 -66 62t-87 30q-47 0 -78 -23.5t-31 -58.5q0 -19 8 -39l-116 -49q-13 32 -13 55q0 42 43 72q68 50 155 79.5t134 29.5q40 0 101 -47t79 -89q14 -33 19.5 -70.5 t5.5 -121.5q0 -39 -5 -133t-5 -170q0 -63 8 -99q16 -61 59 -61q24 0 86 25l13 -35q-186 -72 -197 -72q-7 0 -22.5 8t-37 36.5t-30.5 70.5q-94 -56 -167 -84.5t-153 -28.5q-71 0 -95.5 42t-24.5 124zM184 152q0 -57 28 -89t77 -32q46 0 110.5 23t102.5 61q-4 50 -4 123 q0 38 4 88q-36 6 -53 6q-44 0 -97 -9.5t-73 -19.5q-95 -47 -95 -151z" />
<glyph unicode="b" horiz-adv-x="956" d="M-29 1380q128 45 265 144l24 -2q-18 -82 -24 -176q-15 -217 -15 -625q12 5 61 29.5t81 38t83 27t95 13.5q101 0 188 -58.5t135.5 -148t48.5 -182.5q0 -98 -47 -186.5t-121.5 -148.5t-166.5 -95t-183 -35q-52 0 -125.5 22.5t-107.5 22.5q-45 0 -84 -34l-15 10q15 37 19 61 q10 53 14 226q8 228 8 514q0 130 -2 272q-3 137 -12 256q-3 41 -41 41h-74zM211 188q0 -37 31 -61q115 -92 245 -92q131 0 212 88t81 227q0 45 -10.5 96t-36 107.5t-62 101t-96 74t-131.5 29.5q-16 0 -30 -1t-29 -4t-24.5 -4.5t-25 -7t-22 -7.5t-24 -10t-21 -10t-24 -12 t-23.5 -12z" />
<glyph unicode="c" horiz-adv-x="829" d="M66 369q0 125 66.5 240t174 184t221.5 69q119 0 260 -78q-7 -11 -15.5 -25.5t-12.5 -21.5t-10 -16.5t-9 -13t-7 -9t-7.5 -7t-7 -4t-8 -2.5h-9.5t-12 1q-170 80 -268 80q-117 0 -174.5 -82.5t-57.5 -212.5q0 -106 43 -197.5t128 -149.5t194 -58q108 0 205 65l20 -25 q-165 -116 -313 -116q-25 0 -53.5 3t-68.5 13t-77 26.5t-75 46t-65 67.5t-44.5 95.5t-17.5 127.5z" />
<glyph unicode="d" horiz-adv-x="1013" d="M72 371q0 82 26.5 151t74.5 119.5t101 85.5t121 66q84 38 160 38q69 0 209 -40q8 137 8 257q0 160 -14 289q-2 45 -39 45q-9 0 -19 -2q-33 -9 -65 -14l-8 37q162 57 284 139l23 -12q-18 -119 -23 -205q-13 -174 -21 -418.5t-10.5 -383.5t-2.5 -206q0 -137 22 -272 q4 -26 29 -20l112 36l11 -32q-25 -8 -93 -32t-118 -41t-56 -17q-8 0 -14 6t-9 19.5t-4 21t-2 25t-1 18.5q0 5 -3 37.5t-3 50.5q-54 -31 -76.5 -42.5t-73 -34t-96 -31.5t-94.5 -9q-152 0 -244 106.5t-92 264.5zM178 473q0 -163 95 -278t245 -115q128 0 234 76v32 q0 59 2 185.5t2 225.5v63q0 38 -33 49q-12 4 -44.5 14t-49.5 15t-44.5 11.5t-52.5 9.5t-51 3q-85 0 -164 -51q-139 -86 -139 -240z" />
<glyph unicode="e" horiz-adv-x="847" d="M70 379q0 83 24.5 155.5t63.5 122t88.5 85.5t100 52.5t97.5 16.5q95 0 171 -50t122 -128q1 -1 3.5 -6l3 -6t3.5 -5t4.5 -5.5l5 -5t7.5 -5.5t9.5 -5.5t12.5 -6.5l-2 -21q-306 -55 -589 -116v-33q0 -153 82 -257t223 -104q120 0 252 86l14 -20q-73 -58 -166.5 -97.5 t-185.5 -39.5q-157 0 -250.5 112.5t-93.5 280.5zM197 483l354 78q46 11 56 23q6 7 6 17q0 9 -5 20q-28 62 -90 106q-60 43 -134 43h-3q-63 -2 -105.5 -47.5t-59.5 -106t-19 -133.5z" />
<glyph unicode="f" horiz-adv-x="618" d="M37 -12v37l49 8q61 8 76.5 38.5t17.5 104.5q4 254 4 383v205q-94 -4 -143 -4v59h145q4 228 27 328q21 97 70.5 160t136.5 127q66 50 121.5 76t130.5 26q93 0 192 -47q9 -10 9 -24q0 -16 -13 -38q-23 -41 -41 -51q-24 8 -86.5 30.5t-101 32t-74.5 9.5t-66.5 -13t-51.5 -31 t-38.5 -51t-27 -58t-19 -68.5t-13 -65.5t-9.5 -65q-13 -102 -13 -277h310v-61l-307 6q0 -66 -1.5 -198t-1.5 -197q0 -177 15 -295q1 -10 5.5 -17t8.5 -10.5t14.5 -5.5t16.5 -2.5t20.5 -1t20.5 -0.5q52 0 92 -4v-41q-34 0 -113.5 4t-113.5 4q-131 0 -248 -12z" />
<glyph unicode="g" horiz-adv-x="915" d="M38 -428q0 46 19.5 90.5t52.5 80.5t66.5 63t70.5 49q-40 16 -80 63.5t-40 85.5q0 9 7 16.5t27 17.5t42.5 20.5t65.5 30.5t85 42q-112 34 -191 125.5t-79 210.5q0 101 57 191t146 142t182 52q112 0 210 -74q90 21 146 21q80 0 100 -8q1 -6 1 -13q0 -24 -9 -48 q-11 -31 -22 -44q-29 11 -74 16q-65 9 -88 9q55 -117 55 -222q0 -58 -19 -107t-46.5 -82t-71 -63t-80.5 -48.5t-86 -41.5q-3 -1 -5 -2t-4.5 -2t-4.5 -2q-145 -69 -177 -94q-28 -22 -28 -43q0 -74 190 -74q26 0 75 2t75 2q127 0 210 -55.5t83 -165.5q0 -68 -40 -130 t-102.5 -105.5t-138.5 -76t-149.5 -48t-133.5 -15.5q-124 0 -210.5 61.5t-86.5 172.5zM108 -375q0 -51 28 -92t73.5 -64.5t98.5 -36t107 -12.5q53 0 116 13.5t126 39.5t105 73t42 106q0 45 -13 78t-32 50.5t-47.5 27t-50 12t-49.5 2.5q-20 0 -60.5 -2t-62.5 -2 q-106 0 -188 16q-78 -32 -135.5 -86t-57.5 -123zM184 545q0 -130 91 -229.5t212 -127.5q80 24 129 89.5t49 160.5q0 87 -25.5 166.5t-85.5 137t-143 57.5q-99 0 -163 -74t-64 -180z" />
<glyph unicode="h" horiz-adv-x="987" d="M-8 1405q31 13 76.5 31.5t66.5 27.5t50.5 23t53.5 29.5t50 35.5l28 -18q-23 -70 -26 -129q-22 -359 -25 -700q87 49 190 87.5t173 38.5q87 0 147 -57t74 -149q16 -120 16 -303q0 -38 -3 -110.5t-3 -109.5q0 -25 13 -36.5t38 -14.5l101 -16l-2 -39q-110 4 -181 4 q-72 0 -204 -8l-7 28l56 15q21 6 30.5 17.5t12.5 35.5q18 122 18 209q0 120 -16 258q-10 88 -54 135t-135 47q-153 0 -264 -65q-10 -187 -10 -445q0 -10 -1.5 -37.5t-1 -47.5t4.5 -36q6 -27 21 -41t43 -20l88 -14v-31q-55 4 -177 4q-153 0 -227 -4l-4 29l53 14 q32 9 46.5 28.5t15.5 59.5q22 522 22 1016v153q0 99 -57 99q-16 0 -44.5 -10.5t-37.5 -12.5z" />
<glyph unicode="i" horiz-adv-x="520" d="M84 -12q-3 3 -3 11t3 21l80 11q28 2 31 39q14 143 14 309q0 73 -8 225q-4 82 -58 82q-21 0 -53 -14l-6 39q69 25 141.5 68.5t124.5 88.5l21 -10q-2 -15 -8.5 -54t-8.5 -61q-14 -143 -14 -315q0 -96 8 -276q4 -117 70 -117q12 0 49 1t49 1l2 -35h-69q-193 0 -365 -14z M244 1307q0 33 26 57.5t60 24.5t59 -22.5t25 -55.5t-26 -57.5t-60 -24.5t-59 22.5t-25 55.5z" />
<glyph unicode="j" horiz-adv-x="468" d="M12 -682q0 79 60 164q8 12 32 44t36 49t26.5 46.5t21.5 56.5q27 102 27 480q0 205 -10 354q-1 33 -3.5 55.5t-10 50.5t-25 43t-43.5 15q-16 0 -66 -10l-8 26q162 59 293 176l29 -16q-27 -61 -27 -152q-4 -192 -4 -290q-3 -326 -6 -707q0 -55 -33 -96q-64 -85 -154 -156 q-3 -2 -16 -12t-16.5 -13t-14.5 -12.5t-15 -15l-12 -16.5t-11.5 -21t-8 -24t-6.5 -29zM244 1307q0 33 26 57.5t60 24.5t59 -22.5t25 -55.5t-26 -57.5t-60 -24.5t-59 22.5t-25 55.5z" />
<glyph unicode="k" horiz-adv-x="940" d="M-12 1391q23 11 71 32.5t76 35t66.5 36t70.5 47.5l21 -10q-10 -55 -14 -133q-9 -98 -13.5 -224t-5.5 -220t-2 -242.5t-2 -220.5q133 63 254 188q37 37 37 61q0 16 -19 31.5t-61 20.5v28q38 0 119 -2t119 -2q27 0 85 1t84 1v-31q-55 -5 -108 -24t-82 -36t-76 -48 l-219 -154q228 -237 479 -456q19 -17 34 -23t67 -16v-33q-198 6 -219 6q-62 0 -172 -4l-3 31q7 1 24 2t25 2t18.5 4t15 8.5t4.5 13.5q0 25 -375 396l-31 -21v-34q0 -110 10 -312q2 -27 29 -39q13 -6 86 -20l2 -29q-21 0 -68 1t-67 1q-174 0 -254 -8v27l67 18q32 7 46 27.5 t16 60.5q12 268 12 670q0 238 -6 475q-1 35 -4 54.5t-17 38.5t-40 19q-20 0 -72 -18z" />
<glyph unicode="l" horiz-adv-x="493" d="M4 20l43 13q60 19 90 61t33 115q8 168 8 483v174v96v63q0 47 -0.5 112.5t-3 100.5t-6.5 58q-7 35 -24 52.5t-56 17.5h-45l-8 33q154 51 293 143l16 -12q-19 -55 -22 -105q-15 -145 -15 -864q0 -274 4 -407q2 -53 22.5 -79.5t67.5 -33.5l84 -16v-29q-32 0 -99.5 2t-98.5 2 q-148 0 -277 -12z" />
<glyph unicode="m" horiz-adv-x="1587" d="M18 721q141 28 258 108l33 -12q-6 -123 -6 -145q257 139 363 139q69 0 120 -36.5t74 -94.5q195 111 365 111q49 0 86 -12t60 -37t38 -53.5t21.5 -71t9 -79t2.5 -87.5q0 -37 -2 -110t-2 -110q0 -51 8 -153q3 -30 37 -33l125 -10l-2 -35q-33 0 -103.5 1t-103.5 1 q-83 0 -219 -4l-2 27l43 8q37 6 50.5 27.5t20.5 66.5q19 163 19 258q0 136 -27 203q-48 125 -180 125q-96 0 -240 -64q10 -41 10 -98q0 -33 1.5 -98.5t1.5 -98.5q4 -176 4 -266q0 -16 4.5 -26.5t16.5 -17t20.5 -9t27.5 -6.5l56 -9l-2 -22h-99q-153 0 -297 -6l-2 28l43 9 q49 7 69 33.5t23 82.5q0 11 3.5 72t3.5 92q0 205 -19 291q-11 55 -54.5 91t-111.5 36q-110 0 -260 -88v-516q0 -36 11.5 -54.5t41.5 -25.5l90 -23v-24q-222 6 -223 6q-130 0 -196 -2l-2 20q33 7 69 33q65 46 76 129q8 102 8 150q0 174 -8 235q-6 52 -27.5 84t-42 40.5 t-43.5 8.5q-4 0 -18.5 -1t-18.5 -1z" />
<glyph unicode="n" horiz-adv-x="993" d="M18 23q45 6 76 24q54 26 60 111q8 140 8 211q0 158 -15 233q-14 73 -71 90h-49v23q109 35 243 102l19 -10l2 -152q216 142 364 142q103 0 158 -57.5t61 -161.5q11 -166 11 -361v-119q0 -20 7 -29t23 -16l99 -35l-6 -36q-99 18 -187 18q-94 0 -215 -23l-6 31l78 27 q33 13 45.5 36.5t19.5 71.5q13 114 13 209q0 61 -1 91t-6 77.5t-18 79t-35 53.5q-52 52 -151 52q-124 0 -252 -72q-1 -54 -4.5 -235t-3.5 -277q0 -42 17.5 -63t53.5 -29l80 -17l-2 -32q-110 18 -205 18q-33 0 -102 -3t-102 -3z" />
<glyph unicode="o" horiz-adv-x="1007" d="M57 420q0 117 64 217t171.5 158.5t231.5 58.5q181 0 303.5 -122t122.5 -304q0 -188 -123 -312t-309 -124q-123 0 -228.5 55.5t-169 154.5t-63.5 218zM190 479q0 -102 41.5 -202.5t124.5 -171t185 -70.5q85 0 149.5 52t95.5 129.5t31 166.5q0 103 -44.5 200t-125.5 160.5 t-176 63.5q-109 0 -195 -90t-86 -238z" />
<glyph unicode="p" horiz-adv-x="1030" d="M-12 709q16 10 76 41t116 64t90 60q12 0 18.5 -57.5t6.5 -95.5q203 104 319 104q71 0 139.5 -37.5t116.5 -95t77.5 -128t29.5 -136.5q0 -119 -69.5 -221.5t-184.5 -161.5t-244 -59q-80 0 -184 34l-4 -577q0 -49 14 -72t53 -24l109 -6v-35q-21 0 -72 2t-71 2 q-87 0 -289 -21v31l37 4q37 6 53.5 27.5t24.5 64.5q24 115 24 658q0 306 -10 526q-4 113 -78 113q-11 0 -23.5 -3.5t-20 -7t-21.5 -11t-19 -9.5zM293 117q51 -22 85.5 -35t88 -25t102.5 -12q125 0 204 81t79 210q0 95 -45.5 191t-126 160.5t-170.5 64.5q-85 0 -215 -64z" />
<glyph unicode="q" horiz-adv-x="980" d="M63 373q0 98 46.5 187t121 150.5t167.5 97.5t186 36q58 0 107 -14t76 -28t34 -14q16 0 45 27t41 47l24 -12q-16 -35 -20 -57q-27 -83 -27 -183q4 -566 4 -843q0 -59 -1 -177t-1 -178q0 -42 26 -56.5t75 -14.5h55l4 -33h-49q-132 0 -389 -17v31l65 10q49 7 65.5 39 t16.5 101l8 594q-153 -86 -297 -86q-166 0 -274.5 116t-108.5 277zM195 428q0 -167 95.5 -279t248.5 -112q113 0 204 69q1 57 1 113q0 204 -9 385q0 4 -0.5 15.5t-1 16t-1 14.5t-1.5 14.5t-3 12.5t-4 12.5t-5.5 10t-7.5 9.5q-31 32 -90.5 50.5t-118.5 18.5 q-144 0 -225.5 -98.5t-81.5 -251.5z" />
<glyph unicode="r" horiz-adv-x="743" d="M59 709q195 106 260 155q15 0 15 -18l-2 -166q26 15 96.5 58t126.5 77t61 35q59 -35 80 -57t21 -48q0 -33 -37 -61.5t-80 -36.5q-1 2 -4 13t-4 13.5t-4 11.5t-5.5 11.5t-7 9t-9 8.5t-11 5.5t-15 4.5t-18.5 1q-43 0 -114.5 -40.5t-71.5 -84.5q0 -32 -1 -96t-1 -96 q0 -213 4 -322q2 -24 11 -36t30 -13q57 -4 184 -4l2 -37q-117 -2 -319 -6q-28 0 -83 -1t-81 -1v24l63 19q17 6 24.5 15.5t10.5 31.5q23 164 23 305q0 126 -15 252q-3 30 -20 43.5t-51 13.5q-7 0 -27 -2t-27 -2z" />
<glyph unicode="s" horiz-adv-x="698" d="M55 209l25 12q40 -59 62 -87t56 -57.5t72 -40.5t90 -11q69 0 116.5 34t47.5 97q0 46 -30.5 88.5t-67.5 68.5t-80 47q-17 8 -52 22.5t-57 24.5t-51.5 28.5t-47 37.5t-30 48t-12.5 63q0 97 100 163t220 66q66 0 145 -14l29 -172l-21 -4q-31 57 -94 101t-133 44 q-56 0 -94.5 -36.5t-38.5 -88.5q0 -49 32.5 -84.5t77.5 -52.5q56 -22 95 -39t85 -45t74 -56.5t47 -69t19 -87.5q0 -72 -52.5 -127t-127.5 -81t-156 -26q-100 0 -205 43q-1 17 -6 48t-6 36q-5 28 -31 107z" />
<glyph unicode="t" horiz-adv-x="708" d="M55 764q86 42 144 90.5t110 124.5l21 -4l-25 -172l330 8v-66h-330q-10 -168 -10 -317q0 -97 4 -186q3 -78 42 -125t112 -47q34 0 67 9.5t72 26.5t57 23l13 -23q-69 -44 -157.5 -81t-152.5 -37q-90 0 -138 56t-48 151q0 102 4.5 289t5.5 261h-115z" />
<glyph unicode="u" horiz-adv-x="1069" d="M45 735q142 47 264 111l21 -10q-2 -27 -8 -94t-9.5 -108t-6.5 -100t-3 -106q0 -46 1 -75t4.5 -69.5t10.5 -66t20.5 -54.5t32.5 -45t47.5 -27t65.5 -11q119 0 265 94q14 284 14 488q0 52 -30 64q-26 11 -87 11h-20l2 37q131 21 274 60l10 -11q-1 -21 -13.5 -225 t-12.5 -309q0 -121 16 -209q3 -24 27 -19l110 23l9 -31q-144 -43 -246 -76q-1 0 -4.5 -1t-5.5 -1q-33 0 -43 158q-236 -141 -375 -141q-138 0 -185 121q-24 61 -24 182q0 53 3 158.5t3 158.5q0 103 -70 103q-7 0 -25.5 -2t-25.5 -2z" />
<glyph unicode="v" horiz-adv-x="833" d="M10 776l2 23q20 0 65 -1t66 -1q128 0 242 12l2 -25l-78 -16q-39 -7 -39 -41q0 -2 1 -9t1 -9q7 -37 17 -76t18 -68.5t23 -74t22 -65.5t25.5 -71.5t23.5 -63.5t27 -69.5t25 -64.5q7 14 38 76.5t41.5 84.5t35.5 76t37 88t28 82.5t26 93.5l3 12t3 15.5t1 13.5q0 20 -8 34.5 t-16 22t-28.5 14.5t-29.5 8.5t-35 6.5l2 29q129 -6 143 -6q13 0 142 6l4 -16q-55 -29 -79 -61.5t-46 -88.5q-19 -49 -43.5 -105.5t-43 -97t-48.5 -105.5t-45 -99q-72 -155 -117 -291h-27q-136 444 -289 766q-15 31 -41 41z" />
<glyph unicode="w" horiz-adv-x="1280" d="M-6 760l2 31q69 3 176 6q123 4 186 14l2 -27q-40 0 -65 -10q-37 -15 -37 -51q0 -13 4 -29q58 -249 158 -512l219 461l-31 51q-25 51 -49 64q-17 11 -65 16l-2 27q12 0 43 -1t43 -1q142 0 292 20l4 -22q-94 -32 -102 -37q-22 -15 -22 -39q0 -11 4 -27q69 -256 161 -506 q11 22 44.5 87.5t48.5 97t40 85.5t43.5 102t34.5 97q17 42 17 66q0 15 -5 25.5t-10.5 16.5t-22.5 11t-25.5 6.5t-35.5 5.5l5 33q59 -10 153 -10q18 0 56 3t55 3l6 -20q-29 -14 -47.5 -31t-26.5 -30.5t-24 -45.5q-135 -261 -215 -426q-94 -202 -129 -293q-8 -15 -20.5 -9.5 t-16.5 18.5q-76 292 -185 598q-42 -85 -161 -334q-58 -121 -125 -275q-3 -10 -18 -11h-2q-13 0 -15 13q-4 47 -27.5 134t-47 157t-63.5 186.5t-53 155.5q-39 116 -80 141q-6 3 -11.5 5.5t-12.5 4t-12 2t-15.5 1.5t-17.5 2z" />
<glyph unicode="x" horiz-adv-x="851" d="M4 20q70 24 88 46l279 321q-77 153 -160 268q-49 65 -64 79q-36 31 -112 34h-15l-2 31h109q44 0 133.5 2t132.5 2v-29q-3 0 -10.5 -0.5t-11.5 -1t-11 -1.5t-11 -3t-8.5 -4.5t-6.5 -6.5t-2 -9q0 -4 1 -8t2.5 -8t2.5 -7q31 -70 119 -242l129 156q1 1 6 7.5t6.5 8.5l6 8t6 9 t5 9t5 10t3.5 9.5t2.5 11t0.5 11.5q0 18 -13 29t-26.5 14t-37.5 5.5t-32 4.5v33q129 -6 141 -6q71 0 177 8v-27q-22 -6 -39 -13t-32.5 -19t-21 -16.5t-21.5 -22.5t-17 -19q-146 -162 -224 -252q55 -100 201 -352q21 -33 46 -42t108 -17l-7 -41q-22 1 -92.5 5.5t-107.5 4.5 q-27 0 -85 -4t-85 -4l-4 28q4 1 16 2.5t22.5 3t21.5 4.5t17.5 8.5t6.5 12.5q0 4 -4 12q-45 120 -142 277q-87 -87 -172 -217q-20 -30 -20 -49q0 -27 20.5 -37t67.5 -16q7 -1 10 -1l2 -30q-21 0 -69 3t-68 3q-26 0 -80.5 -4t-77.5 -4z" />
<glyph unicode="y" horiz-adv-x="878" d="M-12 -686q31 18 50.5 29t40.5 29.5t32.5 30.5t29.5 41t29 51t34.5 71.5t41.5 91.5t53 121t68 151q-92 350 -222 693q-27 72 -50.5 108t-53.5 43l-43 6v23q21 0 70.5 -1t70.5 -1q88 0 228 8v-25l-43 -8q-26 -3 -37 -14.5t-11 -40.5q0 -9 11 -72q79 -317 157 -549 q144 237 242 510q1 3 8 20.5t10 29.5t3 26q0 20 -8 35.5t-20.5 25t-34 17.5t-41 12.5t-48.5 9.5l10 33q112 -22 205 -22q18 0 62 3t63 3l8 -23q-25 -5 -35 -8t-26 -15t-31 -35t-35 -63q-30 -60 -137 -273t-164 -329q-105 -214 -174 -387.5t-111 -371.5q-86 2 -98 2 q-69 0 -100 -2z" />
<glyph unicode="z" horiz-adv-x="915" d="M16 643q56 114 60 182q153 -18 330 -18q192 0 446 14l6 -14q-71 -90 -193.5 -235t-225.5 -273t-183 -244q38 0 113.5 -2t113.5 -2q175 0 252 39q53 26 88 82q25 49 33 78h31q0 -32 -21.5 -111.5t-44.5 -142.5q-58 4 -84 4q-146 4 -270 4q-89 0 -166 -2q-23 -1 -264 -12 l-4 24q344 360 604 750q-43 2 -127 2q-156 0 -309 -18q-58 -7 -94.5 -37t-63.5 -88z" />
<glyph unicode="{" horiz-adv-x="544" d="M24 482v33q114 19 172 93.5t58 184.5q0 45 -23 132.5t-23 152.5q0 90 15.5 160t42 113.5t63.5 70.5t76.5 37t84.5 8v-43q-62 -1 -102 -27t-63.5 -92.5t-23.5 -176.5q0 -71 23.5 -161t23.5 -168q0 -83 -76 -181.5t-150 -119.5q74 -21 150 -119t76 -181q0 -78 -23.5 -168.5 t-23.5 -161.5q0 -110 23.5 -176.5t63.5 -92t102 -26.5v-43q-45 -2 -84.5 8t-76.5 37t-63.5 70.5t-42 113.5t-15.5 160q0 65 23 152.5t23 132.5q0 110 -58 184.5t-172 93.5z" />
<glyph unicode="|" horiz-adv-x="323" d="M129 -457v1899h66v-1899h-66z" />
<glyph unicode="}" horiz-adv-x="544" d="M54 -427q95 2 142.5 67.5t47.5 227.5q0 71 -23.5 161.5t-23.5 168.5q0 83 76 181t150 119q-74 21 -150 119.5t-76 181.5q0 78 23.5 168t23.5 161q0 110 -23.5 176.5t-64 92.5t-102.5 27v43q57 3 105.5 -15t89.5 -60t64.5 -122t23.5 -192q0 -65 -23 -152.5t-23 -132.5 q0 -110 58 -184.5t172 -93.5v-33q-114 -19 -172 -93.5t-58 -184.5q0 -45 23 -132.5t23 -152.5q0 -112 -23.5 -192t-64.5 -122t-89.5 -60t-105.5 -15v43z" />
<glyph horiz-adv-x="1689" d="M84 711q0 203 109.5 378t286.5 275t374 100q111 0 220.5 -34t205.5 -100t169.5 -156t116 -210.5t42.5 -254.5q0 -240 -143 -427t-371 -264q127 -105 307 -187.5t311 -82.5q54 0 115 14l6 -36q-4 -1 -43 -10t-50 -11.5t-47 -9.5t-57.5 -9.5t-55 -5t-64.5 -2.5 q-128 0 -332.5 90t-331.5 207q-130 0 -241.5 32.5t-188 84.5t-138 121t-98 138.5t-60.5 141t-33 125t-9 93.5zM248 821q0 -149 49 -289.5t135.5 -250.5t217 -177t282.5 -67q120 0 217.5 51.5t159.5 138t95.5 196.5t33.5 230q0 154 -58 294.5t-149.5 237t-205.5 153.5 t-226 57q-118 0 -220.5 -44t-175 -120t-114 -182.5t-41.5 -227.5z" />
<glyph horiz-adv-x="1429" d="M57 1389l6 43q5 0 79 -5.5t134 -5.5q66 0 179.5 16.5t181.5 16.5q97 0 181 -24.5t141.5 -64.5t98.5 -90.5t60 -103t19 -102.5q0 -69 -25.5 -128.5t-62.5 -98t-85 -69t-87 -45.5t-74 -23q29 -52 72 -132t69.5 -127.5t64 -113.5t64.5 -106t62.5 -88t66 -75t67 -52t74 -35 t78.5 -9l-6 -37q-81 -9 -157.5 10.5t-132.5 44.5t-123 95.5t-102 109.5t-98.5 145t-83.5 143t-84 159l-24 45q-81 -5 -223 18q-3 -301 10 -594q1 -19 11 -32.5t29.5 -22t38 -14t47.5 -12.5t46 -13l-8 -43q-66 20 -162.5 24.5t-179.5 -2t-149 -20.5l-7 41q66 7 109.5 37.5 t44.5 85.5q10 245 14 378t2.5 362t-14.5 417q-3 60 -40.5 78.5t-121.5 18.5zM387 748q88 -15 219 -15q78 0 141 19t102 49.5t65 70.5t36.5 79.5t10.5 80.5q0 67 -25.5 136t-82 131.5t-134.5 91.5q-28 9 -98.5 13.5t-141.5 -11.5t-73 -58q-22 -356 -19 -587z" />
<glyph horiz-adv-x="555" d="M12 -633q21 22 99 115q94 110 116 196q27 102 27 480q0 205 -10 354q-1 33 -3.5 55.5t-10 50.5t-25 43t-43.5 15q-16 0 -66 -10l-8 26q162 59 293 176l29 -16q-27 -61 -27 -152q-4 -192 -4 -290q-3 -326 -6 -707q0 -55 -33 -96q-64 -85 -154 -156q-8 -6 -63 -41.5 t-86 -66.5zM266 1307q0 33 26 57.5t60 24.5t59 -22.5t25 -55.5t-26 -57.5t-60 -24.5t-59 22.5t-25 55.5z" />
<glyph horiz-adv-x="1689" d="M86 709q0 163 67 306.5t175.5 240.5t247.5 152.5t282 55.5q141 0 277 -56.5t241 -153.5t169.5 -238.5t64.5 -300.5q0 -177 -80 -330.5t-229.5 -260t-344.5 -138.5q90 -114 205.5 -196.5t243.5 -129.5t257.5 -68.5t268.5 -21.5q166 0 348.5 36.5t264.5 74.5l12 -33 q-66 -30 -168.5 -66t-268.5 -72t-300 -36q-355 0 -635.5 131.5t-462.5 376.5q-105 13 -198 55t-161 101.5t-122 131.5t-87 149t-50 150.5t-17 139.5zM248 817q0 -110 28.5 -221t87 -211.5t139 -178t192.5 -123.5t239 -46q216 0 362 172.5t146 439.5q0 127 -38 244.5 t-103 207t-147 157t-174 102.5t-181 35q-112 0 -212 -41t-175.5 -114.5t-119.5 -183.5t-44 -239z" />
<glyph horiz-adv-x="1689" d="M84 711q0 203 109.5 378t286.5 275t374 100q111 0 220.5 -34t205.5 -100t169.5 -156t116 -210.5t42.5 -254.5q0 -240 -147 -432.5t-375 -260.5q67 -37 165.5 -103.5t180.5 -120.5t182 -107.5t212 -84t228 -30.5q303 0 490 111l12 -33q-44 -26 -72 -41t-92.5 -44 t-121 -45.5t-139.5 -30t-167 -13.5q-132 0 -243.5 25t-217 78t-190 106t-219.5 141t-247 151q-129 1 -239.5 33.5t-187 84.5t-137.5 121t-97 138.5t-60 141t-33 124.5t-9 93zM248 821q0 -149 49 -289.5t135.5 -250.5t217 -177t282.5 -67q120 0 217.5 51.5t159.5 138 t95.5 196.5t33.5 230q0 154 -58 294.5t-149.5 237t-205.5 153.5t-226 57q-118 0 -220.5 -44t-175 -120t-114 -182.5t-41.5 -227.5z" />
<glyph horiz-adv-x="2373" />
<glyph unicode="&#xa1;" horiz-adv-x="544" d="M141 -495q10 22 16 40.5t9.5 44.5t5 43.5t4.5 61t6 72.5q7 83 23 210.5t23.5 226.5t7.5 222l69 -2q0 -339 23 -663q3 -41 29 -116.5t24 -131.5q-43 -5 -87 -14.5t-67 -15.5t-44 -8t-30 5t-12 25zM142 755q0 13 22 22q69 35 97 90q8 21 21 21q14 0 22 -21q29 -57 93 -90 q20 -8 20 -22t-20 -22q-61 -31 -93 -94q-9 -23 -22 -23q-12 0 -21 23q-31 60 -97 94q-22 9 -22 22z" />
<glyph unicode="&#xa8;" horiz-adv-x="636" d="M66 1019q0 27 21.5 47.5t49.5 20.5t49 -19t21 -46t-22 -47.5t-50 -20.5t-48.5 19t-20.5 46zM426 1019q0 27 21.5 47.5t49.5 20.5t49 -19t21 -46t-21.5 -47.5t-49.5 -20.5t-49 19t-21 46z" />
<glyph unicode="&#xac;" d="M70 420v80h806v-80h-806zM811 152v348h66v-348h-66z" />
<glyph unicode="&#xad;" horiz-adv-x="505" d="M20 496l440 98l3 -62l-440 -98z" />
<glyph unicode="&#xae;" horiz-adv-x="659" d="M68 1144q0 111 78.5 186.5t183.5 75.5q107 0 184 -73.5t77 -178.5q0 -111 -78 -186t-183 -75q-108 0 -185 70.5t-77 180.5zM109 1145q0 -93 64.5 -152.5t156.5 -59.5q88 0 154 64t66 157q0 88 -65 149.5t-155 61.5q-88 0 -154.5 -63.5t-66.5 -156.5zM193 1276v24 q10 0 27 -0.5t28 -0.5q16 0 40 4.5t42 4.5q42 0 73 -22.5t31 -54.5q0 -54 -61 -80q10 -14 25 -38t23 -36t19.5 -26.5t22.5 -21.5t23 -9l-6 -22q-89 5 -163 143q-3 0 -37 2q3 -48 7 -89q1 -11 8 -15t25 -6l-4 -27q-58 12 -118 1l-3 26q31 1 33 20q6 104 1 198 q-3 15 -9.5 19.5t-26.5 5.5zM280 1174q8 0 19.5 -1t19.5 -1q29 0 44.5 14t15.5 36q0 24 -19.5 40.5t-52.5 17.5q-7 -1 -10 -2t-7 -6.5t-6 -15.5q-6 -27 -4 -82z" />
<glyph unicode="&#xb0;" horiz-adv-x="628" d="M0 1227q0 125 88.5 212.5t213.5 87.5q127 0 214.5 -86.5t87.5 -213.5t-90 -215t-212 -88q-123 0 -212.5 89t-89.5 214zM80 1226q0 -92 66 -157.5t156 -65.5t156 65.5t66 158.5t-64.5 157t-157.5 64q-92 0 -157 -65t-65 -157z" />
<glyph unicode="&#xb1;" d="M70 31v80h806v-80h-806zM82 573v80h806v-80h-806zM460 243v747h50v-747h-50z" />
<glyph unicode="&#xb4;" horiz-adv-x="538" d="M92 909q52 70 137 159.5t156 145.5q38 -27 70 -67q-173 -89 -342 -258z" />
<glyph unicode="&#xb6;" horiz-adv-x="1239" d="M82 817q140 367 373 529q59 41 145 73.5t167.5 50t155 29.5t117.5 15l45 4l5 -95q-5 0 -47.5 -2.5t-70.5 -5t-78.5 -7t-90.5 -11t-86 -15.5t-86 -22t-70 -29q-38 -19 -59.5 -35t-45 -48.5t-34.5 -79t-21.5 -124.5t-14 -187t-3.5 -265q0 -87 9 -153.5t20.5 -106t36 -75 t40 -50.5t48.5 -43q27 -24 141.5 -50t228.5 -38l-18 -92q-149 33 -246.5 63t-162.5 66.5t-100.5 68t-84.5 86.5q-53 61 -90 132.5t-72.5 171.5t-48.5 130q-25 55 -2 115zM610 117l17 1261l65 17l-20 -1303z" />
<glyph unicode="&#xc0;" horiz-adv-x="1472" d="M47 33q33 4 57.5 14.5t40.5 28.5t23.5 30.5t19.5 36.5q71 143 244 552t287 696q16 45 18 63l41 -4q2 -8 19 -51q123 -354 281 -764.5t216 -523.5q23 -43 50 -57.5t88 -24.5l-5 -37q-303 10 -442 -6l-6 37q68 3 96 29.5t17 70.5q-14 58 -34.5 117t-52 139.5t-44.5 116.5 q-94 6 -270.5 9.5t-254.5 0.5q-14 -34 -39 -92t-38.5 -89t-31.5 -77.5t-32 -89.5q-5 -16 -6 -28.5t4 -23.5t11 -19.5t21 -16t27 -13t35.5 -12t40.5 -11t47 -11.5l-6 -43q-98 12 -208 16.5t-208 -4.5zM469 584q100 -11 463 -11q-102 268 -232 584q-155 -387 -231 -573z M509 1807l107 61q32 -49 61.5 -109t46.5 -100.5t45 -113.5l-27 -25q-32 58 -64.5 103t-52 66.5t-58.5 59.5t-58 58z" />
<glyph unicode="&#xc1;" horiz-adv-x="1472" d="M47 33q33 4 57.5 14.5t40.5 28.5t23.5 30.5t19.5 36.5q71 143 244 552t287 696q16 45 18 63l41 -4q2 -8 19 -51q123 -354 281 -764.5t216 -523.5q23 -43 50 -57.5t88 -24.5l-5 -37q-303 10 -442 -6l-6 37q68 3 96 29.5t17 70.5q-14 58 -34.5 117t-52 139.5t-44.5 116.5 q-94 6 -270.5 9.5t-254.5 0.5q-14 -34 -39 -92t-38.5 -89t-31.5 -77.5t-32 -89.5q-5 -16 -6 -28.5t4 -23.5t11 -19.5t21 -16t27 -13t35.5 -12t40.5 -11t47 -11.5l-6 -43q-98 12 -208 16.5t-208 -4.5zM469 584q100 -11 463 -11q-102 268 -232 584q-155 -387 -231 -573z M728 1545q28 73 45 113.5t46.5 100.5t61.5 109q64 -34 107 -61q-19 -20 -58 -58t-58.5 -59.5t-52 -66.5t-64.5 -103z" />
<glyph unicode="&#xc2;" horiz-adv-x="1472" d="M47 33q33 4 57.5 14.5t40.5 28.5t23.5 30.5t19.5 36.5q71 143 244 552t287 696q16 45 18 63l41 -4q2 -8 19 -51q123 -354 281 -764.5t216 -523.5q23 -43 50 -57.5t88 -24.5l-5 -37q-303 10 -442 -6l-6 37q68 3 96 29.5t17 70.5q-14 58 -34.5 117t-52 139.5t-44.5 116.5 q-94 6 -270.5 9.5t-254.5 0.5q-14 -34 -39 -92t-38.5 -89t-31.5 -77.5t-32 -89.5q-5 -16 -6 -28.5t4 -23.5t11 -19.5t21 -16t27 -13t35.5 -12t40.5 -11t47 -11.5l-6 -43q-98 12 -208 16.5t-208 -4.5zM469 584q100 -11 463 -11q-102 268 -232 584q-155 -387 -231 -573z M497 1559l232 283h43l233 -283l-28 -19l-226 187l-227 -187z" />
<glyph unicode="&#xc3;" horiz-adv-x="1472" d="M47 33q33 4 57.5 14.5t40.5 28.5t23.5 30.5t19.5 36.5q71 143 244 552t287 696q16 45 18 63l41 -4q2 -8 19 -51q123 -354 281 -764.5t216 -523.5q23 -43 50 -57.5t88 -24.5l-5 -37q-303 10 -442 -6l-6 37q68 3 96 29.5t17 70.5q-14 58 -34.5 117t-52 139.5t-44.5 116.5 q-94 6 -270.5 9.5t-254.5 0.5q-14 -34 -39 -92t-38.5 -89t-31.5 -77.5t-32 -89.5q-5 -16 -6 -28.5t4 -23.5t11 -19.5t21 -16t27 -13t35.5 -12t40.5 -11t47 -11.5l-6 -43q-98 12 -208 16.5t-208 -4.5zM469 584q100 -11 463 -11q-102 268 -232 584q-155 -387 -231 -573z M470 1559q28 43 67.5 81t67 56t36.5 18q44 0 133.5 -25.5t132.5 -25.5q16 0 45 27.5t47 62.5l28 -19q-31 -62 -81 -113.5t-72 -51.5q-42 0 -141 26t-139 26q-5 0 -11.5 -2.5t-14 -8.5t-14 -11.5t-15 -14.5t-14 -15t-14 -16t-12.5 -14z" />
<glyph unicode="&#xc4;" horiz-adv-x="1472" d="M47 33q33 4 57.5 14.5t40.5 28.5t23.5 30.5t19.5 36.5q71 143 244 552t287 696q16 45 18 63l41 -4q2 -8 19 -51q123 -354 281 -764.5t216 -523.5q23 -43 50 -57.5t88 -24.5l-5 -37q-303 10 -442 -6l-6 37q68 3 96 29.5t17 70.5q-14 58 -34.5 117t-52 139.5t-44.5 116.5 q-94 6 -270.5 9.5t-254.5 0.5q-14 -34 -39 -92t-38.5 -89t-31.5 -77.5t-32 -89.5q-5 -16 -6 -28.5t4 -23.5t11 -19.5t21 -16t27 -13t35.5 -12t40.5 -11t47 -11.5l-6 -43q-98 12 -208 16.5t-208 -4.5zM469 584q100 -11 463 -11q-102 268 -232 584q-155 -387 -231 -573z M471 1677q0 32 24.5 55t57.5 23t56.5 -21t23.5 -53t-24.5 -55t-57.5 -23t-56.5 21t-23.5 53zM864 1677q0 32 24.5 55t57.5 23t56.5 -21t23.5 -53t-24.5 -55t-57.5 -23t-56.5 21t-23.5 53z" />
<glyph unicode="&#xc5;" horiz-adv-x="1472" d="M47 33q33 4 57.5 14.5t40.5 28.5t23.5 30.5t19.5 36.5q71 143 244 552t287 696q16 45 18 63l41 -4q2 -8 19 -51q123 -354 281 -764.5t216 -523.5q23 -43 50 -57.5t88 -24.5l-5 -37q-303 10 -442 -6l-6 37q68 3 96 29.5t17 70.5q-14 58 -34.5 117t-52 139.5t-44.5 116.5 q-94 6 -270.5 9.5t-254.5 0.5q-14 -34 -39 -92t-38.5 -89t-31.5 -77.5t-32 -89.5q-5 -16 -6 -28.5t4 -23.5t11 -19.5t21 -16t27 -13t35.5 -12t40.5 -11t47 -11.5l-6 -43q-98 12 -208 16.5t-208 -4.5zM469 584q100 -11 463 -11q-102 268 -232 584q-155 -387 -231 -573z M586 1680q0 67 47.5 112.5t110.5 45.5q64 0 111.5 -44.5t47.5 -107.5q0 -67 -48 -112.5t-111 -45.5q-65 0 -111.5 42.5t-46.5 109.5zM627 1681q0 -50 34 -81.5t83 -31.5q47 0 82.5 33.5t35.5 83.5q0 47 -35 80t-83 33q-47 0 -82 -33.5t-35 -83.5z" />
<glyph unicode="&#xc8;" horiz-adv-x="1308" d="M57 20q82 14 106 27q38 21 44 62q29 220 32.5 579t-16.5 615q-3 55 -36.5 78.5t-102.5 31.5v29q959 -7 1073 8q12 -6 13 -15.5t-6 -53.5q-17 -110 -29 -230l-39 2q9 69 1 117.5t-42 66.5q-70 37 -197.5 49.5t-238 5t-181.5 -23.5q-18 -4 -20 -14q-10 -83 -16.5 -275.5 t-6.5 -312.5q88 -3 279 0.5t268 13.5q13 2 23.5 9.5t20 23.5t14.5 25.5t12.5 33.5t8.5 28l7 28l35 -4q-9 -72 -9.5 -207t7.5 -213l-41 -2q-3 172 -86 186q-185 30 -539 21v-89v-114t1 -108.5t3 -116.5t6 -92t9 -78q3 -20 14 -23q29 -14 111.5 -24.5t185.5 -12.5t211.5 21.5 t171.5 72.5q86 67 137 197l35 -12q-83 -266 -117 -342q-35 11 -493.5 12.5t-606.5 -18.5zM435 1772l108 61q32 -48 62 -109.5t45 -99t45 -114.5l-26 -25q-32 58 -64.5 103t-52.5 66.5t-59 59.5t-58 58z" />
<glyph unicode="&#xc9;" horiz-adv-x="1308" d="M57 20q82 14 106 27q38 21 44 62q29 220 32.5 579t-16.5 615q-3 55 -36.5 78.5t-102.5 31.5v29q959 -7 1073 8q12 -6 13 -15.5t-6 -53.5q-17 -110 -29 -230l-39 2q9 69 1 117.5t-42 66.5q-70 37 -197.5 49.5t-238 5t-181.5 -23.5q-18 -4 -20 -14q-10 -83 -16.5 -275.5 t-6.5 -312.5q88 -3 279 0.5t268 13.5q13 2 23.5 9.5t20 23.5t14.5 25.5t12.5 33.5t8.5 28l7 28l35 -4q-9 -72 -9.5 -207t7.5 -213l-41 -2q-3 172 -86 186q-185 30 -539 21v-89v-114t1 -108.5t3 -116.5t6 -92t9 -78q3 -20 14 -23q29 -14 111.5 -24.5t185.5 -12.5t211.5 21.5 t171.5 72.5q86 67 137 197l35 -12q-83 -266 -117 -342q-35 11 -493.5 12.5t-606.5 -18.5zM654 1510q28 73 45 113.5t46.5 100.5t61.5 109q64 -34 107 -61q-19 -20 -58 -58t-58.5 -59.5t-52 -66.5t-64.5 -103z" />
<glyph unicode="&#xca;" horiz-adv-x="1308" d="M57 20q82 14 106 27q38 21 44 62q29 220 32.5 579t-16.5 615q-3 55 -36.5 78.5t-102.5 31.5v29q959 -7 1073 8q12 -6 13 -15.5t-6 -53.5q-17 -110 -29 -230l-39 2q9 69 1 117.5t-42 66.5q-70 37 -197.5 49.5t-238 5t-181.5 -23.5q-18 -4 -20 -14q-10 -83 -16.5 -275.5 t-6.5 -312.5q88 -3 279 0.5t268 13.5q13 2 23.5 9.5t20 23.5t14.5 25.5t12.5 33.5t8.5 28l7 28l35 -4q-9 -72 -9.5 -207t7.5 -213l-41 -2q-3 172 -86 186q-185 30 -539 21v-89v-114t1 -108.5t3 -116.5t6 -92t9 -78q3 -20 14 -23q29 -14 111.5 -24.5t185.5 -12.5t211.5 21.5 t171.5 72.5q86 67 137 197l35 -12q-83 -266 -117 -342q-35 11 -493.5 12.5t-606.5 -18.5zM423 1524l232 283h44l232 -283l-28 -19l-226 187l-227 -187z" />
<glyph unicode="&#xcb;" horiz-adv-x="1308" d="M57 20q82 14 106 27q38 21 44 62q29 220 32.5 579t-16.5 615q-3 55 -36.5 78.5t-102.5 31.5v29q959 -7 1073 8q12 -6 13 -15.5t-6 -53.5q-17 -110 -29 -230l-39 2q9 69 1 117.5t-42 66.5q-70 37 -197.5 49.5t-238 5t-181.5 -23.5q-18 -4 -20 -14q-10 -83 -16.5 -275.5 t-6.5 -312.5q88 -3 279 0.5t268 13.5q13 2 23.5 9.5t20 23.5t14.5 25.5t12.5 33.5t8.5 28l7 28l35 -4q-9 -72 -9.5 -207t7.5 -213l-41 -2q-3 172 -86 186q-185 30 -539 21v-89v-114t1 -108.5t3 -116.5t6 -92t9 -78q3 -20 14 -23q29 -14 111.5 -24.5t185.5 -12.5t211.5 21.5 t171.5 72.5q86 67 137 197l35 -12q-83 -266 -117 -342q-35 11 -493.5 12.5t-606.5 -18.5zM397 1643q0 32 24.5 54.5t57.5 22.5t56.5 -21t23.5 -53t-24.5 -54.5t-57.5 -22.5t-56.5 21t-23.5 53zM791 1643q0 32 24 54.5t57 22.5t56.5 -21t23.5 -53t-24.5 -54.5t-57.5 -22.5 t-56 21t-23 53z" />
<glyph unicode="&#xcc;" horiz-adv-x="763" d="M61 35q118 3 152 13q66 18 84 85q6 22 8 51q17 233 15.5 586.5t-17.5 497.5q-5 48 -16 75.5t-44 42.5t-55 18.5t-89 9.5q-19 2 -29 3l4 39q314 -32 635 2l2 -43q-98 -2 -130 -11q-70 -21 -86 -110q-2 -8 -3 -16q-16 -135 -19.5 -511t6.5 -603q1 -39 8.5 -63t19.5 -38.5 t41 -21t58.5 -8.5t87.5 -2v-39q-422 20 -631 -2zM159 1786l107 61q32 -49 61.5 -109t46.5 -100.5t45 -113.5l-27 -24q-32 58 -64 103t-52 66t-59 59t-58 58z" />
<glyph unicode="&#xcd;" horiz-adv-x="763" d="M61 35q118 3 152 13q66 18 84 85q6 22 8 51q17 233 15.5 586.5t-17.5 497.5q-5 48 -16 75.5t-44 42.5t-55 18.5t-89 9.5q-19 2 -29 3l4 39q314 -32 635 2l2 -43q-98 -2 -130 -11q-70 -21 -86 -110q-2 -8 -3 -16q-16 -135 -19.5 -511t6.5 -603q1 -39 8.5 -63t19.5 -38.5 t41 -21t58.5 -8.5t87.5 -2v-39q-422 20 -631 -2zM378 1524q30 77 45 114.5t45 99t62 109.5q65 -34 108 -61q-20 -21 -58.5 -58t-58.5 -58.5t-52.5 -66.5t-64.5 -103z" />
<glyph unicode="&#xce;" horiz-adv-x="763" d="M61 35q118 3 152 13q66 18 84 85q6 22 8 51q17 233 15.5 586.5t-17.5 497.5q-5 48 -16 75.5t-44 42.5t-55 18.5t-89 9.5q-19 2 -29 3l4 39q314 -32 635 2l2 -43q-98 -2 -130 -11q-70 -21 -86 -110q-2 -8 -3 -16q-16 -135 -19.5 -511t6.5 -603q1 -39 8.5 -63t19.5 -38.5 t41 -21t58.5 -8.5t87.5 -2v-39q-422 20 -631 -2zM146 1539l233 282h43l232 -282l-27 -20l-227 188l-226 -188z" />
<glyph unicode="&#xcf;" horiz-adv-x="763" d="M61 35q118 3 152 13q66 18 84 85q6 22 8 51q17 233 15.5 586.5t-17.5 497.5q-5 48 -16 75.5t-44 42.5t-55 18.5t-89 9.5q-19 2 -29 3l4 39q314 -32 635 2l2 -43q-98 -2 -130 -11q-70 -21 -86 -110q-2 -8 -3 -16q-16 -135 -19.5 -511t6.5 -603q1 -39 8.5 -63t19.5 -38.5 t41 -21t58.5 -8.5t87.5 -2v-39q-422 20 -631 -2zM121 1657q0 32 24.5 55t57.5 23t56 -21t23 -53t-24 -55t-57 -23t-56.5 21t-23.5 53zM514 1657q0 32 24.5 55t57.5 23t56.5 -21t23.5 -53t-24.5 -55t-57.5 -23t-56.5 21t-23.5 53z" />
<glyph unicode="&#xd0;" horiz-adv-x="1699" d="M63 -8v39q86 -2 119.5 20.5t40.5 102.5q11 128 17 547t-9 604q-4 33 -13 53t-31 30t-43 13.5t-66 7.5l2 41q37 -4 194 -4q25 0 196 7t249 7q141 0 269 -29.5t237.5 -90t189.5 -146.5t125 -207t45 -264q0 -113 -28.5 -212t-77 -172.5t-115 -133.5t-140 -99.5t-153.5 -66.5 t-155 -39t-146 -12q-96 0 -221.5 6t-196.5 6q-149 0 -289 -8zM77 696v64h717v-64h-717zM395.5 703.5q-5.5 -457.5 5.5 -582.5q1 -16 7.5 -23t21.5 -10q175 -53 295 -53q320 0 497 185t177 523q0 129 -41.5 241t-110 189.5t-157 134t-181.5 83t-184 26.5q-186 0 -287 -45 q-9 -4 -13 -9t-5 -11.5t-2 -24.5q-17 -166 -22.5 -623.5z" />
<glyph unicode="&#xd1;" horiz-adv-x="1822" d="M59 1414v42q159 -33 297 -9q8 2 12 -4q22 -37 97.5 -118t212 -214t247.5 -239.5t304 -290t282 -268.5q2 66 7.5 195.5t7 191.5t2 161t-3.5 188.5t-13 189.5q-4 47 -12 74t-30.5 52.5t-65.5 38.5t-113 19l4 33q26 1 109 -6t160.5 -10.5t201.5 4.5v-41q-79 1 -114 -36.5 t-41 -139.5q-21 -513 -21 -1020q0 -22 4.5 -120t5.5 -107l-45 -3q-19 72 -171 238q-106 115 -268.5 270t-414 386.5t-360.5 334.5q-1 -52 -4 -231.5t-4 -278.5t-0.5 -242.5t4.5 -244.5q1 -23 2 -35t6.5 -32t15.5 -31.5t29.5 -27.5t47 -26t69.5 -20.5t96 -18.5l-4 -41 q-263 35 -508 0l-4 45q40 3 62.5 6.5t43 12t29.5 19.5t16 34.5t8.5 50t2.5 72.5q1 83 3.5 231.5t4.5 267t3 239.5t0 197.5t-5 92.5q-37 153 -195 169zM657 1488q28 43 67 81t66.5 55.5t36.5 17.5q44 0 134 -25.5t133 -25.5q16 0 44.5 27t46.5 63l29 -19 q-31 -62 -81.5 -113.5t-72.5 -51.5q-42 0 -141 26t-139 26q-5 0 -11.5 -2.5t-14 -8t-13.5 -11t-14.5 -14.5t-14 -15t-14 -16t-12.5 -14z" />
<glyph unicode="&#xd2;" horiz-adv-x="1624" d="M47 709q0 110 31.5 212.5t86 185.5t129 151.5t159.5 114.5t179 71.5t187 25.5q156 0 297 -60t242.5 -161t161 -241t59.5 -293q0 -114 -34 -224.5t-99.5 -204.5t-154 -165.5t-205 -112.5t-244.5 -41q-133 0 -247.5 32t-193.5 83.5t-143 120.5t-102.5 139t-64 142.5 t-35 127.5t-9.5 97zM215 834q0 -173 57 -324.5t150.5 -254t216 -161.5t252.5 -59q99 0 184.5 34t146 91.5t104 133t64.5 159.5t21 170q0 112 -28 223t-84 211t-133.5 177.5t-185 123t-228.5 45.5q-107 0 -205.5 -42.5t-171.5 -117t-116.5 -181t-43.5 -228.5zM581 1799 l107 61q32 -49 61.5 -109t46.5 -100.5t45 -113.5l-27 -25q-32 58 -64.5 103t-52 66.5t-58.5 59.5t-58 58z" />
<glyph unicode="&#xd3;" horiz-adv-x="1624" d="M47 709q0 110 31.5 212.5t86 185.5t129 151.5t159.5 114.5t179 71.5t187 25.5q156 0 297 -60t242.5 -161t161 -241t59.5 -293q0 -114 -34 -224.5t-99.5 -204.5t-154 -165.5t-205 -112.5t-244.5 -41q-133 0 -247.5 32t-193.5 83.5t-143 120.5t-102.5 139t-64 142.5 t-35 127.5t-9.5 97zM215 834q0 -173 57 -324.5t150.5 -254t216 -161.5t252.5 -59q99 0 184.5 34t146 91.5t104 133t64.5 159.5t21 170q0 112 -28 223t-84 211t-133.5 177.5t-185 123t-228.5 45.5q-107 0 -205.5 -42.5t-171.5 -117t-116.5 -181t-43.5 -228.5zM800 1537 q30 77 45 114.5t45 99t62 109.5q65 -34 108 -61q-19 -20 -58 -58t-59 -59.5t-52.5 -66.5t-64.5 -103z" />
<glyph unicode="&#xd4;" horiz-adv-x="1624" d="M47 709q0 110 31.5 212.5t86 185.5t129 151.5t159.5 114.5t179 71.5t187 25.5q156 0 297 -60t242.5 -161t161 -241t59.5 -293q0 -114 -34 -224.5t-99.5 -204.5t-154 -165.5t-205 -112.5t-244.5 -41q-133 0 -247.5 32t-193.5 83.5t-143 120.5t-102.5 139t-64 142.5 t-35 127.5t-9.5 97zM215 834q0 -173 57 -324.5t150.5 -254t216 -161.5t252.5 -59q99 0 184.5 34t146 91.5t104 133t64.5 159.5t21 170q0 112 -28 223t-84 211t-133.5 177.5t-185 123t-228.5 45.5q-107 0 -205.5 -42.5t-171.5 -117t-116.5 -181t-43.5 -228.5zM568 1551 l232 283h44l232 -283l-27 -19l-227 187l-226 -187z" />
<glyph unicode="&#xd5;" horiz-adv-x="1624" d="M47 709q0 110 31.5 212.5t86 185.5t129 151.5t159.5 114.5t179 71.5t187 25.5q156 0 297 -60t242.5 -161t161 -241t59.5 -293q0 -114 -34 -224.5t-99.5 -204.5t-154 -165.5t-205 -112.5t-244.5 -41q-133 0 -247.5 32t-193.5 83.5t-143 120.5t-102.5 139t-64 142.5 t-35 127.5t-9.5 97zM215 834q0 -173 57 -324.5t150.5 -254t216 -161.5t252.5 -59q99 0 184.5 34t146 91.5t104 133t64.5 159.5t21 170q0 112 -28 223t-84 211t-133.5 177.5t-185 123t-228.5 45.5q-107 0 -205.5 -42.5t-171.5 -117t-116.5 -181t-43.5 -228.5zM542 1551 q28 43 67.5 81t67 56t36.5 18q44 0 133.5 -25.5t132.5 -25.5q16 0 44.5 27t46.5 63l29 -19q-31 -62 -81.5 -113.5t-72.5 -51.5q-43 0 -141 26t-138 26q-5 0 -11.5 -2.5t-14 -8.5t-14 -11.5t-15 -14.5t-14 -15t-14 -16t-12.5 -14z" />
<glyph unicode="&#xd6;" horiz-adv-x="1624" d="M47 709q0 110 31.5 212.5t86 185.5t129 151.5t159.5 114.5t179 71.5t187 25.5q156 0 297 -60t242.5 -161t161 -241t59.5 -293q0 -114 -34 -224.5t-99.5 -204.5t-154 -165.5t-205 -112.5t-244.5 -41q-133 0 -247.5 32t-193.5 83.5t-143 120.5t-102.5 139t-64 142.5 t-35 127.5t-9.5 97zM215 834q0 -173 57 -324.5t150.5 -254t216 -161.5t252.5 -59q99 0 184.5 34t146 91.5t104 133t64.5 159.5t21 170q0 112 -28 223t-84 211t-133.5 177.5t-185 123t-228.5 45.5q-107 0 -205.5 -42.5t-171.5 -117t-116.5 -181t-43.5 -228.5zM543 1669 q0 32 24.5 55t57.5 23t56 -21t23 -53t-24 -55t-57 -23t-56.5 21t-23.5 53zM936 1669q0 32 24.5 55t57.5 23t56.5 -21t23.5 -53t-24.5 -55t-57.5 -23t-56.5 21t-23.5 53z" />
<glyph unicode="&#xd7;" d="M87 129l701 701l51 -51l-701 -701zM110 766l68 67l684 -684l-68 -67z" />
<glyph unicode="&#xd8;" horiz-adv-x="1734" d="M47 709q0 110 31.5 212.5t86 185.5t129 151.5t159.5 114.5t179 71.5t187 25.5q156 0 297 -60t242.5 -161t161 -241t59.5 -293q0 -114 -34 -224.5t-99.5 -204.5t-154 -165.5t-205 -112.5t-244.5 -41q-133 0 -247.5 32t-193.5 83.5t-143 120.5t-102.5 139t-64 142.5 t-35 127.5t-9.5 97zM136 66l1315 1341l45 -38l-1321 -1344zM215 834q0 -173 57 -324.5t150.5 -254t216 -161.5t252.5 -59q99 0 184.5 34t146 91.5t104 133t64.5 159.5t21 170q0 112 -28 223t-84 211t-133.5 177.5t-185 123t-228.5 45.5q-107 0 -205.5 -42.5t-171.5 -117 t-116.5 -181t-43.5 -228.5z" />
<glyph unicode="&#xd9;" horiz-adv-x="1693" d="M47 1409l4 39q187 -22 537 -2l2 -41q-64 0 -98.5 -4t-62 -19.5t-39 -44t-15.5 -77.5q-6 -66 -9 -137t-3.5 -158.5t-0.5 -147.5t1.5 -172t1.5 -164q0 -166 55 -260q53 -87 159 -136.5t261 -49.5q160 0 276.5 48.5t163.5 113.5q38 53 60 129.5t32 199.5q44 453 -6 799 q-4 25 -17.5 41t-41 22.5t-53.5 8.5t-72 2l2 45q40 -6 200.5 -9t233.5 3l-4 -37q-81 6 -115.5 -13.5t-34.5 -82.5q0 -14 -0.5 -135.5t-1.5 -167t-4 -144.5t-8.5 -177.5t-13.5 -156.5q-11 -128 -34 -212.5t-73 -155.5q-59 -84 -195 -136.5t-305 -52.5q-188 0 -298 35.5 t-203 124.5q-62 57 -92.5 136t-24.5 212q7 252 4.5 487.5t-10.5 327.5q-2 23 -6 39.5t-7 28.5t-12 20t-14 12.5t-21.5 7.5t-24.5 4t-33.5 3.5t-39.5 3.5zM609 1750l108 60q32 -48 62 -109.5t45 -99t45 -114.5l-26 -24q-32 58 -64.5 103t-52.5 66.5t-59 59.5t-58 58z" />
<glyph unicode="&#xda;" horiz-adv-x="1693" d="M47 1409l4 39q187 -22 537 -2l2 -41q-64 0 -98.5 -4t-62 -19.5t-39 -44t-15.5 -77.5q-6 -66 -9 -137t-3.5 -158.5t-0.5 -147.5t1.5 -172t1.5 -164q0 -166 55 -260q53 -87 159 -136.5t261 -49.5q160 0 276.5 48.5t163.5 113.5q38 53 60 129.5t32 199.5q44 453 -6 799 q-4 25 -17.5 41t-41 22.5t-53.5 8.5t-72 2l2 45q40 -6 200.5 -9t233.5 3l-4 -37q-81 6 -115.5 -13.5t-34.5 -82.5q0 -14 -0.5 -135.5t-1.5 -167t-4 -144.5t-8.5 -177.5t-13.5 -156.5q-11 -128 -34 -212.5t-73 -155.5q-59 -84 -195 -136.5t-305 -52.5q-188 0 -298 35.5 t-203 124.5q-62 57 -92.5 136t-24.5 212q7 252 4.5 487.5t-10.5 327.5q-2 23 -6 39.5t-7 28.5t-12 20t-14 12.5t-21.5 7.5t-24.5 4t-33.5 3.5t-39.5 3.5zM828 1487q28 73 45 113.5t46.5 100.5t61.5 109q65 -33 108 -60q-19 -20 -58 -58t-59 -59.5t-52.5 -66.5t-64.5 -103z " />
<glyph unicode="&#xdb;" horiz-adv-x="1693" d="M47 1409l4 39q187 -22 537 -2l2 -41q-64 0 -98.5 -4t-62 -19.5t-39 -44t-15.5 -77.5q-6 -66 -9 -137t-3.5 -158.5t-0.5 -147.5t1.5 -172t1.5 -164q0 -166 55 -260q53 -87 159 -136.5t261 -49.5q160 0 276.5 48.5t163.5 113.5q38 53 60 129.5t32 199.5q44 453 -6 799 q-4 25 -17.5 41t-41 22.5t-53.5 8.5t-72 2l2 45q40 -6 200.5 -9t233.5 3l-4 -37q-81 6 -115.5 -13.5t-34.5 -82.5q0 -14 -0.5 -135.5t-1.5 -167t-4 -144.5t-8.5 -177.5t-13.5 -156.5q-11 -128 -34 -212.5t-73 -155.5q-59 -84 -195 -136.5t-305 -52.5q-188 0 -298 35.5 t-203 124.5q-62 57 -92.5 136t-24.5 212q7 252 4.5 487.5t-10.5 327.5q-2 23 -6 39.5t-7 28.5t-12 20t-14 12.5t-21.5 7.5t-24.5 4t-33.5 3.5t-39.5 3.5zM597 1502l232 283h44l232 -283l-28 -20l-226 188l-227 -188z" />
<glyph unicode="&#xdc;" horiz-adv-x="1693" d="M47 1409l4 39q187 -22 537 -2l2 -41q-64 0 -98.5 -4t-62 -19.5t-39 -44t-15.5 -77.5q-6 -66 -9 -137t-3.5 -158.5t-0.5 -147.5t1.5 -172t1.5 -164q0 -166 55 -260q53 -87 159 -136.5t261 -49.5q160 0 276.5 48.5t163.5 113.5q38 53 60 129.5t32 199.5q44 453 -6 799 q-4 25 -17.5 41t-41 22.5t-53.5 8.5t-72 2l2 45q40 -6 200.5 -9t233.5 3l-4 -37q-81 6 -115.5 -13.5t-34.5 -82.5q0 -14 -0.5 -135.5t-1.5 -167t-4 -144.5t-8.5 -177.5t-13.5 -156.5q-11 -128 -34 -212.5t-73 -155.5q-59 -84 -195 -136.5t-305 -52.5q-188 0 -298 35.5 t-203 124.5q-62 57 -92.5 136t-24.5 212q7 252 4.5 487.5t-10.5 327.5q-2 23 -6 39.5t-7 28.5t-12 20t-14 12.5t-21.5 7.5t-24.5 4t-33.5 3.5t-39.5 3.5zM572 1620q0 32 24 55t57 23t56.5 -21t23.5 -53t-24.5 -55t-57.5 -23t-56 21t-23 53zM965 1620q0 32 24 55t57 23 t56.5 -21t23.5 -53t-24 -55t-57 -23t-56.5 21t-23.5 53z" />
<glyph unicode="&#xdd;" horiz-adv-x="1533" d="M31 1415v43q290 -19 539 -8v-37q-69 1 -104 -9q-36 -11 -38.5 -43t21.5 -65q59 -93 393 -542q101 150 142.5 212.5t99.5 156t97 166.5q28 54 -35 96q-44 30 -128 33l8 49q74 -23 210 -28.5t258 14.5l-7 -36q-141 -19 -232 -149q-227 -315 -381 -578q0 -3 -1 -160.5 t0.5 -254t5.5 -146.5q3 -30 5.5 -41t17 -21.5t39 -15.5t74.5 -14q12 -2 18.5 -3t18 -3t21.5 -4l-2 -50q-98 21 -268.5 22t-283.5 -24l-3 44q11 2 38.5 5.5t40 5.5t34 7.5t32.5 13t23.5 19.5t18 30t6.5 41q9 179 0 518q-56 100 -214 321t-255 333q-56 64 -98 83t-111 19z M755 1487q30 77 45 114.5t45 99t62 109.5q65 -33 108 -60q-19 -20 -58 -58t-59 -59.5t-52.5 -66.5t-64.5 -103z" />
<glyph unicode="&#xe0;" horiz-adv-x="788" d="M66 131q0 63 20 113q2 6 10 14.5t15 11.5q86 50 171 71t224 40q0 40 3 103.5t3 72.5q0 76 -29 121q-24 32 -66 62t-87 30q-47 0 -78 -23.5t-31 -58.5q0 -19 8 -39l-116 -49q-13 32 -13 55q0 42 43 72q68 50 155 79.5t134 29.5q40 0 101 -47t79 -89q14 -33 19.5 -70.5 t5.5 -121.5q0 -39 -5 -133t-5 -170q0 -63 8 -99q16 -61 59 -61q24 0 86 25l13 -35q-186 -72 -197 -72q-7 0 -22.5 8t-37 36.5t-30.5 70.5q-94 -56 -167 -84.5t-153 -28.5q-71 0 -95.5 42t-24.5 124zM71 1188q14 18 31.5 34.5t27.5 24.5l10 8q71 -56 156 -145.5t137 -159.5 l-20 -20q-169 169 -342 258zM184 152q0 -57 28 -89t77 -32q46 0 110.5 23t102.5 61q-4 50 -4 123q0 38 4 88q-36 6 -53 6q-44 0 -97 -9.5t-73 -19.5q-95 -47 -95 -151z" />
<glyph unicode="&#xe1;" horiz-adv-x="788" d="M66 131q0 63 20 113q2 6 10 14.5t15 11.5q86 50 171 71t224 40q0 40 3 103.5t3 72.5q0 76 -29 121q-24 32 -66 62t-87 30q-47 0 -78 -23.5t-31 -58.5q0 -19 8 -39l-116 -49q-13 32 -13 55q0 42 43 72q68 50 155 79.5t134 29.5q40 0 101 -47t79 -89q14 -33 19.5 -70.5 t5.5 -121.5q0 -39 -5 -133t-5 -170q0 -63 8 -99q16 -61 59 -61q24 0 86 25l13 -35q-186 -72 -197 -72q-7 0 -22.5 8t-37 36.5t-30.5 70.5q-94 -56 -167 -84.5t-153 -28.5q-71 0 -95.5 42t-24.5 124zM184 152q0 -57 28 -89t77 -32q46 0 110.5 23t102.5 61q-4 50 -4 123 q0 38 4 88q-36 6 -53 6q-44 0 -97 -9.5t-73 -19.5q-95 -47 -95 -151zM325 948q52 71 136.5 160t155.5 145q38 -27 70 -67q-173 -89 -342 -258z" />
<glyph unicode="&#xe2;" horiz-adv-x="788" d="M66 131q0 63 20 113q2 6 10 14.5t15 11.5q86 50 171 71t224 40q0 40 3 103.5t3 72.5q0 76 -29 121q-24 32 -66 62t-87 30q-47 0 -78 -23.5t-31 -58.5q0 -19 8 -39l-116 -49q-13 32 -13 55q0 42 43 72q68 50 155 79.5t134 29.5q40 0 101 -47t79 -89q14 -33 19.5 -70.5 t5.5 -121.5q0 -39 -5 -133t-5 -170q0 -63 8 -99q16 -61 59 -61q24 0 86 25l13 -35q-186 -72 -197 -72q-7 0 -22.5 8t-37 36.5t-30.5 70.5q-94 -56 -167 -84.5t-153 -28.5q-71 0 -95.5 42t-24.5 124zM173 936l186 319h48l186 -319l-23 -12l-187 230l-187 -230zM184 152 q0 -57 28 -89t77 -32q46 0 110.5 23t102.5 61q-4 50 -4 123q0 38 4 88q-36 6 -53 6q-44 0 -97 -9.5t-73 -19.5q-95 -47 -95 -151z" />
<glyph unicode="&#xe3;" horiz-adv-x="788" d="M66 131q0 63 20 113q2 6 10 14.5t15 11.5q86 50 171 71t224 40q0 40 3 103.5t3 72.5q0 76 -29 121q-24 32 -66 62t-87 30q-47 0 -78 -23.5t-31 -58.5q0 -19 8 -39l-116 -49q-13 32 -13 55q0 42 43 72q68 50 155 79.5t134 29.5q40 0 101 -47t79 -89q14 -33 19.5 -70.5 t5.5 -121.5q0 -39 -5 -133t-5 -170q0 -63 8 -99q16 -61 59 -61q24 0 86 25l13 -35q-186 -72 -197 -72q-7 0 -22.5 8t-37 36.5t-30.5 70.5q-94 -56 -167 -84.5t-153 -28.5q-71 0 -95.5 42t-24.5 124zM151 986q22 36 51.5 70t51 51.5t28.5 17.5q34 0 118.5 -25t117.5 -25 q13 0 34.5 22.5t35.5 52.5l29 -19q-24 -53 -63 -100t-55 -47q-33 0 -124.5 25t-121.5 25q-19 0 -73 -67zM184 152q0 -57 28 -89t77 -32q46 0 110.5 23t102.5 61q-4 50 -4 123q0 38 4 88q-36 6 -53 6q-44 0 -97 -9.5t-73 -19.5q-95 -47 -95 -151z" />
<glyph unicode="&#xe4;" horiz-adv-x="788" d="M66 131q0 63 20 113q2 6 10 14.5t15 11.5q86 50 171 71t224 40q0 40 3 103.5t3 72.5q0 76 -29 121q-24 32 -66 62t-87 30q-47 0 -78 -23.5t-31 -58.5q0 -19 8 -39l-116 -49q-13 32 -13 55q0 42 43 72q68 50 155 79.5t134 29.5q40 0 101 -47t79 -89q14 -33 19.5 -70.5 t5.5 -121.5q0 -39 -5 -133t-5 -170q0 -63 8 -99q16 -61 59 -61q24 0 86 25l13 -35q-186 -72 -197 -72q-7 0 -22.5 8t-37 36.5t-30.5 70.5q-94 -56 -167 -84.5t-153 -28.5q-71 0 -95.5 42t-24.5 124zM132 1101q0 27 22 47.5t50 20.5t48.5 -19t20.5 -46t-21.5 -47.5 t-49.5 -20.5t-49 19t-21 46zM184 152q0 -57 28 -89t77 -32q46 0 110.5 23t102.5 61q-4 50 -4 123q0 38 4 88q-36 6 -53 6q-44 0 -97 -9.5t-73 -19.5q-95 -47 -95 -151zM493 1101q0 27 21.5 47.5t49.5 20.5t49 -19t21 -46t-22 -47.5t-50 -20.5t-48.5 19t-20.5 46z" />
<glyph unicode="&#xe5;" horiz-adv-x="788" d="M66 131q0 63 20 113q2 6 10 14.5t15 11.5q86 50 171 71t224 40q0 40 3 103.5t3 72.5q0 76 -29 121q-24 32 -66 62t-87 30q-47 0 -78 -23.5t-31 -58.5q0 -19 8 -39l-116 -49q-13 32 -13 55q0 42 43 72q68 50 155 79.5t134 29.5q40 0 101 -47t79 -89q14 -33 19.5 -70.5 t5.5 -121.5q0 -39 -5 -133t-5 -170q0 -63 8 -99q16 -61 59 -61q24 0 86 25l13 -35q-186 -72 -197 -72q-7 0 -22.5 8t-37 36.5t-30.5 70.5q-94 -56 -167 -84.5t-153 -28.5q-71 0 -95.5 42t-24.5 124zM184 152q0 -57 28 -89t77 -32q46 0 110.5 23t102.5 61q-4 50 -4 123 q0 38 4 88q-36 6 -53 6q-44 0 -97 -9.5t-73 -19.5q-95 -47 -95 -151zM223 1093q0 67 48 112.5t111 45.5q64 0 111.5 -44.5t47.5 -107.5q0 -67 -48 -113t-111 -46q-66 0 -112.5 43t-46.5 110zM268 1093q0 -48 33.5 -78.5t80.5 -30.5q45 0 79.5 33t34.5 81q0 45 -34 77.5 t-80 32.5q-45 0 -79.5 -33.5t-34.5 -81.5z" />
<glyph unicode="&#xe8;" horiz-adv-x="847" d="M70 379q0 83 24.5 155.5t63.5 122t88.5 85.5t100 52.5t97.5 16.5q95 0 171 -50t122 -128q1 -1 3.5 -6l3 -6t3.5 -5t4.5 -5.5l5 -5t7.5 -5.5t9.5 -5.5t12.5 -6.5l-2 -21q-306 -55 -589 -116v-33q0 -153 82 -257t223 -104q120 0 252 86l14 -20q-73 -58 -166.5 -97.5 t-185.5 -39.5q-157 0 -250.5 112.5t-93.5 280.5zM124 1180q14 18 31.5 35t28.5 25l10 8q71 -56 155.5 -145t136.5 -160l-20 -21q-169 169 -342 258zM197 483l354 78q46 11 56 23q11 13 1 37q-29 62 -90.5 106t-136.5 43q-63 -2 -105.5 -47.5t-59.5 -106t-19 -133.5z" />
<glyph unicode="&#xe9;" horiz-adv-x="847" d="M70 379q0 83 24.5 155.5t63.5 122t88.5 85.5t100 52.5t97.5 16.5q95 0 171 -50t122 -128q1 -1 3.5 -6l3 -6t3.5 -5t4.5 -5.5l5 -5t7.5 -5.5t9.5 -5.5t12.5 -6.5l-2 -21q-306 -55 -589 -116v-33q0 -153 82 -257t223 -104q120 0 252 86l14 -20q-73 -58 -166.5 -97.5 t-185.5 -39.5q-157 0 -250.5 112.5t-93.5 280.5zM197 483l354 78q46 11 56 23q11 13 1 37q-29 62 -90.5 106t-136.5 43q-63 -2 -105.5 -47.5t-59.5 -106t-19 -133.5zM378 941q52 70 137 159.5t156 145.5q37 -28 69 -68q-173 -89 -342 -258z" />
<glyph unicode="&#xea;" horiz-adv-x="847" d="M70 379q0 83 24.5 155.5t63.5 122t88.5 85.5t100 52.5t97.5 16.5q95 0 171 -50t122 -128q1 -1 3.5 -6l3 -6t3.5 -5t4.5 -5.5l5 -5t7.5 -5.5t9.5 -5.5t12.5 -6.5l-2 -21q-306 -55 -589 -116v-33q0 -153 82 -257t223 -104q120 0 252 86l14 -20q-73 -58 -166.5 -97.5 t-185.5 -39.5q-157 0 -250.5 112.5t-93.5 280.5zM197 483l354 78q46 11 56 23q11 13 1 37q-29 62 -90.5 106t-136.5 43q-63 -2 -105.5 -47.5t-59.5 -106t-19 -133.5zM226 928l187 320h47l186 -320l-22 -12l-188 230l-187 -230z" />
<glyph unicode="&#xeb;" horiz-adv-x="847" d="M70 379q0 83 24.5 155.5t63.5 122t88.5 85.5t100 52.5t97.5 16.5q95 0 171 -50t122 -128q1 -1 3.5 -6l3 -6t3.5 -5t4.5 -5.5l5 -5t7.5 -5.5t9.5 -5.5t12.5 -6.5l-2 -21q-306 -55 -589 -116v-33q0 -153 82 -257t223 -104q120 0 252 86l14 -20q-73 -58 -166.5 -97.5 t-185.5 -39.5q-157 0 -250.5 112.5t-93.5 280.5zM186 1093q0 27 21.5 47.5t49.5 20.5t49 -18.5t21 -45.5t-22 -47.5t-50 -20.5t-48.5 18.5t-20.5 45.5zM197 483l354 78q46 11 56 23q11 13 1 37q-29 62 -90.5 106t-136.5 43q-63 -2 -105.5 -47.5t-59.5 -106t-19 -133.5z M546 1093q0 27 21.5 47.5t49.5 20.5t49 -18.5t21 -45.5t-21.5 -47.5t-49.5 -20.5t-49 18.5t-21 45.5z" />
<glyph unicode="&#xec;" horiz-adv-x="540" d="M-109 1257q14 18 31.5 35t27.5 25l11 8q71 -56 156 -145.5t137 -159.5l-21 -21q-169 169 -342 258zM61 -12q-6 6 0 32l80 11q28 2 31 39q14 143 14 309q0 73 -8 225q-4 82 -57 82q-21 0 -53 -14l-7 39q147 54 267 157l20 -10q-2 -15 -8 -53.5t-8 -61.5q-15 -153 -15 -315 q0 -74 9 -276q4 -117 69 -117q13 0 50 1t49 1l2 -35h-70q-193 0 -365 -14z" />
<glyph unicode="&#xed;" horiz-adv-x="540" d="M61 -12q-6 6 0 32l80 11q28 2 31 39q14 143 14 309q0 73 -8 225q-4 82 -57 82q-21 0 -53 -14l-7 39q147 54 267 157l20 -10q-2 -15 -8 -53.5t-8 -61.5q-15 -153 -15 -315q0 -74 9 -276q4 -117 69 -117q13 0 50 1t49 1l2 -35h-70q-193 0 -365 -14zM213 1020 q52 70 137 159.5t156 145.5q37 -28 69 -68q-173 -89 -342 -258z" />
<glyph unicode="&#xee;" horiz-adv-x="540" d="M24 1012l186 319h47l186 -319l-22 -13l-188 231l-187 -231zM61 -12q-6 6 0 32l80 11q28 2 31 39q14 143 14 309q0 73 -8 225q-4 82 -57 82q-21 0 -53 -14l-7 39q147 54 267 157l20 -10q-2 -15 -8 -53.5t-8 -61.5q-15 -153 -15 -315q0 -74 9 -276q4 -117 69 -117 q13 0 50 1t49 1l2 -35h-70q-193 0 -365 -14z" />
<glyph unicode="&#xef;" horiz-adv-x="540" d="M-17 1056q0 27 21.5 47.5t49.5 20.5t49 -19t21 -46t-22 -47.5t-50 -20.5t-48.5 19t-20.5 46zM61 -12q-6 6 0 32l80 11q28 2 31 39q14 143 14 309q0 73 -8 225q-4 82 -57 82q-21 0 -53 -14l-7 39q147 54 267 157l20 -10q-2 -15 -8 -53.5t-8 -61.5q-15 -153 -15 -315 q0 -74 9 -276q4 -117 69 -117q13 0 50 1t49 1l2 -35h-70q-193 0 -365 -14zM343 1056q0 27 21.5 47.5t49.5 20.5t49 -19t21 -46t-21.5 -47.5t-49.5 -20.5t-49 19t-21 46z" />
<glyph unicode="&#xf1;" horiz-adv-x="993" d="M18 23q45 6 76 24q54 26 60 111q8 140 8 211q0 158 -15 233q-14 73 -71 90h-49v23q109 35 243 102l19 -10l2 -152q216 142 364 142q103 0 158 -57.5t61 -161.5q11 -166 11 -361v-119q0 -20 7 -29t23 -16l99 -35l-6 -36q-99 18 -187 18q-94 0 -215 -23l-6 31l78 27 q33 13 45.5 36.5t19.5 71.5q13 114 13 209q0 61 -1 91t-6 77.5t-18 79t-35 53.5q-52 52 -151 52q-124 0 -252 -72q-1 -54 -4.5 -235t-3.5 -277q0 -42 17.5 -63t53.5 -29l80 -17l-2 -32q-110 18 -205 18q-33 0 -102 -3t-102 -3zM290 990q22 36 52 70t51.5 51.5t28.5 17.5 q34 0 118 -25t117 -25q13 0 35 23t36 52l29 -19q-24 -53 -63 -100t-55 -47q-33 0 -125 25.5t-122 25.5q-4 0 -9 -2t-10.5 -7t-10 -9t-12 -12.5t-10.5 -12.5t-10.5 -13.5t-9.5 -11.5z" />
<glyph unicode="&#xf2;" horiz-adv-x="1007" d="M57 420q0 117 64 217t171.5 158.5t231.5 58.5q181 0 303.5 -122t122.5 -304q0 -188 -123 -312t-309 -124q-123 0 -228.5 55.5t-169 154.5t-63.5 218zM190 479q0 -102 41.5 -202.5t124.5 -171t185 -70.5q85 0 149.5 52t95.5 129.5t31 166.5q0 103 -44.5 200t-125.5 160.5 t-176 63.5q-109 0 -195 -90t-86 -238zM204 1194q14 18 31.5 35t27.5 25l10 8q71 -56 156 -145.5t137 -160.5l-20 -20q-169 169 -342 258z" />
<glyph unicode="&#xf3;" horiz-adv-x="1007" d="M57 420q0 117 64 217t171.5 158.5t231.5 58.5q181 0 303.5 -122t122.5 -304q0 -188 -123 -312t-309 -124q-123 0 -228.5 55.5t-169 154.5t-63.5 218zM190 479q0 -102 41.5 -202.5t124.5 -171t185 -70.5q85 0 149.5 52t95.5 129.5t31 166.5q0 103 -44.5 200t-125.5 160.5 t-176 63.5q-109 0 -195 -90t-86 -238zM458 954q52 71 137 160.5t156 145.5q37 -28 69 -68q-173 -89 -342 -258z" />
<glyph unicode="&#xf4;" horiz-adv-x="1007" d="M57 420q0 117 64 217t171.5 158.5t231.5 58.5q181 0 303.5 -122t122.5 -304q0 -188 -123 -312t-309 -124q-123 0 -228.5 55.5t-169 154.5t-63.5 218zM190 479q0 -102 41.5 -202.5t124.5 -171t185 -70.5q85 0 149.5 52t95.5 129.5t31 166.5q0 103 -44.5 200t-125.5 160.5 t-176 63.5q-109 0 -195 -90t-86 -238zM306 942l187 320h47l186 -320l-23 -12l-187 230l-187 -230z" />
<glyph unicode="&#xf5;" horiz-adv-x="1007" d="M57 420q0 117 64 217t171.5 158.5t231.5 58.5q181 0 303.5 -122t122.5 -304q0 -188 -123 -312t-309 -124q-123 0 -228.5 55.5t-169 154.5t-63.5 218zM190 479q0 -102 41.5 -202.5t124.5 -171t185 -70.5q85 0 149.5 52t95.5 129.5t31 166.5q0 103 -44.5 200t-125.5 160.5 t-176 63.5q-109 0 -195 -90t-86 -238zM284 992q22 36 51.5 70t51 51.5t28.5 17.5q34 0 118.5 -25t117.5 -25q13 0 35 23t36 52l28 -19q-24 -53 -63 -100t-55 -47q-33 0 -124.5 25.5t-121.5 25.5q-18 0 -68 -62q-3 -4 -5 -6z" />
<glyph unicode="&#xf6;" horiz-adv-x="1007" d="M57 420q0 117 64 217t171.5 158.5t231.5 58.5q181 0 303.5 -122t122.5 -304q0 -188 -123 -312t-309 -124q-123 0 -228.5 55.5t-169 154.5t-63.5 218zM190 479q0 -102 41.5 -202.5t124.5 -171t185 -70.5q85 0 149.5 52t95.5 129.5t31 166.5q0 103 -44.5 200t-125.5 160.5 t-176 63.5q-109 0 -195 -90t-86 -238zM265 1107q0 27 22 47.5t50 20.5t48.5 -19t20.5 -46t-21.5 -47.5t-49.5 -20.5t-49 19t-21 46zM626 1107q0 27 21.5 47.5t49.5 20.5t49 -19t21 -46t-22 -47.5t-50 -20.5t-48.5 19t-20.5 46z" />
<glyph unicode="&#xf7;" d="M70 420v80h806v-80h-806zM400 167q0 27 21.5 47.5t49.5 20.5t49 -19t21 -46t-22 -47.5t-50 -20.5t-48.5 19t-20.5 46zM400 775q0 27 21.5 47.5t49.5 20.5t49 -19t21 -46t-22 -47.5t-50 -20.5t-48.5 19t-20.5 46z" />
<glyph unicode="&#xf8;" horiz-adv-x="1036" d="M57 420q0 117 64 217t171.5 158.5t231.5 58.5q181 0 303.5 -122t122.5 -304q0 -188 -123 -312t-309 -124q-123 0 -228.5 55.5t-169 154.5t-63.5 218zM75 18l822 838l34 -30l-826 -840zM190 479q0 -102 41.5 -202.5t124.5 -171t185 -70.5q85 0 149.5 52t95.5 129.5 t31 166.5q0 103 -44.5 200t-125.5 160.5t-176 63.5q-109 0 -195 -90t-86 -238z" />
<glyph unicode="&#xf9;" horiz-adv-x="1069" d="M45 735q142 47 264 111l21 -10q-2 -27 -8 -94t-9.5 -108t-6.5 -100t-3 -106q0 -46 1 -75t4.5 -69.5t10.5 -66t20.5 -54.5t32.5 -45t47.5 -27t65.5 -11q119 0 265 94q14 284 14 488q0 52 -30 64.5t-107 10.5l2 37q131 21 274 60l10 -11q-1 -21 -13.5 -225t-12.5 -309 q0 -121 16 -209q3 -24 27 -19l110 23l9 -31q-144 -43 -246 -76q-1 0 -4.5 -1t-5.5 -1q-33 0 -43 158q-236 -141 -375 -141q-138 0 -185 121q-24 61 -24 182q0 53 3 158.5t3 158.5q0 103 -70 103q-7 0 -25.5 -2t-25.5 -2zM251 1204q14 18 31.5 35t27.5 25l11 8 q71 -56 155.5 -145t136.5 -160l-20 -21q-169 169 -342 258z" />
<glyph unicode="&#xfa;" horiz-adv-x="1069" d="M45 735q142 47 264 111l21 -10q-2 -27 -8 -94t-9.5 -108t-6.5 -100t-3 -106q0 -46 1 -75t4.5 -69.5t10.5 -66t20.5 -54.5t32.5 -45t47.5 -27t65.5 -11q119 0 265 94q14 284 14 488q0 52 -30 64.5t-107 10.5l2 37q131 21 274 60l10 -11q-1 -21 -13.5 -225t-12.5 -309 q0 -121 16 -209q3 -24 27 -19l110 23l9 -31q-144 -43 -246 -76q-1 0 -4.5 -1t-5.5 -1q-33 0 -43 158q-236 -141 -375 -141q-138 0 -185 121q-24 61 -24 182q0 53 3 158.5t3 158.5q0 103 -70 103q-7 0 -25.5 -2t-25.5 -2zM505 965q52 70 137 159.5t156 145.5q37 -28 69 -68 q-173 -89 -342 -258z" />
<glyph unicode="&#xfb;" horiz-adv-x="1069" d="M45 735q142 47 264 111l21 -10q-2 -27 -8 -94t-9.5 -108t-6.5 -100t-3 -106q0 -46 1 -75t4.5 -69.5t10.5 -66t20.5 -54.5t32.5 -45t47.5 -27t65.5 -11q119 0 265 94q14 284 14 488q0 52 -30 64.5t-107 10.5l2 37q131 21 274 60l10 -11q-1 -21 -13.5 -225t-12.5 -309 q0 -121 16 -209q3 -24 27 -19l110 23l9 -31q-144 -43 -246 -76q-1 0 -4.5 -1t-5.5 -1q-33 0 -43 158q-236 -141 -375 -141q-138 0 -185 121q-24 61 -24 182q0 53 3 158.5t3 158.5q0 103 -70 103q-7 0 -25.5 -2t-25.5 -2zM353 952l187 320h47l186 -320l-22 -12l-188 230 l-187 -230z" />
<glyph unicode="&#xfc;" horiz-adv-x="1069" d="M45 735q142 47 264 111l21 -10q-2 -27 -8 -94t-9.5 -108t-6.5 -100t-3 -106q0 -46 1 -75t4.5 -69.5t10.5 -66t20.5 -54.5t32.5 -45t47.5 -27t65.5 -11q119 0 265 94q14 284 14 488q0 52 -30 64.5t-107 10.5l2 37q131 21 274 60l10 -11q-1 -21 -13.5 -225t-12.5 -309 q0 -121 16 -209q3 -24 27 -19l110 23l9 -31q-144 -43 -246 -76q-1 0 -4.5 -1t-5.5 -1q-33 0 -43 158q-236 -141 -375 -141q-138 0 -185 121q-24 61 -24 182q0 53 3 158.5t3 158.5q0 103 -70 103q-7 0 -25.5 -2t-25.5 -2zM312 1117q0 27 22 47.5t50 20.5t48.5 -18.5 t20.5 -45.5t-21.5 -47.5t-49.5 -20.5t-49 18.5t-21 45.5zM673 1117q0 27 21.5 47.5t49.5 20.5t49 -18.5t21 -45.5t-21.5 -47.5t-49.5 -20.5t-49 18.5t-21 45.5z" />
<glyph unicode="&#xfd;" horiz-adv-x="878" d="M-12 -686q31 18 50.5 29t40.5 29.5t32.5 30.5t29.5 41t29 51t34.5 71.5t41.5 91.5t53 121t68 151q-92 350 -222 693q-27 72 -50.5 108t-53.5 43l-43 6v23q21 0 70.5 -1t70.5 -1q88 0 228 8v-25l-43 -8q-26 -3 -37 -14.5t-11 -40.5q0 -9 11 -72q79 -317 157 -549 q144 237 242 510q1 3 8 20.5t10 29.5t3 26q0 20 -8 35.5t-20.5 25t-34 17.5t-41 12.5t-48.5 9.5l10 33q112 -22 205 -22q18 0 62 3t63 3l8 -23q-25 -5 -35 -8t-26 -15t-31 -35t-35 -63q-30 -60 -137 -273t-164 -329q-105 -214 -174 -387.5t-111 -371.5q-86 2 -98 2 q-69 0 -100 -2zM371 941q52 70 137 159.5t156 145.5q37 -28 69 -68q-173 -89 -342 -258z" />
<glyph unicode="&#xff;" horiz-adv-x="878" d="M-12 -686q31 18 50.5 29t40.5 29.5t32.5 30.5t29.5 41t29 51t34.5 71.5t41.5 91.5t53 121t68 151q-92 350 -222 693q-27 72 -50.5 108t-53.5 43l-43 6v23q21 0 70.5 -1t70.5 -1q88 0 228 8v-25l-43 -8q-26 -3 -37 -14.5t-11 -40.5q0 -9 11 -72q79 -317 157 -549 q144 237 242 510q1 3 8 20.5t10 29.5t3 26q0 20 -8 35.5t-20.5 25t-34 17.5t-41 12.5t-48.5 9.5l10 33q112 -22 205 -22q18 0 62 3t63 3l8 -23q-25 -5 -35 -8t-26 -15t-31 -35t-35 -63q-30 -60 -137 -273t-164 -329q-105 -214 -174 -387.5t-111 -371.5q-86 2 -98 2 q-69 0 -100 -2zM178 1093q0 27 22 47.5t50 20.5t48.5 -18.5t20.5 -45.5t-21.5 -47.5t-49.5 -20.5t-49 18.5t-21 45.5zM539 1093q0 27 21.5 47.5t49.5 20.5t49 -18.5t21 -45.5t-22 -47.5t-50 -20.5t-48.5 18.5t-20.5 45.5z" />
<glyph unicode="&#x178;" horiz-adv-x="1533" d="M31 1415v43q290 -19 539 -8v-37q-69 1 -104 -9q-36 -11 -38.5 -43t21.5 -65q59 -93 393 -542q101 150 142.5 212.5t99.5 156t97 166.5q28 54 -35 96q-44 30 -128 33l8 49q74 -23 210 -28.5t258 14.5l-7 -36q-141 -19 -232 -149q-227 -315 -381 -578q0 -3 -1 -160.5 t0.5 -254t5.5 -146.5q3 -30 5.5 -41t17 -21.5t39 -15.5t74.5 -14q12 -2 18.5 -3t18 -3t21.5 -4l-2 -50q-98 21 -268.5 22t-283.5 -24l-3 44q11 2 38.5 5.5t40 5.5t34 7.5t32.5 13t23.5 19.5t18 30t6.5 41q9 179 0 518q-56 100 -214 321t-255 333q-56 64 -98 83t-111 19z M498 1620q0 32 24.5 55t57.5 23t56 -21t23 -53t-24 -55t-57 -23t-56.5 21t-23.5 53zM891 1620q0 32 24.5 55t57.5 23t56.5 -21t23.5 -53t-24.5 -55t-57.5 -23t-56.5 21t-23.5 53z" />
<glyph unicode="&#x2000;" horiz-adv-x="945" />
<glyph unicode="&#x2001;" horiz-adv-x="1890" />
<glyph unicode="&#x2002;" horiz-adv-x="945" />
<glyph unicode="&#x2003;" horiz-adv-x="1890" />
<glyph unicode="&#x2004;" horiz-adv-x="630" />
<glyph unicode="&#x2005;" horiz-adv-x="472" />
<glyph unicode="&#x2006;" horiz-adv-x="315" />
<glyph unicode="&#x2007;" horiz-adv-x="315" />
<glyph unicode="&#x2008;" horiz-adv-x="236" />
<glyph unicode="&#x2009;" horiz-adv-x="378" />
<glyph unicode="&#x200a;" horiz-adv-x="105" />
<glyph unicode="&#x2010;" horiz-adv-x="483" d="M20 496l440 98l3 -62l-440 -98z" />
<glyph unicode="&#x2011;" horiz-adv-x="483" d="M20 496l440 98l3 -62l-440 -98z" />
<glyph unicode="&#x2012;" horiz-adv-x="483" d="M20 496l440 98l3 -62l-440 -98z" />
<glyph unicode="&#x2013;" horiz-adv-x="1064" d="M20 496l1017 98l7 -62l-1017 -98z" />
<glyph unicode="&#x2014;" horiz-adv-x="2088" d="M20 496l2034 98l14 -62l-2034 -98z" />
<glyph unicode="&#x202f;" horiz-adv-x="378" />
<glyph unicode="&#x205f;" horiz-adv-x="472" />
<glyph unicode="&#x25fc;" horiz-adv-x="808" d="M0 0v809h809v-809h-809z" />
<glyph unicode="&#xfb01;" horiz-adv-x="1179" d="M68 61q66 6 73 7q44 10 58.5 30.5t17.5 67.5q16 170 16 379q0 16 -1 83t-1 109q-25 -1 -75 -5t-76 -5v94q26 -1 76 -4t75 -4v197q0 164 46.5 251.5t181.5 180.5q59 41 160.5 73.5t166.5 32.5q45 0 125 -26t117 -56q-1 -41 -14.5 -57t-89.5 -74q-16 8 -66 39.5t-100 46.5 t-127 15q-114 0 -167.5 -98t-72.5 -318q-4 -44 -8 -207h205q72 0 113 2.5t113.5 18.5t148.5 49l41 -33q-21 -52 -31 -107q-13 -58 -21 -176.5t-8 -165.5q0 -157 21 -290q4 -32 65 -43q35 -9 100 -13l-10 -69q-147 22 -256 22q-27 0 -58.5 -3t-77 -10l-58.5 -9l-4 67 q35 3 75 10q35 9 49 29.5t17 63.5q4 51 4 225q0 137 -10 266q-2 27 -31 50.5t-78 29.5q-60 6 -175.5 7.5t-135.5 2.5q-2 -61 -2 -137q0 -292 12 -489q1 -23 11.5 -32t35.5 -11q26 -1 63.5 -2.5t63.5 -2.5l-6 -75q-120 14 -272 14q-110 0 -217 -14z" />
</font>
</defs>
</svg>
